{"glyphs":{"0":{"ha":638,"x_min":40,"x_max":624,"o":"m 279 -11 q 99 82 158 -11 q 40 350 40 175 q 47 486 40 425 q 156 855 72 726 q 383 983 240 983 q 564 891 504 983 q 624 624 624 799 q 615 486 624 560 q 506 118 590 247 q 279 -11 422 -11 m 296 151 q 340 178 322 151 q 374 276 358 204 q 403 486 389 349 q 418 700 418 636 q 406 795 418 769 q 367 821 393 821 q 322 794 340 821 q 288 696 303 768 q 258 486 272 624 q 244 275 244 353 q 257 178 244 204 q 296 151 269 151 z "},"1":{"ha":638,"x_min":19,"x_max":579,"o":"m 56 0 q 28 11 36 0 q 19 47 19 22 q 21 69 19 61 l 24 93 q 38 146 26 129 q 72 163 50 163 l 221 163 l 286 786 l 133 765 q 108 789 115 765 q 100 847 100 813 q 101 882 100 872 q 142 921 106 914 l 456 978 q 492 967 474 978 q 508 944 510 957 l 426 163 l 543 163 q 571 151 563 163 q 579 113 579 139 l 578 93 l 575 69 q 560 17 571 33 q 526 0 549 0 l 56 0 z "},"2":{"ha":638,"x_min":-19,"x_max":617,"o":"m 8 0 q -12 33 -4 0 q -19 101 -19 65 l -18 122 q -12 143 -15 138 l 338 583 q 391 667 375 633 q 407 736 407 701 q 380 799 407 778 q 307 819 353 819 q 242 808 272 819 q 176 776 211 796 q 139 760 147 760 q 88 792 108 760 q 69 856 67 825 q 164 949 75 914 q 356 983 253 983 q 550 923 483 983 q 617 761 617 863 q 519 517 617 636 l 242 163 l 521 163 q 549 151 540 163 q 557 113 557 139 l 556 93 l 553 69 q 538 17 549 33 q 504 0 526 0 l 8 0 z "},"3":{"ha":638,"x_min":-14,"x_max":597,"o":"m 258 -11 q 139 1 203 -11 q 31 38 75 13 q -10 103 -14 63 q 6 142 -8 117 q 37 188 19 168 q 69 208 54 208 q 99 194 78 208 q 159 163 129 175 q 229 151 189 151 q 333 194 293 151 q 372 313 372 238 q 339 399 372 369 q 233 428 306 428 l 185 428 q 157 439 165 428 q 149 475 149 450 q 150 497 149 489 l 153 522 q 168 575 157 558 q 201 592 179 592 l 238 592 q 344 628 304 592 q 385 726 385 665 q 361 794 385 769 q 293 819 338 819 q 233 810 257 819 q 188 789 208 801 q 160 776 167 776 q 121 811 140 776 q 101 875 101 846 q 177 955 101 926 q 360 983 253 983 q 534 926 471 983 q 597 772 597 869 q 556 628 597 690 q 444 538 514 567 l 444 532 q 547 450 513 504 q 582 321 582 396 q 579 283 582 308 q 477 68 565 147 q 258 -11 389 -11 z "},"4":{"ha":638,"x_min":-7,"x_max":617,"o":"m 383 -3 q 306 42 299 -3 l 321 197 l 35 197 q 6 246 18 197 q -3 326 -7 294 l 1 342 l 364 942 q 397 969 376 964 q 454 975 417 975 l 525 975 q 604 931 608 975 l 544 360 l 582 360 q 617 314 617 360 q 615 290 617 299 l 614 267 q 598 214 610 231 q 564 197 586 197 l 526 197 l 511 42 q 422 -3 504 -3 l 383 -3 m 338 360 l 351 494 q 385 685 358 569 l 379 686 l 193 360 l 338 360 z "},"5":{"ha":638,"x_min":-6,"x_max":617,"o":"m 233 -11 q 108 2 164 -11 q 24 38 53 15 q -3 89 -6 61 q 15 128 -1 101 q 50 177 31 156 q 85 199 69 199 q 113 185 88 199 q 169 162 138 172 q 243 151 201 151 q 340 198 303 151 q 376 326 376 244 q 347 417 376 386 q 251 449 317 449 l 121 449 q 85 458 96 449 q 75 489 75 468 l 76 504 l 146 917 q 166 959 151 946 q 210 972 181 972 l 581 972 q 608 961 600 972 q 617 925 617 950 q 615 903 617 911 l 611 865 q 597 823 608 836 q 564 810 586 810 l 322 810 l 288 611 l 308 611 q 515 554 444 611 q 586 361 586 497 q 583 300 586 322 q 519 119 572 189 q 390 19 465 50 q 233 -11 315 -11 z "},"6":{"ha":638,"x_min":33,"x_max":610,"o":"m 288 -11 q 163 19 221 -11 q 69 117 106 50 q 33 286 33 183 q 38 351 33 317 q 172 728 63 589 q 392 923 281 868 q 540 978 504 978 q 576 956 563 978 q 594 907 589 935 q 597 863 599 879 q 591 842 594 847 q 576 833 588 838 q 403 734 475 803 q 293 563 331 665 q 408 594 350 594 q 499 570 453 594 q 578 491 546 546 q 610 350 610 436 q 607 300 610 336 q 547 124 596 193 q 431 22 499 54 q 288 -11 363 -11 m 306 151 q 351 174 329 151 q 387 235 374 196 q 400 322 400 275 q 380 403 400 374 q 324 432 360 432 q 256 411 293 432 q 246 335 251 383 q 242 271 242 300 q 259 180 242 208 q 306 151 276 151 z "},"7":{"ha":638,"x_min":31,"x_max":647,"o":"m 110 -3 q 33 24 31 -3 q 46 53 35 31 l 417 810 l 119 810 q 92 821 100 810 q 83 857 83 832 q 85 879 83 871 l 88 903 q 103 956 92 939 q 136 972 114 972 l 615 972 q 637 926 626 972 q 644 847 647 881 q 639 829 642 833 l 243 25 q 161 -3 231 -3 l 110 -3 z "},"8":{"ha":638,"x_min":22,"x_max":626,"o":"m 282 -11 q 86 58 150 -11 q 22 238 22 126 q 24 276 22 263 q 74 426 33 367 q 172 517 114 485 q 110 592 132 551 q 88 690 88 633 q 124 840 88 774 q 228 945 160 907 q 390 983 297 983 q 565 925 503 983 q 626 771 626 867 q 625 739 626 750 q 580 606 617 656 q 489 526 543 557 q 567 442 539 492 q 596 317 596 393 q 593 271 596 304 q 550 133 586 197 q 447 29 514 69 q 282 -11 379 -11 m 361 611 q 428 747 428 664 q 413 801 428 782 q 372 821 397 821 q 318 794 342 821 q 294 721 294 768 q 312 659 294 685 q 361 611 329 633 m 297 151 q 361 193 338 151 q 385 286 385 235 q 363 363 385 333 q 297 424 340 393 q 247 353 264 393 q 231 247 231 313 q 248 175 231 199 q 297 151 265 151 z "},"9":{"ha":638,"x_min":49,"x_max":625,"o":"m 119 -10 q 84 12 97 -10 q 65 61 71 33 q 63 106 60 89 q 67 126 64 121 q 83 135 71 132 q 256 235 183 167 q 365 407 328 304 q 249 374 308 374 q 158 398 204 374 q 80 477 111 422 q 49 618 49 532 q 51 668 49 632 q 111 844 63 775 q 228 947 160 914 q 371 979 297 979 q 551 907 478 979 q 625 683 625 835 q 621 617 625 653 q 487 240 596 379 q 267 45 378 100 q 119 -10 156 -10 m 335 536 q 404 557 365 536 q 409 597 407 574 q 413 633 411 621 q 417 697 417 669 q 399 788 417 760 q 351 817 381 817 q 306 794 328 817 q 272 733 285 772 q 258 644 258 693 q 278 565 258 593 q 335 536 297 536 z "},"\u0000":{"ha":0,"x_min":0,"x_max":0,"o":""},"\r":{"ha":190,"x_min":0,"x_max":0,"o":""}," ":{"ha":190,"x_min":0,"x_max":0,"o":""},"A":{"ha":701,"x_min":-35,"x_max":665,"o":"m 32 -3 q -32 28 -35 -3 q -25 53 -29 44 l 286 936 q 375 975 300 975 l 453 975 q 535 936 529 975 l 664 53 q 665 39 665 49 q 664 28 665 32 q 601 -3 661 -3 l 533 -3 q 463 26 468 -3 l 444 196 l 228 196 l 172 26 q 104 -3 165 -3 l 32 -3 m 433 365 l 404 660 q 399 765 399 729 l 392 765 q 364 660 374 690 l 269 365 l 433 365 z "},"Á":{"ha":701,"x_min":-32,"x_max":665,"o":"m 32 -3 q -32 28 -35 -3 q -25 53 -29 44 l 286 936 q 375 975 300 975 l 453 975 q 535 936 529 975 l 664 53 q 665 39 665 49 q 664 28 665 32 q 601 -3 661 -3 l 533 -3 q 463 26 468 -3 l 444 196 l 228 196 l 172 26 q 104 -3 165 -3 l 32 -3 m 433 365 l 404 660 q 399 765 399 729 l 392 765 q 364 660 374 690 l 269 365 l 433 365 m 376 1044 q 344 1049 353 1044 q 336 1065 336 1054 q 345 1093 336 1074 q 371 1143 354 1113 l 414 1228 q 524 1265 433 1265 q 581 1261 563 1265 q 599 1246 599 1257 q 589 1224 599 1238 q 554 1179 579 1210 q 523 1139 542 1163 q 476 1079 504 1115 q 443 1053 464 1063 q 376 1044 422 1044 z "},"Ă":{"ha":701,"x_min":-32,"x_max":665,"o":"m 32 -3 q -32 28 -35 -3 q -25 53 -29 44 l 286 936 q 375 975 300 975 l 453 975 q 535 936 529 975 l 664 53 q 665 39 665 49 q 664 28 665 32 q 601 -3 661 -3 l 533 -3 q 463 26 468 -3 l 444 196 l 228 196 l 172 26 q 104 -3 165 -3 l 32 -3 m 433 365 l 404 660 q 399 765 399 729 l 392 765 q 364 660 374 690 l 269 365 l 433 365 m 424 1044 q 300 1084 342 1044 q 258 1178 258 1124 q 319 1239 258 1239 q 358 1214 349 1239 q 365 1199 360 1211 q 389 1178 371 1186 q 439 1171 407 1171 q 498 1182 481 1171 q 522 1203 515 1193 q 529 1217 528 1214 q 546 1233 535 1226 q 571 1239 557 1239 q 621 1192 626 1239 q 564 1090 615 1135 q 424 1044 513 1044 z "},"Ắ":{"ha":701,"x_min":-35,"x_max":665,"o":"m 411 1200 q 388 1205 394 1200 q 382 1221 382 1210 q 401 1279 382 1231 l 431 1356 q 535 1393 450 1393 q 577 1386 564 1393 q 590 1360 590 1379 q 573 1326 590 1350 q 488 1221 556 1303 q 461 1206 478 1211 q 411 1200 444 1200 m 424 1044 q 301 1081 346 1044 q 257 1164 257 1117 q 317 1222 257 1222 q 357 1197 347 1222 q 363 1181 358 1194 q 386 1158 368 1167 q 436 1150 404 1150 q 495 1162 478 1150 q 519 1185 513 1174 q 528 1200 525 1196 q 568 1222 540 1222 q 619 1182 619 1222 q 596 1119 619 1151 q 527 1066 572 1088 q 424 1044 482 1044 m 32 -3 q -32 28 -35 -3 q -25 53 -29 44 l 286 936 q 375 975 300 975 l 453 975 q 535 936 529 975 l 664 53 q 665 39 665 49 q 664 28 665 32 q 601 -3 661 -3 l 533 -3 q 463 26 468 -3 l 444 196 l 228 196 l 172 26 q 104 -3 165 -3 l 32 -3 m 433 365 l 404 660 q 399 765 399 729 l 392 765 q 364 660 374 690 l 269 365 l 433 365 z "},"Ặ":{"ha":701,"x_min":-32,"x_max":665,"o":"m 32 -3 q -32 28 -35 -3 q -25 53 -29 44 l 286 936 q 375 975 300 975 l 453 975 q 535 936 529 975 l 664 53 q 665 39 665 49 q 664 28 665 32 q 601 -3 661 -3 l 533 -3 q 463 26 468 -3 l 444 196 l 228 196 l 172 26 q 104 -3 165 -3 l 32 -3 m 433 365 l 404 660 q 399 765 399 729 l 392 765 q 364 660 374 690 l 269 365 l 433 365 m 288 -283 q 196 -239 189 -283 l 204 -156 q 301 -111 208 -111 q 394 -156 399 -111 l 386 -239 q 288 -283 379 -283 m 424 1044 q 300 1084 342 1044 q 258 1178 258 1124 q 319 1239 258 1239 q 358 1214 349 1239 q 365 1199 360 1211 q 389 1178 371 1186 q 439 1171 407 1171 q 498 1182 481 1171 q 522 1203 515 1193 q 529 1217 528 1214 q 546 1233 535 1226 q 571 1239 557 1239 q 621 1192 626 1239 q 564 1090 615 1135 q 424 1044 513 1044 z "},"Ằ":{"ha":701,"x_min":-35,"x_max":665,"o":"m 482 1200 q 430 1207 447 1200 q 401 1226 413 1214 l 375 1260 q 313 1339 325 1322 q 300 1365 300 1356 q 315 1387 300 1381 q 360 1393 329 1393 q 469 1356 451 1393 q 504 1263 492 1297 q 517 1221 517 1229 q 510 1205 517 1210 q 482 1200 503 1200 m 424 1044 q 301 1081 346 1044 q 257 1164 257 1117 q 317 1222 257 1222 q 357 1197 347 1222 q 363 1181 358 1194 q 386 1158 368 1167 q 436 1150 404 1150 q 495 1162 478 1150 q 519 1185 513 1174 q 528 1200 525 1196 q 568 1222 540 1222 q 619 1182 619 1222 q 596 1119 619 1151 q 527 1066 572 1088 q 424 1044 482 1044 m 32 -3 q -32 28 -35 -3 q -25 53 -29 44 l 286 936 q 375 975 300 975 l 453 975 q 535 936 529 975 l 664 53 q 665 39 665 49 q 664 28 665 32 q 601 -3 661 -3 l 533 -3 q 463 26 468 -3 l 444 196 l 228 196 l 172 26 q 104 -3 165 -3 l 32 -3 m 433 365 l 404 660 q 399 765 399 729 l 392 765 q 364 660 374 690 l 269 365 l 433 365 z "},"Ẳ":{"ha":701,"x_min":-35,"x_max":665,"o":"m 444 1211 q 400 1219 417 1211 q 383 1240 383 1228 q 392 1251 383 1244 q 410 1263 400 1257 q 444 1281 435 1274 q 453 1301 453 1289 q 444 1319 453 1313 q 424 1325 435 1325 q 374 1313 393 1325 q 350 1301 354 1301 q 325 1323 342 1301 q 308 1360 308 1344 q 345 1386 308 1374 q 419 1399 382 1399 q 514 1374 479 1399 q 549 1307 549 1349 q 513 1242 549 1271 q 479 1221 499 1231 q 444 1211 460 1211 m 424 1044 q 301 1081 346 1044 q 257 1164 257 1117 q 317 1222 257 1222 q 357 1197 347 1222 q 363 1181 358 1194 q 386 1158 368 1167 q 436 1150 404 1150 q 495 1162 478 1150 q 519 1185 513 1174 q 528 1200 525 1196 q 568 1222 540 1222 q 619 1182 619 1222 q 596 1119 619 1151 q 527 1066 572 1088 q 424 1044 482 1044 m 32 -3 q -32 28 -35 -3 q -25 53 -29 44 l 286 936 q 375 975 300 975 l 453 975 q 535 936 529 975 l 664 53 q 665 39 665 49 q 664 28 665 32 q 601 -3 661 -3 l 533 -3 q 463 26 468 -3 l 444 196 l 228 196 l 172 26 q 104 -3 165 -3 l 32 -3 m 433 365 l 404 660 q 399 765 399 729 l 392 765 q 364 660 374 690 l 269 365 l 433 365 z "},"Ẵ":{"ha":701,"x_min":-35,"x_max":665,"o":"m 283 1288 q 261 1302 268 1292 q 254 1324 254 1313 q 258 1346 254 1332 q 302 1415 272 1389 q 372 1442 332 1442 q 456 1419 397 1442 q 485 1409 464 1417 q 519 1401 507 1401 q 551 1424 535 1401 q 567 1442 560 1436 q 586 1447 575 1447 q 603 1444 592 1447 l 617 1440 q 644 1404 644 1431 q 642 1383 644 1394 q 597 1314 628 1342 q 526 1286 565 1286 q 444 1308 503 1286 q 417 1318 439 1310 q 381 1326 394 1326 q 349 1304 363 1326 q 314 1281 332 1281 q 297 1283 308 1281 l 283 1288 m 424 1044 q 301 1081 346 1044 q 257 1164 257 1117 q 317 1222 257 1222 q 357 1197 347 1222 q 363 1181 358 1194 q 386 1158 368 1167 q 436 1150 404 1150 q 495 1162 478 1150 q 519 1185 513 1174 q 528 1200 525 1196 q 568 1222 540 1222 q 619 1182 619 1222 q 596 1119 619 1151 q 527 1066 572 1088 q 424 1044 482 1044 m 32 -3 q -32 28 -35 -3 q -25 53 -29 44 l 286 936 q 375 975 300 975 l 453 975 q 535 936 529 975 l 664 53 q 665 39 665 49 q 664 28 665 32 q 601 -3 661 -3 l 533 -3 q 463 26 468 -3 l 444 196 l 228 196 l 172 26 q 104 -3 165 -3 l 32 -3 m 433 365 l 404 660 q 399 765 399 729 l 392 765 q 364 660 374 690 l 269 365 l 433 365 z "},"Â":{"ha":701,"x_min":-32,"x_max":665,"o":"m 32 -3 q -32 28 -35 -3 q -25 53 -29 44 l 286 936 q 375 975 300 975 l 453 975 q 535 936 529 975 l 664 53 q 665 39 665 49 q 664 28 665 32 q 601 -3 661 -3 l 533 -3 q 463 26 468 -3 l 444 196 l 228 196 l 172 26 q 104 -3 165 -3 l 32 -3 m 433 365 l 404 660 q 399 765 399 729 l 392 765 q 364 660 374 690 l 269 365 l 433 365 m 279 1040 q 251 1054 250 1040 q 263 1078 251 1058 l 360 1217 q 391 1238 372 1233 q 442 1243 410 1243 l 444 1243 q 494 1238 476 1243 q 521 1217 513 1233 l 589 1078 q 597 1054 597 1064 q 568 1040 596 1040 l 529 1040 q 461 1065 471 1040 l 431 1129 l 389 1067 q 360 1047 378 1053 q 317 1040 343 1040 l 279 1040 z "},"Ấ":{"ha":701,"x_min":-35,"x_max":763,"o":"m 583 1185 q 560 1190 567 1185 q 554 1206 554 1194 q 574 1264 554 1215 l 603 1340 q 707 1378 622 1378 q 749 1371 736 1378 q 763 1344 763 1364 q 745 1311 763 1335 q 660 1206 728 1288 q 633 1190 650 1196 q 583 1185 617 1185 m 289 1040 q 266 1043 272 1040 q 261 1054 260 1046 q 265 1066 261 1060 q 269 1075 268 1072 l 363 1217 q 392 1238 374 1233 q 444 1243 411 1243 l 447 1243 q 498 1238 481 1243 q 522 1217 515 1233 l 585 1075 q 590 1054 590 1064 q 561 1040 589 1040 l 524 1040 q 454 1065 465 1040 l 433 1129 l 399 1067 q 371 1045 389 1050 q 326 1040 353 1040 l 289 1040 m 32 -3 q -32 28 -35 -3 q -25 53 -29 44 l 286 936 q 375 975 300 975 l 453 975 q 535 936 529 975 l 664 53 q 665 39 665 49 q 664 28 665 32 q 601 -3 661 -3 l 533 -3 q 463 26 468 -3 l 444 196 l 228 196 l 172 26 q 104 -3 165 -3 l 32 -3 m 433 365 l 404 660 q 399 765 399 729 l 392 765 q 364 660 374 690 l 269 365 l 433 365 z "},"Ậ":{"ha":701,"x_min":-32,"x_max":665,"o":"m 32 -3 q -32 28 -35 -3 q -25 53 -29 44 l 286 936 q 375 975 300 975 l 453 975 q 535 936 529 975 l 664 53 q 665 39 665 49 q 664 28 665 32 q 601 -3 661 -3 l 533 -3 q 463 26 468 -3 l 444 196 l 228 196 l 172 26 q 104 -3 165 -3 l 32 -3 m 433 365 l 404 660 q 399 765 399 729 l 392 765 q 364 660 374 690 l 269 365 l 433 365 m 288 -283 q 196 -239 189 -283 l 204 -156 q 301 -111 208 -111 q 394 -156 399 -111 l 386 -239 q 288 -283 379 -283 m 279 1040 q 251 1054 250 1040 q 263 1078 251 1058 l 360 1217 q 391 1238 372 1233 q 442 1243 410 1243 l 444 1243 q 494 1238 476 1243 q 521 1217 513 1233 l 589 1078 q 597 1054 597 1064 q 568 1040 596 1040 l 529 1040 q 461 1065 471 1040 l 431 1129 l 389 1067 q 360 1047 378 1053 q 317 1040 343 1040 l 279 1040 z "},"Ầ":{"ha":701,"x_min":-35,"x_max":689,"o":"m 654 1185 q 602 1192 619 1185 q 574 1211 585 1199 l 547 1244 q 485 1324 497 1307 q 472 1350 472 1340 q 487 1372 472 1365 q 532 1378 501 1378 q 642 1340 624 1378 q 676 1248 664 1282 q 689 1206 689 1214 q 682 1190 689 1194 q 654 1185 675 1185 m 289 1040 q 266 1043 272 1040 q 261 1054 260 1046 q 265 1066 261 1060 q 269 1075 268 1072 l 363 1217 q 392 1238 374 1233 q 444 1243 411 1243 l 447 1243 q 498 1238 481 1243 q 522 1217 515 1233 l 585 1075 q 590 1054 590 1064 q 561 1040 589 1040 l 524 1040 q 454 1065 465 1040 l 433 1129 l 399 1067 q 371 1045 389 1050 q 326 1040 353 1040 l 289 1040 m 32 -3 q -32 28 -35 -3 q -25 53 -29 44 l 286 936 q 375 975 300 975 l 453 975 q 535 936 529 975 l 664 53 q 665 39 665 49 q 664 28 665 32 q 601 -3 661 -3 l 533 -3 q 463 26 468 -3 l 444 196 l 228 196 l 172 26 q 104 -3 165 -3 l 32 -3 m 433 365 l 404 660 q 399 765 399 729 l 392 765 q 364 660 374 690 l 269 365 l 433 365 z "},"Ẩ":{"ha":701,"x_min":-35,"x_max":721,"o":"m 617 1196 q 572 1204 589 1196 q 556 1225 556 1213 q 564 1235 556 1229 q 582 1247 572 1242 q 616 1266 607 1258 q 625 1286 625 1274 q 616 1303 625 1297 q 596 1310 607 1310 q 546 1298 565 1310 q 522 1286 526 1286 q 497 1308 514 1286 q 481 1344 481 1329 q 517 1371 481 1358 q 592 1383 554 1383 q 686 1358 651 1383 q 721 1292 721 1333 q 685 1226 721 1256 q 651 1206 671 1215 q 617 1196 632 1196 m 289 1040 q 266 1043 272 1040 q 261 1054 260 1046 q 265 1066 261 1060 q 269 1075 268 1072 l 363 1217 q 392 1238 374 1233 q 444 1243 411 1243 l 447 1243 q 498 1238 481 1243 q 522 1217 515 1233 l 585 1075 q 590 1054 590 1064 q 561 1040 589 1040 l 524 1040 q 454 1065 465 1040 l 433 1129 l 399 1067 q 371 1045 389 1050 q 326 1040 353 1040 l 289 1040 m 32 -3 q -32 28 -35 -3 q -25 53 -29 44 l 286 936 q 375 975 300 975 l 453 975 q 535 936 529 975 l 664 53 q 665 39 665 49 q 664 28 665 32 q 601 -3 661 -3 l 533 -3 q 463 26 468 -3 l 444 196 l 228 196 l 172 26 q 104 -3 165 -3 l 32 -3 m 433 365 l 404 660 q 399 765 399 729 l 392 765 q 364 660 374 690 l 269 365 l 433 365 z "},"Ẫ":{"ha":701,"x_min":-35,"x_max":665,"o":"m 281 1242 q 258 1256 265 1246 q 251 1278 251 1267 q 256 1300 251 1286 q 299 1369 269 1343 q 369 1396 329 1396 q 453 1374 394 1396 q 483 1363 461 1371 q 517 1356 504 1356 q 549 1378 532 1356 q 565 1396 557 1390 q 583 1401 572 1401 q 600 1399 589 1401 l 614 1394 q 642 1358 642 1385 q 639 1338 642 1349 q 594 1268 625 1296 q 524 1240 563 1240 q 442 1263 500 1240 q 414 1272 436 1264 q 378 1281 392 1281 q 346 1258 360 1281 q 311 1235 329 1235 q 294 1238 306 1235 l 281 1242 m 289 1040 q 266 1043 272 1040 q 261 1054 260 1046 q 267 1068 263 1060 q 276 1083 271 1076 l 358 1186 q 389 1207 371 1201 q 442 1213 407 1213 l 444 1213 q 494 1207 478 1213 q 521 1186 511 1201 l 581 1083 q 590 1054 590 1061 q 561 1040 588 1040 l 522 1040 q 480 1046 493 1040 q 456 1065 467 1051 l 433 1121 l 396 1067 q 367 1046 379 1051 q 326 1040 354 1040 l 289 1040 m 32 -3 q -32 28 -35 -3 q -25 53 -29 44 l 286 936 q 375 975 300 975 l 453 975 q 535 936 529 975 l 664 53 q 665 39 665 49 q 664 28 665 32 q 601 -3 661 -3 l 533 -3 q 463 26 468 -3 l 444 196 l 228 196 l 172 26 q 104 -3 165 -3 l 32 -3 m 433 365 l 404 660 q 399 765 399 729 l 392 765 q 364 660 374 690 l 269 365 l 433 365 z "},"Ä":{"ha":701,"x_min":-32,"x_max":665,"o":"m 32 -3 q -32 28 -35 -3 q -25 53 -29 44 l 286 936 q 375 975 300 975 l 453 975 q 535 936 529 975 l 664 53 q 665 39 665 49 q 664 28 665 32 q 601 -3 661 -3 l 533 -3 q 463 26 468 -3 l 444 196 l 228 196 l 172 26 q 104 -3 165 -3 l 32 -3 m 433 365 l 404 660 q 399 765 399 729 l 392 765 q 364 660 374 690 l 269 365 l 433 365 m 314 1049 q 239 1093 232 1049 l 247 1176 q 329 1221 251 1221 q 406 1176 410 1221 l 397 1093 q 314 1049 390 1049 m 539 1049 q 464 1093 457 1049 l 472 1176 q 554 1221 476 1221 q 631 1176 635 1221 l 622 1093 q 539 1049 615 1049 z "},"Ạ":{"ha":701,"x_min":-32,"x_max":665,"o":"m 32 -3 q -32 28 -35 -3 q -25 53 -29 44 l 286 936 q 375 975 300 975 l 453 975 q 535 936 529 975 l 664 53 q 665 39 665 49 q 664 28 665 32 q 601 -3 661 -3 l 533 -3 q 463 26 468 -3 l 444 196 l 228 196 l 172 26 q 104 -3 165 -3 l 32 -3 m 433 365 l 404 660 q 399 765 399 729 l 392 765 q 364 660 374 690 l 269 365 l 433 365 m 288 -283 q 196 -239 189 -283 l 204 -156 q 301 -111 208 -111 q 394 -156 399 -111 l 386 -239 q 288 -283 379 -283 z "},"À":{"ha":701,"x_min":-32,"x_max":665,"o":"m 32 -3 q -32 28 -35 -3 q -25 53 -29 44 l 286 936 q 375 975 300 975 l 453 975 q 535 936 529 975 l 664 53 q 665 39 665 49 q 664 28 665 32 q 601 -3 661 -3 l 533 -3 q 463 26 468 -3 l 444 196 l 228 196 l 172 26 q 104 -3 165 -3 l 32 -3 m 433 365 l 404 660 q 399 765 399 729 l 392 765 q 364 660 374 690 l 269 365 l 433 365 m 460 1044 q 393 1054 414 1044 q 361 1079 372 1064 l 290 1168 q 249 1221 261 1204 q 238 1246 238 1238 q 256 1261 238 1257 q 313 1265 274 1265 q 424 1228 403 1265 q 481 1117 461 1157 q 500 1065 500 1076 q 492 1049 500 1053 q 460 1044 483 1044 z "},"Ả":{"ha":701,"x_min":-32,"x_max":665,"o":"m 32 -3 q -32 28 -35 -3 q -25 53 -29 44 l 286 936 q 375 975 300 975 l 453 975 q 535 936 529 975 l 664 53 q 665 39 665 49 q 664 28 665 32 q 601 -3 661 -3 l 533 -3 q 463 26 468 -3 l 444 196 l 228 196 l 172 26 q 104 -3 165 -3 l 32 -3 m 433 365 l 404 660 q 399 765 399 729 l 392 765 q 364 660 374 690 l 269 365 l 433 365 m 450 1038 q 401 1049 426 1038 q 375 1069 375 1061 q 411 1107 375 1081 q 453 1142 438 1126 q 468 1174 468 1158 q 455 1196 468 1188 q 424 1204 442 1204 q 388 1196 406 1204 q 365 1188 371 1188 q 340 1209 357 1188 q 324 1246 324 1231 q 361 1274 324 1260 q 435 1289 399 1289 q 549 1260 508 1289 q 589 1179 589 1231 q 561 1113 589 1146 q 499 1059 533 1081 q 450 1038 464 1038 z "},"Ā":{"ha":701,"x_min":-32,"x_max":665,"o":"m 32 -3 q -32 28 -35 -3 q -25 53 -29 44 l 286 936 q 375 975 300 975 l 453 975 q 535 936 529 975 l 664 53 q 665 39 665 49 q 664 28 665 32 q 601 -3 661 -3 l 533 -3 q 463 26 468 -3 l 444 196 l 228 196 l 172 26 q 104 -3 165 -3 l 32 -3 m 433 365 l 404 660 q 399 765 399 729 l 392 765 q 364 660 374 690 l 269 365 l 433 365 m 294 1075 q 265 1088 274 1075 q 260 1131 257 1101 l 263 1151 q 276 1194 265 1181 q 308 1207 288 1207 l 574 1207 q 610 1167 610 1207 l 608 1151 l 606 1131 q 593 1088 604 1101 q 560 1075 582 1075 l 294 1075 z "},"Ą":{"ha":701,"x_min":-35,"x_max":665,"o":"m 528 -3 q 515 -76 515 -43 q 583 -137 515 -137 q 603 -135 594 -137 q 617 -132 611 -132 q 649 -141 639 -132 q 658 -174 658 -150 q 635 -217 658 -203 q 557 -233 600 -233 q 450 -192 478 -233 q 422 -103 422 -150 q 431 -37 422 -75 q 461 36 440 0 l 444 196 l 228 196 l 172 26 q 104 -3 165 -3 l 32 -3 q -32 28 -35 -3 q -25 53 -29 44 l 286 936 q 375 975 300 975 l 453 975 q 535 936 529 975 l 664 53 q 665 39 665 49 q 664 28 665 32 q 601 -3 661 -3 l 533 -3 l 528 -3 m 433 365 l 404 660 q 399 765 399 729 l 392 765 q 364 660 374 690 l 269 365 l 433 365 z "},"Å":{"ha":701,"x_min":-32,"x_max":665,"o":"m 32 -3 q -32 28 -35 -3 q -25 53 -29 44 l 286 936 q 375 975 300 975 l 453 975 q 535 936 529 975 l 664 53 q 665 39 665 49 q 664 28 665 32 q 601 -3 661 -3 l 533 -3 q 463 26 468 -3 l 444 196 l 228 196 l 172 26 q 104 -3 165 -3 l 32 -3 m 433 365 l 404 660 q 399 765 399 729 l 392 765 q 364 660 374 690 l 269 365 l 433 365 m 419 1010 q 329 1042 361 1010 q 297 1128 297 1075 q 339 1242 297 1197 q 449 1286 381 1286 q 541 1253 508 1286 q 574 1167 574 1221 q 531 1054 574 1099 q 419 1010 489 1010 m 431 1096 q 469 1109 454 1096 q 488 1146 485 1122 q 478 1183 490 1169 q 442 1197 465 1197 q 402 1183 417 1197 q 385 1146 388 1169 q 394 1109 382 1122 q 431 1096 406 1096 z "},"Ǻ":{"ha":701,"x_min":-35,"x_max":665,"o":"m 401 1128 q 367 1133 376 1128 q 360 1149 358 1138 q 428 1256 390 1204 q 550 1293 454 1293 q 614 1289 594 1293 q 632 1274 633 1285 q 617 1255 631 1267 q 572 1217 604 1243 l 508 1163 q 469 1138 493 1147 q 401 1128 446 1128 m 664 53 q 665 39 665 49 q 664 28 665 32 q 601 -3 661 -3 l 533 -3 q 463 26 468 -3 l 444 196 l 228 196 l 172 26 q 104 -3 165 -3 l 32 -3 q -32 28 -35 -3 q -25 53 -29 44 l 282 926 l 281 946 q 322 1060 281 1015 q 432 1106 364 1106 q 524 1073 492 1106 q 557 986 557 1040 q 539 908 557 947 l 664 53 m 368 965 q 377 928 365 942 q 414 915 389 915 q 453 928 438 915 q 471 965 468 942 q 461 1003 474 989 q 425 1017 449 1017 q 385 1003 400 1017 q 368 965 371 989 m 433 365 l 404 660 q 399 765 399 729 l 392 765 q 364 660 374 690 l 269 365 l 433 365 z "},"Ã":{"ha":701,"x_min":-32,"x_max":665,"o":"m 32 -3 q -32 28 -35 -3 q -25 53 -29 44 l 286 936 q 375 975 300 975 l 453 975 q 535 936 529 975 l 664 53 q 665 39 665 49 q 664 28 665 32 q 601 -3 661 -3 l 533 -3 q 463 26 468 -3 l 444 196 l 228 196 l 172 26 q 104 -3 165 -3 l 32 -3 m 433 365 l 404 660 q 399 765 399 729 l 392 765 q 364 660 374 690 l 269 365 l 433 365 m 226 1056 q 194 1092 194 1064 q 200 1114 194 1101 q 248 1183 215 1156 q 325 1210 281 1210 q 417 1188 353 1210 q 450 1177 426 1185 q 486 1169 474 1169 q 522 1192 504 1169 q 539 1210 531 1204 q 560 1215 547 1215 q 579 1213 565 1215 l 593 1208 q 625 1172 625 1199 q 621 1151 625 1168 q 572 1082 606 1110 q 494 1054 538 1054 q 404 1076 468 1054 q 371 1087 396 1079 q 333 1094 346 1094 q 299 1072 314 1094 q 280 1054 289 1060 q 260 1049 271 1049 q 242 1051 253 1049 l 226 1056 z "},"Æ":{"ha":1036,"x_min":-35,"x_max":1014,"o":"m 47 -3 q -31 28 -35 -3 q -24 53 -31 39 l 410 935 q 463 972 428 972 l 979 972 q 1006 961 997 972 q 1014 925 1014 950 q 1013 903 1014 911 l 1008 860 q 992 807 1004 824 q 960 790 981 790 l 671 790 l 671 589 l 939 589 q 965 578 957 589 q 974 542 974 567 q 972 519 974 528 l 968 476 q 952 424 964 440 q 919 407 940 407 l 675 407 l 675 182 l 925 182 q 951 171 943 182 q 960 135 960 160 q 958 113 960 121 l 954 69 q 939 17 950 33 q 907 0 928 0 l 508 0 q 482 10 490 0 q 475 42 474 19 l 474 196 l 251 196 l 169 26 q 111 -3 156 -3 l 47 -3 m 328 379 l 476 379 l 481 631 l 492 731 l 486 731 l 443 632 l 328 379 z "},"Ǽ":{"ha":1036,"x_min":-31,"x_max":1014,"o":"m 47 -3 q -31 28 -35 -3 q -24 53 -31 39 l 410 935 q 463 972 428 972 l 979 972 q 1006 961 997 972 q 1014 925 1014 950 q 1013 903 1014 911 l 1008 860 q 992 807 1004 824 q 960 790 981 790 l 671 790 l 671 589 l 939 589 q 965 578 957 589 q 974 542 974 567 q 972 519 974 528 l 968 476 q 952 424 964 440 q 919 407 940 407 l 675 407 l 675 182 l 925 182 q 951 171 943 182 q 960 135 960 160 q 958 113 960 121 l 954 69 q 939 17 950 33 q 907 0 928 0 l 508 0 q 482 10 490 0 q 475 42 474 19 l 474 196 l 251 196 l 169 26 q 111 -3 156 -3 l 47 -3 m 328 379 l 476 379 l 481 631 l 492 731 l 486 731 l 443 632 l 328 379 m 572 1044 q 540 1049 549 1044 q 532 1065 532 1054 q 541 1093 532 1074 q 567 1143 550 1113 l 610 1228 q 719 1265 629 1265 q 776 1261 758 1265 q 794 1246 794 1257 q 785 1224 794 1238 q 750 1179 775 1210 q 719 1139 738 1163 q 672 1079 700 1115 q 639 1053 660 1063 q 572 1044 618 1044 z "},"B":{"ha":749,"x_min":44,"x_max":713,"o":"m 93 0 q 55 13 65 0 q 47 56 44 26 l 139 918 q 156 959 142 946 q 196 972 169 972 l 444 972 q 713 772 713 972 q 711 738 713 750 q 563 508 694 581 l 563 503 q 658 434 625 483 q 692 310 692 385 q 690 274 692 286 q 346 0 661 0 l 93 0 m 404 576 q 474 605 449 576 q 504 694 499 633 q 506 724 506 706 q 488 786 506 767 q 431 806 469 806 l 332 806 l 308 576 l 404 576 m 371 168 q 450 197 422 168 q 483 293 478 226 q 485 324 485 304 q 463 391 485 371 q 396 411 442 411 l 290 411 l 265 168 l 371 168 z "},"C":{"ha":638,"x_min":60,"x_max":651,"o":"m 407 -11 q 60 379 60 -11 q 65 489 60 438 q 197 861 92 739 q 494 983 301 983 q 614 968 558 983 q 651 918 651 957 q 650 903 651 908 q 620 811 643 850 q 572 782 597 772 q 485 796 528 796 q 352 719 401 796 q 286 488 303 643 q 282 400 282 440 q 426 178 282 178 q 475 182 453 178 q 519 193 497 186 q 532 194 524 194 q 565 172 554 194 q 576 113 576 150 q 521 8 576 38 q 407 -11 481 -11 z "},"Ć":{"ha":638,"x_min":60,"x_max":651,"o":"m 407 -11 q 60 379 60 -11 q 65 489 60 438 q 197 861 92 739 q 494 983 301 983 q 614 968 558 983 q 651 918 651 957 q 650 903 651 908 q 620 811 643 850 q 572 782 597 772 q 485 796 528 796 q 352 719 401 796 q 286 488 303 643 q 282 400 282 440 q 426 178 282 178 q 475 182 453 178 q 519 193 497 186 q 532 194 524 194 q 565 172 554 194 q 576 113 576 150 q 521 8 576 38 q 407 -11 481 -11 m 410 1044 q 378 1049 386 1044 q 369 1065 369 1054 q 378 1093 369 1074 q 404 1143 388 1113 l 447 1228 q 557 1265 467 1265 q 614 1261 596 1265 q 632 1246 632 1257 q 622 1224 632 1238 q 588 1179 613 1210 q 556 1139 575 1163 q 510 1079 538 1115 q 476 1053 497 1063 q 410 1044 456 1044 z "},"Č":{"ha":638,"x_min":60,"x_max":651,"o":"m 407 -11 q 60 379 60 -11 q 65 489 60 438 q 197 861 92 739 q 494 983 301 983 q 614 968 558 983 q 651 918 651 957 q 650 903 651 908 q 620 811 643 850 q 572 782 597 772 q 485 796 528 796 q 352 719 401 796 q 286 488 303 643 q 282 400 282 440 q 426 178 282 178 q 475 182 453 178 q 519 193 497 186 q 532 194 524 194 q 565 172 554 194 q 576 113 576 150 q 521 8 576 38 q 407 -11 481 -11 m 453 1040 q 404 1045 421 1040 q 379 1067 388 1050 l 311 1206 q 304 1229 304 1222 q 335 1243 306 1243 l 372 1243 q 415 1237 399 1243 q 439 1217 431 1231 l 468 1154 l 511 1218 q 585 1243 526 1243 l 624 1243 q 650 1229 651 1243 q 638 1206 650 1224 l 540 1067 q 510 1045 528 1050 q 461 1040 492 1040 l 453 1040 z "},"Ç":{"ha":638,"x_min":58,"x_max":651,"o":"m 614 968 q 651 918 651 957 q 650 903 651 908 q 620 811 643 850 q 572 782 597 772 q 485 796 528 796 q 352 719 401 796 q 286 488 303 643 q 282 400 282 440 q 426 178 282 178 q 475 182 453 178 q 519 193 497 186 q 532 194 524 194 q 565 172 554 194 q 576 113 576 150 q 521 8 576 38 q 407 -11 481 -11 q 347 -8 386 -11 l 331 -67 q 395 -99 371 -74 q 419 -169 419 -125 q 381 -262 419 -231 q 275 -294 342 -294 q 172 -273 215 -294 q 128 -222 128 -251 q 144 -181 128 -197 q 172 -164 160 -164 q 207 -176 185 -164 q 226 -185 210 -178 q 263 -193 243 -193 q 290 -171 290 -193 q 283 -153 290 -160 q 258 -140 275 -147 q 233 -127 242 -133 q 225 -110 225 -121 q 249 -35 225 -100 l 264 10 q 58 378 58 81 q 65 489 58 424 q 197 861 92 739 q 494 983 301 983 q 614 968 558 983 z "},"Ĉ":{"ha":638,"x_min":60,"x_max":651,"o":"m 407 -11 q 60 379 60 -11 q 65 489 60 438 q 197 861 92 739 q 494 983 301 983 q 614 968 558 983 q 651 918 651 957 q 650 903 651 908 q 620 811 643 850 q 572 782 597 772 q 485 796 528 796 q 352 719 401 796 q 286 488 303 643 q 282 400 282 440 q 426 178 282 178 q 475 182 453 178 q 519 193 497 186 q 532 194 524 194 q 565 172 554 194 q 576 113 576 150 q 521 8 576 38 q 407 -11 481 -11 m 313 1040 q 285 1054 283 1040 q 296 1078 285 1058 l 393 1217 q 424 1238 406 1233 q 475 1243 443 1243 l 478 1243 q 528 1238 510 1243 q 554 1217 546 1233 l 622 1078 q 631 1054 631 1064 q 601 1040 629 1040 l 563 1040 q 494 1065 504 1040 l 464 1129 l 422 1067 q 394 1047 411 1053 q 350 1040 376 1040 l 313 1040 z "},"Ċ":{"ha":638,"x_min":60,"x_max":651,"o":"m 407 -11 q 60 379 60 -11 q 65 489 60 438 q 197 861 92 739 q 494 983 301 983 q 614 968 558 983 q 651 918 651 957 q 650 903 651 908 q 620 811 643 850 q 572 782 597 772 q 485 796 528 796 q 352 719 401 796 q 286 488 303 643 q 282 400 282 440 q 426 178 282 178 q 475 182 453 178 q 519 193 497 186 q 532 194 524 194 q 565 172 554 194 q 576 113 576 150 q 521 8 576 38 q 407 -11 481 -11 m 460 1049 q 368 1093 361 1049 l 376 1176 q 474 1221 381 1221 q 567 1176 571 1221 l 558 1093 q 460 1049 551 1049 z "},"D":{"ha":801,"x_min":38,"x_max":760,"o":"m 86 0 q 48 13 58 0 q 40 56 38 26 l 132 917 q 149 959 135 946 q 189 972 163 972 l 453 972 q 685 881 610 972 q 760 607 760 790 q 753 486 760 558 q 630 121 728 242 q 350 0 532 0 l 86 0 m 363 182 q 475 251 436 182 q 532 486 514 319 q 539 608 539 546 q 512 748 539 706 q 426 790 485 790 l 338 790 l 274 182 l 363 182 z "},"Ǳ":{"ha":1506,"x_min":39,"x_max":1513,"o":"m 86 0 q 48 13 58 0 q 40 56 38 26 l 132 917 q 149 959 135 946 q 189 972 163 972 l 453 972 q 685 881 610 972 q 760 607 760 790 q 753 486 760 558 q 630 121 728 242 q 350 0 532 0 l 86 0 m 363 182 q 475 251 436 182 q 532 486 514 319 q 539 608 539 546 q 512 748 539 706 q 426 790 485 790 l 338 790 l 274 182 l 363 182 m 850 0 q 819 46 832 0 q 810 124 806 92 q 813 138 810 135 l 1233 790 l 949 790 q 923 802 931 790 q 915 839 915 814 l 917 860 l 922 903 q 936 956 925 939 q 968 972 947 972 l 1475 972 q 1504 924 1492 972 q 1513 844 1517 875 q 1513 839 1513 842 q 1513 833 1514 836 l 1093 182 l 1406 182 q 1440 132 1440 182 l 1439 113 l 1433 69 q 1386 0 1428 0 l 850 0 z "},"Ǆ":{"ha":1506,"x_min":39,"x_max":1513,"o":"m 86 0 q 48 13 58 0 q 40 56 38 26 l 132 917 q 149 959 135 946 q 189 972 163 972 l 453 972 q 685 881 610 972 q 760 607 760 790 q 753 486 760 558 q 630 121 728 242 q 350 0 532 0 l 86 0 m 363 182 q 475 251 436 182 q 532 486 514 319 q 539 608 539 546 q 512 748 539 706 q 426 790 485 790 l 338 790 l 274 182 l 363 182 m 850 0 q 819 46 832 0 q 810 124 806 92 q 813 138 810 135 l 1233 790 l 949 790 q 923 802 931 790 q 915 839 915 814 l 917 860 l 922 903 q 936 956 925 939 q 968 972 947 972 l 1475 972 q 1504 924 1492 972 q 1513 844 1517 875 q 1513 839 1513 842 q 1513 833 1514 836 l 1093 182 l 1406 182 q 1440 132 1440 182 l 1439 113 l 1433 69 q 1386 0 1428 0 l 850 0 m 1225 1040 q 1176 1045 1193 1040 q 1151 1067 1160 1050 l 1083 1206 q 1076 1229 1076 1222 q 1107 1243 1078 1243 l 1144 1243 q 1187 1237 1171 1243 q 1211 1217 1203 1231 l 1240 1154 l 1283 1218 q 1357 1243 1299 1243 l 1396 1243 q 1422 1229 1424 1243 q 1410 1206 1422 1224 l 1313 1067 q 1282 1045 1300 1050 q 1233 1040 1264 1040 l 1225 1040 z "},"Ð":{"ha":801,"x_min":22,"x_max":760,"o":"m 453 972 q 685 881 610 972 q 760 607 760 790 q 753 486 760 558 q 630 121 728 242 q 350 0 532 0 l 86 0 q 48 13 58 0 q 40 56 38 26 l 78 403 l 58 403 q 31 416 39 403 q 22 458 22 429 q 75 585 22 585 l 97 585 l 132 917 q 149 959 135 946 q 189 972 163 972 l 453 972 m 532 486 q 539 608 539 546 q 512 748 539 706 q 426 790 485 790 l 338 790 l 315 585 l 415 585 q 443 572 435 585 q 451 529 451 558 q 399 403 451 403 l 297 403 l 274 182 l 363 182 q 475 251 436 182 q 532 486 514 319 z "},"Ď":{"ha":801,"x_min":39,"x_max":760,"o":"m 86 0 q 48 13 58 0 q 40 56 38 26 l 132 917 q 149 959 135 946 q 189 972 163 972 l 453 972 q 685 881 610 972 q 760 607 760 790 q 753 486 760 558 q 630 121 728 242 q 350 0 532 0 l 86 0 m 363 182 q 475 251 436 182 q 532 486 514 319 q 539 608 539 546 q 512 748 539 706 q 426 790 485 790 l 338 790 l 274 182 l 363 182 m 453 1040 q 404 1045 421 1040 q 379 1067 388 1050 l 311 1206 q 304 1229 304 1222 q 335 1243 306 1243 l 372 1243 q 415 1237 399 1243 q 439 1217 431 1231 l 468 1154 l 511 1218 q 585 1243 526 1243 l 624 1243 q 650 1229 651 1243 q 638 1206 650 1224 l 540 1067 q 510 1045 528 1050 q 461 1040 492 1040 l 453 1040 z "},"Đ":{"ha":801,"x_min":22,"x_max":760,"o":"m 453 972 q 685 881 610 972 q 760 607 760 790 q 753 486 760 558 q 630 121 728 242 q 350 0 532 0 l 86 0 q 48 13 58 0 q 40 56 38 26 l 78 403 l 58 403 q 31 416 39 403 q 22 458 22 429 q 75 585 22 585 l 97 585 l 132 917 q 149 959 135 946 q 189 972 163 972 l 453 972 m 532 486 q 539 608 539 546 q 512 748 539 706 q 426 790 485 790 l 338 790 l 315 585 l 415 585 q 443 572 435 585 q 451 529 451 558 q 399 403 451 403 l 297 403 l 274 182 l 363 182 q 475 251 436 182 q 532 486 514 319 z "},"Ḍ":{"ha":801,"x_min":39,"x_max":760,"o":"m 86 0 q 48 13 58 0 q 40 56 38 26 l 132 917 q 149 959 135 946 q 189 972 163 972 l 453 972 q 685 881 610 972 q 760 607 760 790 q 753 486 760 558 q 630 121 728 242 q 350 0 532 0 l 86 0 m 363 182 q 475 251 436 182 q 532 486 514 319 q 539 608 539 546 q 512 748 539 706 q 426 790 485 790 l 338 790 l 274 182 l 363 182 m 310 -283 q 218 -239 211 -283 l 226 -156 q 324 -111 231 -111 q 417 -156 421 -111 l 408 -239 q 310 -283 401 -283 z "},"ǲ":{"ha":1364,"x_min":39,"x_max":1349,"o":"m 86 0 q 48 13 58 0 q 40 56 38 26 l 132 917 q 149 959 135 946 q 189 972 163 972 l 453 972 q 685 881 610 972 q 760 607 760 790 q 753 486 760 558 q 630 121 728 242 q 350 0 532 0 l 86 0 m 363 182 q 475 251 436 182 q 532 486 514 319 q 539 608 539 546 q 512 748 539 706 q 426 790 485 790 l 338 790 l 274 182 l 363 182 m 833 0 q 813 38 821 0 q 807 106 804 76 q 811 125 807 113 l 1093 564 l 910 564 q 875 614 875 564 l 876 633 l 879 657 q 894 710 883 693 q 926 726 906 726 l 1322 726 q 1342 688 1332 726 q 1349 619 1351 649 q 1343 599 1349 610 l 1061 163 l 1268 163 q 1303 113 1303 163 l 1301 93 l 1299 69 q 1283 17 1294 33 q 1251 0 1272 0 l 833 0 z "},"ǅ":{"ha":1364,"x_min":39,"x_max":1349,"o":"m 86 0 q 48 13 58 0 q 40 56 38 26 l 132 917 q 149 959 135 946 q 189 972 163 972 l 453 972 q 685 881 610 972 q 760 607 760 790 q 753 486 760 558 q 630 121 728 242 q 350 0 532 0 l 86 0 m 363 182 q 475 251 436 182 q 532 486 514 319 q 539 608 539 546 q 512 748 539 706 q 426 790 485 790 l 338 790 l 274 182 l 363 182 m 833 0 q 813 38 821 0 q 807 106 804 76 q 811 125 807 113 l 1093 564 l 910 564 q 875 614 875 564 l 876 633 l 879 657 q 894 710 883 693 q 926 726 906 726 l 1322 726 q 1342 688 1332 726 q 1349 619 1351 649 q 1343 599 1349 610 l 1061 163 l 1268 163 q 1303 113 1303 163 l 1301 93 l 1299 69 q 1283 17 1294 33 q 1251 0 1272 0 l 833 0 m 1124 794 q 1075 799 1092 794 q 1050 821 1058 804 l 982 960 q 975 983 975 976 q 1006 997 976 997 l 1043 997 q 1085 991 1069 997 q 1110 971 1101 985 l 1139 908 l 1182 972 q 1256 997 1197 997 l 1294 997 q 1321 983 1322 997 q 1308 960 1321 978 l 1211 821 q 1181 799 1199 804 q 1132 794 1163 794 l 1124 794 z "},"E":{"ha":635,"x_min":44,"x_max":640,"o":"m 93 0 q 55 13 65 0 q 47 56 44 26 l 139 917 q 156 959 142 946 q 196 972 169 972 l 606 972 q 640 922 640 972 l 639 903 l 635 860 q 586 790 629 790 l 342 790 l 321 589 l 538 589 q 572 539 572 589 l 571 519 l 567 476 q 518 407 561 407 l 301 407 l 278 182 l 524 182 q 549 170 542 182 q 557 133 557 158 l 556 113 l 551 69 q 504 0 546 0 l 93 0 z "},"É":{"ha":635,"x_min":46,"x_max":640,"o":"m 93 0 q 55 13 65 0 q 47 56 44 26 l 139 917 q 156 959 142 946 q 196 972 169 972 l 606 972 q 640 922 640 972 l 639 903 l 635 860 q 586 790 629 790 l 342 790 l 321 589 l 538 589 q 572 539 572 589 l 571 519 l 567 476 q 518 407 561 407 l 301 407 l 278 182 l 524 182 q 549 170 542 182 q 557 133 557 158 l 556 113 l 551 69 q 504 0 546 0 l 93 0 m 369 1044 q 338 1049 346 1044 q 329 1065 329 1054 q 338 1093 329 1074 q 364 1143 347 1113 l 407 1228 q 517 1265 426 1265 q 574 1261 556 1265 q 592 1246 592 1257 q 582 1224 592 1238 q 547 1179 572 1210 q 516 1139 535 1163 q 469 1079 497 1115 q 436 1053 457 1063 q 369 1044 415 1044 z "},"Ĕ":{"ha":635,"x_min":46,"x_max":640,"o":"m 93 0 q 55 13 65 0 q 47 56 44 26 l 139 917 q 156 959 142 946 q 196 972 169 972 l 606 972 q 640 922 640 972 l 639 903 l 635 860 q 586 790 629 790 l 342 790 l 321 589 l 538 589 q 572 539 572 589 l 571 519 l 567 476 q 518 407 561 407 l 301 407 l 278 182 l 524 182 q 549 170 542 182 q 557 133 557 158 l 556 113 l 551 69 q 504 0 546 0 l 93 0 m 417 1044 q 293 1084 335 1044 q 251 1178 251 1124 q 313 1239 251 1239 q 351 1214 342 1239 q 358 1199 353 1211 q 382 1178 364 1186 q 432 1171 400 1171 q 491 1182 474 1171 q 515 1203 508 1193 q 522 1217 521 1214 q 539 1233 528 1226 q 564 1239 550 1239 q 614 1192 619 1239 q 557 1090 608 1135 q 417 1044 506 1044 z "},"Ě":{"ha":635,"x_min":46,"x_max":640,"o":"m 93 0 q 55 13 65 0 q 47 56 44 26 l 139 917 q 156 959 142 946 q 196 972 169 972 l 606 972 q 640 922 640 972 l 639 903 l 635 860 q 586 790 629 790 l 342 790 l 321 589 l 538 589 q 572 539 572 589 l 571 519 l 567 476 q 518 407 561 407 l 301 407 l 278 182 l 524 182 q 549 170 542 182 q 557 133 557 158 l 556 113 l 551 69 q 504 0 546 0 l 93 0 m 413 1040 q 364 1045 381 1040 q 339 1067 347 1050 l 271 1206 q 264 1229 264 1222 q 294 1243 265 1243 l 332 1243 q 374 1237 358 1243 q 399 1217 390 1231 l 428 1154 l 471 1218 q 544 1243 486 1243 l 583 1243 q 610 1229 611 1243 q 597 1206 610 1224 l 500 1067 q 469 1045 488 1050 q 421 1040 451 1040 l 413 1040 z "},"Ê":{"ha":635,"x_min":46,"x_max":640,"o":"m 93 0 q 55 13 65 0 q 47 56 44 26 l 139 917 q 156 959 142 946 q 196 972 169 972 l 606 972 q 640 922 640 972 l 639 903 l 635 860 q 586 790 629 790 l 342 790 l 321 589 l 538 589 q 572 539 572 589 l 571 519 l 567 476 q 518 407 561 407 l 301 407 l 278 182 l 524 182 q 549 170 542 182 q 557 133 557 158 l 556 113 l 551 69 q 504 0 546 0 l 93 0 m 272 1040 q 244 1054 243 1040 q 256 1078 244 1058 l 353 1217 q 384 1238 365 1233 q 435 1243 403 1243 l 438 1243 q 488 1238 469 1243 q 514 1217 506 1233 l 582 1078 q 590 1054 590 1064 q 561 1040 589 1040 l 522 1040 q 454 1065 464 1040 l 424 1129 l 382 1067 q 353 1047 371 1053 q 310 1040 336 1040 l 272 1040 z "},"Ế":{"ha":635,"x_min":44,"x_max":756,"o":"m 576 1185 q 553 1190 560 1185 q 547 1206 547 1194 q 567 1264 547 1215 l 596 1340 q 700 1378 615 1378 q 742 1371 729 1378 q 756 1344 756 1364 q 738 1311 756 1335 q 653 1206 721 1288 q 626 1190 643 1196 q 576 1185 610 1185 m 282 1040 q 259 1043 265 1040 q 254 1054 253 1046 q 258 1066 254 1060 q 263 1075 261 1072 l 356 1217 q 385 1238 367 1233 q 438 1243 404 1243 l 440 1243 q 491 1238 474 1243 q 515 1217 508 1233 l 578 1075 q 583 1054 583 1064 q 554 1040 582 1040 l 517 1040 q 447 1065 458 1040 l 426 1129 l 392 1067 q 364 1045 382 1050 q 319 1040 346 1040 l 282 1040 m 93 0 q 55 13 65 0 q 47 56 44 26 l 139 917 q 156 959 142 946 q 196 972 169 972 l 606 972 q 640 922 640 972 l 639 903 l 635 860 q 586 790 629 790 l 342 790 l 321 589 l 538 589 q 572 539 572 589 l 571 519 l 567 476 q 518 407 561 407 l 301 407 l 278 182 l 524 182 q 549 170 542 182 q 557 133 557 158 l 556 113 l 551 69 q 504 0 546 0 l 93 0 z "},"Ệ":{"ha":635,"x_min":46,"x_max":640,"o":"m 93 0 q 55 13 65 0 q 47 56 44 26 l 139 917 q 156 959 142 946 q 196 972 169 972 l 606 972 q 640 922 640 972 l 639 903 l 635 860 q 586 790 629 790 l 342 790 l 321 589 l 538 589 q 572 539 572 589 l 571 519 l 567 476 q 518 407 561 407 l 301 407 l 278 182 l 524 182 q 549 170 542 182 q 557 133 557 158 l 556 113 l 551 69 q 504 0 546 0 l 93 0 m 264 -283 q 172 -239 165 -283 l 181 -156 q 278 -111 185 -111 q 371 -156 375 -111 l 363 -239 q 264 -283 356 -283 m 272 1040 q 244 1054 243 1040 q 256 1078 244 1058 l 353 1217 q 384 1238 365 1233 q 435 1243 403 1243 l 438 1243 q 488 1238 469 1243 q 514 1217 506 1233 l 582 1078 q 590 1054 590 1064 q 561 1040 589 1040 l 522 1040 q 454 1065 464 1040 l 424 1129 l 382 1067 q 353 1047 371 1053 q 310 1040 336 1040 l 272 1040 z "},"Ề":{"ha":635,"x_min":44,"x_max":682,"o":"m 647 1185 q 595 1192 613 1185 q 567 1211 578 1199 l 540 1244 q 478 1324 490 1307 q 465 1350 465 1340 q 480 1372 465 1365 q 525 1378 494 1378 q 635 1340 617 1378 q 669 1248 657 1282 q 682 1206 682 1214 q 675 1190 682 1194 q 647 1185 668 1185 m 282 1040 q 259 1043 265 1040 q 254 1054 253 1046 q 258 1066 254 1060 q 263 1075 261 1072 l 356 1217 q 385 1238 367 1233 q 438 1243 404 1243 l 440 1243 q 491 1238 474 1243 q 515 1217 508 1233 l 578 1075 q 583 1054 583 1064 q 554 1040 582 1040 l 517 1040 q 447 1065 458 1040 l 426 1129 l 392 1067 q 364 1045 382 1050 q 319 1040 346 1040 l 282 1040 m 93 0 q 55 13 65 0 q 47 56 44 26 l 139 917 q 156 959 142 946 q 196 972 169 972 l 606 972 q 640 922 640 972 l 639 903 l 635 860 q 586 790 629 790 l 342 790 l 321 589 l 538 589 q 572 539 572 589 l 571 519 l 567 476 q 518 407 561 407 l 301 407 l 278 182 l 524 182 q 549 170 542 182 q 557 133 557 158 l 556 113 l 551 69 q 504 0 546 0 l 93 0 z "},"Ể":{"ha":635,"x_min":44,"x_max":714,"o":"m 610 1196 q 565 1204 582 1196 q 549 1225 549 1213 q 557 1235 549 1229 q 575 1247 565 1242 q 609 1266 600 1258 q 618 1286 618 1274 q 609 1303 618 1297 q 589 1310 600 1310 q 539 1298 558 1310 q 515 1286 519 1286 q 490 1308 507 1286 q 474 1344 474 1329 q 510 1371 474 1358 q 585 1383 547 1383 q 679 1358 644 1383 q 714 1292 714 1333 q 678 1226 714 1256 q 644 1206 664 1215 q 610 1196 625 1196 m 282 1040 q 259 1043 265 1040 q 254 1054 253 1046 q 258 1066 254 1060 q 263 1075 261 1072 l 356 1217 q 385 1238 367 1233 q 438 1243 404 1243 l 440 1243 q 491 1238 474 1243 q 515 1217 508 1233 l 578 1075 q 583 1054 583 1064 q 554 1040 582 1040 l 517 1040 q 447 1065 458 1040 l 426 1129 l 392 1067 q 364 1045 382 1050 q 319 1040 346 1040 l 282 1040 m 93 0 q 55 13 65 0 q 47 56 44 26 l 139 917 q 156 959 142 946 q 196 972 169 972 l 606 972 q 640 922 640 972 l 639 903 l 635 860 q 586 790 629 790 l 342 790 l 321 589 l 538 589 q 572 539 572 589 l 571 519 l 567 476 q 518 407 561 407 l 301 407 l 278 182 l 524 182 q 549 170 542 182 q 557 133 557 158 l 556 113 l 551 69 q 504 0 546 0 l 93 0 z "},"Ễ":{"ha":635,"x_min":44,"x_max":640,"o":"m 274 1242 q 251 1256 258 1246 q 244 1278 244 1267 q 249 1300 244 1286 q 292 1369 263 1343 q 363 1396 322 1396 q 446 1374 388 1396 q 476 1363 454 1371 q 510 1356 497 1356 q 542 1378 525 1356 q 558 1396 550 1390 q 576 1401 565 1401 q 593 1399 582 1401 l 607 1394 q 635 1358 635 1385 q 632 1338 635 1349 q 587 1268 618 1296 q 517 1240 556 1240 q 435 1263 493 1240 q 407 1272 429 1264 q 371 1281 385 1281 q 339 1258 353 1281 q 304 1235 322 1235 q 288 1238 299 1235 l 274 1242 m 282 1040 q 259 1043 265 1040 q 254 1054 253 1046 q 260 1068 256 1060 q 269 1083 264 1076 l 351 1186 q 382 1207 364 1201 q 435 1213 400 1213 l 438 1213 q 488 1207 471 1213 q 514 1186 504 1201 l 574 1083 q 583 1054 583 1061 q 554 1040 581 1040 l 515 1040 q 473 1046 486 1040 q 449 1065 460 1051 l 426 1121 l 389 1067 q 360 1046 372 1051 q 319 1040 347 1040 l 282 1040 m 93 0 q 55 13 65 0 q 47 56 44 26 l 139 917 q 156 959 142 946 q 196 972 169 972 l 606 972 q 640 922 640 972 l 639 903 l 635 860 q 586 790 629 790 l 342 790 l 321 589 l 538 589 q 572 539 572 589 l 571 519 l 567 476 q 518 407 561 407 l 301 407 l 278 182 l 524 182 q 549 170 542 182 q 557 133 557 158 l 556 113 l 551 69 q 504 0 546 0 l 93 0 z "},"Ë":{"ha":635,"x_min":46,"x_max":640,"o":"m 93 0 q 55 13 65 0 q 47 56 44 26 l 139 917 q 156 959 142 946 q 196 972 169 972 l 606 972 q 640 922 640 972 l 639 903 l 635 860 q 586 790 629 790 l 342 790 l 321 589 l 538 589 q 572 539 572 589 l 571 519 l 567 476 q 518 407 561 407 l 301 407 l 278 182 l 524 182 q 549 170 542 182 q 557 133 557 158 l 556 113 l 551 69 q 504 0 546 0 l 93 0 m 307 1049 q 232 1093 225 1049 l 240 1176 q 322 1221 244 1221 q 399 1176 403 1221 l 390 1093 q 307 1049 383 1049 m 532 1049 q 457 1093 450 1049 l 465 1176 q 547 1221 469 1221 q 624 1176 628 1221 l 615 1093 q 532 1049 608 1049 z "},"Ė":{"ha":635,"x_min":46,"x_max":640,"o":"m 93 0 q 55 13 65 0 q 47 56 44 26 l 139 917 q 156 959 142 946 q 196 972 169 972 l 606 972 q 640 922 640 972 l 639 903 l 635 860 q 586 790 629 790 l 342 790 l 321 589 l 538 589 q 572 539 572 589 l 571 519 l 567 476 q 518 407 561 407 l 301 407 l 278 182 l 524 182 q 549 170 542 182 q 557 133 557 158 l 556 113 l 551 69 q 504 0 546 0 l 93 0 m 419 1049 q 328 1093 321 1049 l 336 1176 q 433 1221 340 1221 q 526 1176 531 1221 l 518 1093 q 419 1049 511 1049 z "},"Ẹ":{"ha":635,"x_min":46,"x_max":640,"o":"m 93 0 q 55 13 65 0 q 47 56 44 26 l 139 917 q 156 959 142 946 q 196 972 169 972 l 606 972 q 640 922 640 972 l 639 903 l 635 860 q 586 790 629 790 l 342 790 l 321 589 l 538 589 q 572 539 572 589 l 571 519 l 567 476 q 518 407 561 407 l 301 407 l 278 182 l 524 182 q 549 170 542 182 q 557 133 557 158 l 556 113 l 551 69 q 504 0 546 0 l 93 0 m 264 -283 q 172 -239 165 -283 l 181 -156 q 278 -111 185 -111 q 371 -156 375 -111 l 363 -239 q 264 -283 356 -283 z "},"È":{"ha":635,"x_min":46,"x_max":640,"o":"m 93 0 q 55 13 65 0 q 47 56 44 26 l 139 917 q 156 959 142 946 q 196 972 169 972 l 606 972 q 640 922 640 972 l 639 903 l 635 860 q 586 790 629 790 l 342 790 l 321 589 l 538 589 q 572 539 572 589 l 571 519 l 567 476 q 518 407 561 407 l 301 407 l 278 182 l 524 182 q 549 170 542 182 q 557 133 557 158 l 556 113 l 551 69 q 504 0 546 0 l 93 0 m 453 1044 q 386 1054 407 1044 q 354 1079 365 1064 l 283 1168 q 242 1221 254 1204 q 231 1246 231 1238 q 249 1261 231 1257 q 306 1265 267 1265 q 417 1228 396 1265 q 474 1117 454 1157 q 493 1065 493 1076 q 485 1049 493 1053 q 453 1044 476 1044 z "},"Ẻ":{"ha":635,"x_min":46,"x_max":640,"o":"m 93 0 q 55 13 65 0 q 47 56 44 26 l 139 917 q 156 959 142 946 q 196 972 169 972 l 606 972 q 640 922 640 972 l 639 903 l 635 860 q 586 790 629 790 l 342 790 l 321 589 l 538 589 q 572 539 572 589 l 571 519 l 567 476 q 518 407 561 407 l 301 407 l 278 182 l 524 182 q 549 170 542 182 q 557 133 557 158 l 556 113 l 551 69 q 504 0 546 0 l 93 0 m 443 1038 q 394 1049 419 1038 q 368 1069 368 1061 q 404 1107 368 1081 q 446 1142 431 1126 q 461 1174 461 1158 q 448 1196 461 1188 q 417 1204 435 1204 q 381 1196 399 1204 q 358 1188 364 1188 q 333 1209 350 1188 q 317 1246 317 1231 q 354 1274 317 1260 q 428 1289 392 1289 q 542 1260 501 1289 q 582 1179 582 1231 q 554 1113 582 1146 q 492 1059 526 1081 q 443 1038 457 1038 z "},"Ē":{"ha":635,"x_min":46,"x_max":640,"o":"m 93 0 q 55 13 65 0 q 47 56 44 26 l 139 917 q 156 959 142 946 q 196 972 169 972 l 606 972 q 640 922 640 972 l 639 903 l 635 860 q 586 790 629 790 l 342 790 l 321 589 l 538 589 q 572 539 572 589 l 571 519 l 567 476 q 518 407 561 407 l 301 407 l 278 182 l 524 182 q 549 170 542 182 q 557 133 557 158 l 556 113 l 551 69 q 504 0 546 0 l 93 0 m 288 1075 q 258 1088 267 1075 q 253 1131 250 1101 l 256 1151 q 269 1194 258 1181 q 301 1207 281 1207 l 567 1207 q 603 1167 603 1207 l 601 1151 l 599 1131 q 586 1088 597 1101 q 553 1075 575 1075 l 288 1075 z "},"Ę":{"ha":635,"x_min":44,"x_max":653,"o":"m 611 -144 q 643 -153 633 -144 q 653 -186 653 -162 q 629 -229 653 -215 q 551 -246 594 -246 q 444 -204 472 -246 q 417 -115 417 -162 q 444 0 417 -57 l 93 0 q 55 13 65 0 q 47 56 44 26 l 139 917 q 156 959 142 946 q 196 972 169 972 l 606 972 q 640 922 640 972 l 639 903 l 635 860 q 586 790 629 790 l 342 790 l 321 589 l 538 589 q 572 539 572 589 l 571 519 l 567 476 q 518 407 561 407 l 301 407 l 278 182 l 524 182 q 549 170 542 182 q 557 133 557 158 l 556 113 l 551 69 q 532 11 547 25 q 510 -89 510 -42 q 578 -150 510 -150 q 597 -147 589 -150 q 611 -144 606 -144 z "},"Ẽ":{"ha":635,"x_min":46,"x_max":640,"o":"m 93 0 q 55 13 65 0 q 47 56 44 26 l 139 917 q 156 959 142 946 q 196 972 169 972 l 606 972 q 640 922 640 972 l 639 903 l 635 860 q 586 790 629 790 l 342 790 l 321 589 l 538 589 q 572 539 572 589 l 571 519 l 567 476 q 518 407 561 407 l 301 407 l 278 182 l 524 182 q 549 170 542 182 q 557 133 557 158 l 556 113 l 551 69 q 504 0 546 0 l 93 0 m 219 1056 q 188 1092 188 1064 q 193 1114 188 1101 q 241 1183 208 1156 q 318 1210 274 1210 q 410 1188 346 1210 q 443 1177 419 1185 q 479 1169 467 1169 q 515 1192 497 1169 q 532 1210 524 1204 q 553 1215 540 1215 q 572 1213 558 1215 l 586 1208 q 618 1172 618 1199 q 614 1151 618 1168 q 565 1082 599 1110 q 488 1054 531 1054 q 397 1076 461 1054 q 364 1087 389 1079 q 326 1094 339 1094 q 292 1072 307 1094 q 273 1054 282 1060 q 253 1049 264 1049 q 235 1051 246 1049 l 219 1056 z "},"F":{"ha":588,"x_min":42,"x_max":613,"o":"m 122 -3 q 46 42 42 -3 l 139 917 q 156 959 142 946 q 196 972 169 972 l 578 972 q 613 922 613 972 l 611 903 l 606 860 q 558 790 600 790 l 342 790 l 321 588 l 525 588 q 560 538 560 588 l 558 518 l 553 475 q 506 406 547 406 l 301 406 l 263 42 q 178 -3 258 -3 l 122 -3 z "},"G":{"ha":767,"x_min":60,"x_max":742,"o":"m 493 796 q 355 721 404 796 q 289 488 306 646 q 283 382 283 433 q 317 224 283 271 q 414 178 350 178 q 471 183 447 178 l 492 386 l 421 386 q 388 432 388 386 q 389 456 388 447 l 393 500 q 408 553 397 536 q 440 569 419 569 l 669 569 q 707 556 696 569 q 715 514 718 543 l 672 100 q 624 42 669 68 q 515 3 579 17 q 393 -11 450 -11 q 144 83 228 -11 q 60 372 60 178 q 67 489 60 419 q 197 862 93 740 q 501 983 301 983 q 618 969 563 983 q 708 933 674 956 q 742 888 742 911 q 724 840 742 871 q 682 784 706 808 q 642 760 658 760 q 613 770 636 760 q 562 788 590 781 q 493 796 533 796 z "},"Ğ":{"ha":767,"x_min":60,"x_max":742,"o":"m 493 796 q 355 721 404 796 q 289 488 306 646 q 283 382 283 433 q 317 224 283 271 q 414 178 350 178 q 471 183 447 178 l 492 386 l 421 386 q 388 432 388 386 q 389 456 388 447 l 393 500 q 408 553 397 536 q 440 569 419 569 l 669 569 q 707 556 696 569 q 715 514 718 543 l 672 100 q 624 42 669 68 q 515 3 579 17 q 393 -11 450 -11 q 144 83 228 -11 q 60 372 60 178 q 67 489 60 419 q 197 862 93 740 q 501 983 301 983 q 618 969 563 983 q 708 933 674 956 q 742 888 742 911 q 724 840 742 871 q 682 784 706 808 q 642 760 658 760 q 613 770 636 760 q 562 788 590 781 q 493 796 533 796 m 488 1044 q 364 1084 406 1044 q 322 1178 322 1124 q 383 1239 322 1239 q 422 1214 413 1239 q 429 1199 424 1211 q 453 1178 435 1186 q 503 1171 471 1171 q 562 1182 544 1171 q 585 1203 579 1193 q 593 1217 592 1214 q 610 1233 599 1226 q 635 1239 621 1239 q 685 1192 690 1239 q 628 1090 679 1135 q 488 1044 576 1044 z "},"Ĝ":{"ha":767,"x_min":60,"x_max":742,"o":"m 493 796 q 355 721 404 796 q 289 488 306 646 q 283 382 283 433 q 317 224 283 271 q 414 178 350 178 q 471 183 447 178 l 492 386 l 421 386 q 388 432 388 386 q 389 456 388 447 l 393 500 q 408 553 397 536 q 440 569 419 569 l 669 569 q 707 556 696 569 q 715 514 718 543 l 672 100 q 624 42 669 68 q 515 3 579 17 q 393 -11 450 -11 q 144 83 228 -11 q 60 372 60 178 q 67 489 60 419 q 197 862 93 740 q 501 983 301 983 q 618 969 563 983 q 708 933 674 956 q 742 888 742 911 q 724 840 742 871 q 682 784 706 808 q 642 760 658 760 q 613 770 636 760 q 562 788 590 781 q 493 796 533 796 m 343 1040 q 315 1054 314 1040 q 326 1078 315 1058 l 424 1217 q 455 1238 436 1233 q 506 1243 474 1243 l 508 1243 q 558 1238 540 1243 q 585 1217 576 1233 l 653 1078 q 661 1054 661 1064 q 632 1040 660 1040 l 593 1040 q 525 1065 535 1040 l 494 1129 l 453 1067 q 424 1047 442 1053 q 381 1040 407 1040 l 343 1040 z "},"Ģ":{"ha":767,"x_min":60,"x_max":742,"o":"m 493 796 q 355 721 404 796 q 289 488 306 646 q 283 382 283 433 q 317 224 283 271 q 414 178 350 178 q 471 183 447 178 l 492 386 l 421 386 q 388 432 388 386 q 389 456 388 447 l 393 500 q 408 553 397 536 q 440 569 419 569 l 669 569 q 707 556 696 569 q 715 514 718 543 l 672 100 q 624 42 669 68 q 515 3 579 17 q 393 -11 450 -11 q 144 83 228 -11 q 60 372 60 178 q 67 489 60 419 q 197 862 93 740 q 501 983 301 983 q 618 969 563 983 q 708 933 674 956 q 742 888 742 911 q 724 840 742 871 q 682 784 706 808 q 642 760 658 760 q 613 770 636 760 q 562 788 590 781 q 493 796 533 796 m 346 -333 q 304 -326 324 -333 q 285 -303 285 -318 q 288 -274 285 -299 q 299 -132 299 -203 q 379 -71 299 -71 l 407 -71 q 469 -132 469 -71 q 448 -223 469 -176 q 397 -301 426 -269 q 346 -333 367 -333 z "},"Ġ":{"ha":767,"x_min":60,"x_max":742,"o":"m 493 796 q 355 721 404 796 q 289 488 306 646 q 283 382 283 433 q 317 224 283 271 q 414 178 350 178 q 471 183 447 178 l 492 386 l 421 386 q 388 432 388 386 q 389 456 388 447 l 393 500 q 408 553 397 536 q 440 569 419 569 l 669 569 q 707 556 696 569 q 715 514 718 543 l 672 100 q 624 42 669 68 q 515 3 579 17 q 393 -11 450 -11 q 144 83 228 -11 q 60 372 60 178 q 67 489 60 419 q 197 862 93 740 q 501 983 301 983 q 618 969 563 983 q 708 933 674 956 q 742 888 742 911 q 724 840 742 871 q 682 784 706 808 q 642 760 658 760 q 613 770 636 760 q 562 788 590 781 q 493 796 533 796 m 490 1049 q 399 1093 392 1049 l 407 1176 q 504 1221 411 1221 q 597 1176 601 1221 l 589 1093 q 490 1049 582 1049 z "},"H":{"ha":835,"x_min":42,"x_max":818,"o":"m 122 -3 q 46 42 42 -3 l 140 931 q 225 975 144 975 l 283 975 q 358 931 363 975 l 322 588 l 560 588 l 596 931 q 681 975 600 975 l 738 975 q 814 931 818 975 l 719 42 q 635 -3 715 -3 l 578 -3 q 501 42 497 -3 l 540 404 l 303 404 l 264 42 q 181 -3 260 -3 l 122 -3 z "},"Ħ":{"ha":835,"x_min":-24,"x_max":919,"o":"m 883 793 q 919 751 919 793 q 909 690 919 718 q 868 661 899 661 l 785 661 l 719 42 q 635 -3 715 -3 l 578 -3 q 501 42 497 -3 l 540 404 l 303 404 l 264 42 q 181 -3 260 -3 l 122 -3 q 46 42 42 -3 l 111 661 l 13 661 q -15 671 -7 661 q -24 703 -24 681 q 28 793 -24 793 l 125 793 l 140 931 q 225 975 144 975 l 283 975 q 358 931 363 975 l 344 793 l 582 793 l 596 931 q 681 975 600 975 l 738 975 q 814 931 818 975 l 799 793 l 883 793 m 560 588 l 568 661 l 331 661 l 322 588 l 560 588 z "},"Ĥ":{"ha":835,"x_min":46,"x_max":814,"o":"m 122 -3 q 46 42 42 -3 l 140 931 q 225 975 144 975 l 283 975 q 358 931 363 975 l 322 588 l 560 588 l 596 931 q 681 975 600 975 l 738 975 q 814 931 818 975 l 719 42 q 635 -3 715 -3 l 578 -3 q 501 42 497 -3 l 540 404 l 303 404 l 264 42 q 181 -3 260 -3 l 122 -3 m 344 1040 q 317 1054 315 1040 q 328 1078 317 1058 l 425 1217 q 456 1238 438 1233 q 507 1243 475 1243 l 510 1243 q 560 1238 542 1243 q 586 1217 578 1233 l 654 1078 q 663 1054 663 1064 q 633 1040 661 1040 l 594 1040 q 526 1065 536 1040 l 496 1129 l 454 1067 q 426 1047 443 1053 q 382 1040 408 1040 l 344 1040 z "},"Ḥ":{"ha":835,"x_min":46,"x_max":814,"o":"m 122 -3 q 46 42 42 -3 l 140 931 q 225 975 144 975 l 283 975 q 358 931 363 975 l 322 588 l 560 588 l 596 931 q 681 975 600 975 l 738 975 q 814 931 818 975 l 719 42 q 635 -3 715 -3 l 578 -3 q 501 42 497 -3 l 540 404 l 303 404 l 264 42 q 181 -3 260 -3 l 122 -3 m 351 -283 q 260 -239 253 -283 l 268 -156 q 365 -111 272 -111 q 458 -156 463 -111 l 450 -239 q 351 -283 443 -283 z "},"I":{"ha":364,"x_min":35,"x_max":356,"o":"m 115 -4 q 39 42 35 -4 l 133 931 q 218 976 138 976 l 276 976 q 351 931 356 976 l 257 42 q 174 -4 253 -4 l 115 -4 z "},"Ĳ":{"ha":857,"x_min":39,"x_max":832,"o":"m 115 -4 q 39 42 35 -4 l 133 931 q 218 976 138 976 l 276 976 q 351 931 356 976 l 257 42 q 174 -4 253 -4 l 115 -4 m 482 -11 q 374 7 421 -11 q 329 53 328 25 q 356 137 333 93 q 401 182 379 181 q 426 178 407 182 q 467 174 444 174 q 523 207 504 174 q 549 315 542 240 l 614 931 q 697 976 618 976 l 756 976 q 832 931 836 976 l 764 281 q 482 -11 733 -11 z "},"Í":{"ha":364,"x_min":39,"x_max":429,"o":"m 115 -4 q 39 42 35 -4 l 133 931 q 218 976 138 976 l 276 976 q 351 931 356 976 l 257 42 q 174 -4 253 -4 l 115 -4 m 207 1044 q 175 1049 183 1044 q 167 1065 167 1054 q 176 1093 167 1074 q 201 1143 185 1113 l 244 1228 q 354 1265 264 1265 q 411 1261 393 1265 q 429 1246 429 1257 q 419 1224 429 1238 q 385 1179 410 1210 q 353 1139 372 1163 q 307 1079 335 1115 q 274 1053 294 1063 q 207 1044 253 1044 z "},"Ĭ":{"ha":364,"x_min":39,"x_max":451,"o":"m 115 -4 q 39 42 35 -4 l 133 931 q 218 976 138 976 l 276 976 q 351 931 356 976 l 257 42 q 174 -4 253 -4 l 115 -4 m 254 1044 q 131 1084 172 1044 q 89 1178 89 1124 q 150 1239 89 1239 q 189 1214 179 1239 q 196 1199 190 1211 q 219 1178 201 1186 q 269 1171 238 1171 q 328 1182 311 1171 q 352 1203 346 1193 q 360 1217 358 1214 q 376 1233 365 1226 q 401 1239 388 1239 q 451 1192 457 1239 q 394 1090 446 1135 q 254 1044 343 1044 z "},"Î":{"ha":364,"x_min":39,"x_max":428,"o":"m 115 -4 q 39 42 35 -4 l 133 931 q 218 976 138 976 l 276 976 q 351 931 356 976 l 257 42 q 174 -4 253 -4 l 115 -4 m 110 1040 q 82 1054 81 1040 q 93 1078 82 1058 l 190 1217 q 222 1238 203 1233 q 272 1243 240 1243 l 275 1243 q 325 1238 307 1243 q 351 1217 343 1233 l 419 1078 q 428 1054 428 1064 q 399 1040 426 1040 l 360 1040 q 292 1065 301 1040 l 261 1129 l 219 1067 q 191 1047 208 1053 q 147 1040 174 1040 l 110 1040 z "},"Ï":{"ha":364,"x_min":39,"x_max":461,"o":"m 115 -4 q 39 42 35 -4 l 133 931 q 218 976 138 976 l 276 976 q 351 931 356 976 l 257 42 q 174 -4 253 -4 l 115 -4 m 144 1049 q 69 1093 63 1049 l 78 1176 q 160 1221 82 1221 q 236 1176 240 1221 l 228 1093 q 144 1049 221 1049 m 369 1049 q 294 1093 288 1049 l 303 1176 q 385 1221 307 1221 q 461 1176 465 1221 l 453 1093 q 369 1049 446 1049 z "},"İ":{"ha":364,"x_min":39,"x_max":364,"o":"m 115 -4 q 39 42 35 -4 l 133 931 q 218 976 138 976 l 276 976 q 351 931 356 976 l 257 42 q 174 -4 253 -4 l 115 -4 m 257 1049 q 165 1093 158 1049 l 174 1176 q 271 1221 178 1221 q 364 1176 368 1221 l 356 1093 q 257 1049 349 1049 z "},"Ị":{"ha":364,"x_min":25,"x_max":351,"o":"m 115 -4 q 39 42 35 -4 l 133 931 q 218 976 138 976 l 276 976 q 351 931 356 976 l 257 42 q 174 -4 253 -4 l 115 -4 m 117 -283 q 25 -239 18 -283 l 33 -156 q 131 -111 38 -111 q 224 -156 228 -111 l 215 -239 q 117 -283 208 -283 z "},"Ì":{"ha":364,"x_min":39,"x_max":351,"o":"m 115 -4 q 39 42 35 -4 l 133 931 q 218 976 138 976 l 276 976 q 351 931 356 976 l 257 42 q 174 -4 253 -4 l 115 -4 m 290 1044 q 224 1054 244 1044 q 192 1079 203 1064 l 121 1168 q 80 1221 92 1204 q 68 1246 68 1238 q 86 1261 68 1257 q 143 1265 104 1265 q 254 1228 233 1265 q 311 1117 292 1157 q 331 1065 331 1076 q 322 1049 331 1053 q 290 1044 314 1044 z "},"Ỉ":{"ha":364,"x_min":39,"x_max":419,"o":"m 115 -4 q 39 42 35 -4 l 133 931 q 218 976 138 976 l 276 976 q 351 931 356 976 l 257 42 q 174 -4 253 -4 l 115 -4 m 281 1038 q 231 1049 257 1038 q 206 1069 206 1061 q 242 1107 206 1081 q 283 1142 268 1126 q 299 1174 299 1158 q 285 1196 299 1188 q 254 1204 272 1204 q 219 1196 236 1204 q 196 1188 201 1188 q 171 1209 188 1188 q 154 1246 154 1231 q 192 1274 154 1260 q 265 1289 229 1289 q 379 1260 339 1289 q 419 1179 419 1231 q 392 1113 419 1146 q 329 1059 364 1081 q 281 1038 294 1038 z "},"Ī":{"ha":364,"x_min":39,"x_max":440,"o":"m 115 -4 q 39 42 35 -4 l 133 931 q 218 976 138 976 l 276 976 q 351 931 356 976 l 257 42 q 174 -4 253 -4 l 115 -4 m 125 1075 q 96 1088 104 1075 q 90 1131 88 1101 l 93 1151 q 107 1194 96 1181 q 139 1207 118 1207 l 404 1207 q 440 1167 440 1207 l 439 1151 l 436 1131 q 424 1088 435 1101 q 390 1075 413 1075 l 125 1075 z "},"Į":{"ha":364,"x_min":35,"x_max":369,"o":"m 328 -137 q 360 -147 350 -137 q 369 -179 369 -156 q 346 -222 369 -208 q 268 -239 311 -239 q 161 -197 189 -239 q 133 -108 133 -156 q 156 -4 133 -60 l 115 -4 q 39 42 35 -4 l 133 931 q 218 976 138 976 l 276 976 q 351 931 356 976 l 257 42 q 250 21 254 26 q 226 -82 226 -31 q 294 -143 226 -143 q 314 -140 306 -143 q 328 -137 322 -137 z "},"Ĩ":{"ha":364,"x_min":35,"x_max":435,"o":"m 76 1056 q 54 1070 61 1060 q 47 1092 47 1081 q 53 1114 47 1101 q 97 1183 68 1157 q 165 1210 125 1210 q 249 1188 190 1210 q 310 1169 293 1169 q 343 1192 326 1169 q 358 1210 350 1204 q 376 1215 365 1215 q 394 1213 381 1215 l 407 1208 q 435 1172 435 1199 q 432 1151 435 1163 q 388 1082 418 1110 q 318 1054 357 1054 q 236 1076 294 1054 q 208 1086 231 1078 q 172 1094 186 1094 q 142 1072 156 1094 q 107 1049 125 1049 q 90 1051 101 1049 l 76 1056 m 115 -4 q 39 42 35 -4 l 133 931 q 218 976 138 976 l 276 976 q 351 931 356 976 l 257 42 q 174 -4 253 -4 l 115 -4 z "},"J":{"ha":493,"x_min":-36,"x_max":472,"o":"m 118 -11 q 10 7 57 -11 q -35 53 -36 25 q -8 137 -31 93 q 38 182 15 181 q 62 178 43 182 q 103 174 81 174 q 159 207 140 174 q 185 315 178 240 l 250 931 q 333 976 254 976 l 392 976 q 468 931 472 976 l 400 281 q 118 -11 369 -11 z "},"Ĵ":{"ha":493,"x_min":-35,"x_max":542,"o":"m 118 -11 q 10 7 57 -11 q -35 53 -36 25 q -8 137 -31 93 q 38 182 15 181 q 62 178 43 182 q 103 174 81 174 q 159 207 140 174 q 185 315 178 240 l 250 931 q 333 976 254 976 l 392 976 q 468 931 472 976 l 400 281 q 118 -11 369 -11 m 224 1040 q 196 1054 194 1040 q 207 1078 196 1058 l 304 1217 q 335 1238 317 1233 q 386 1243 354 1243 l 389 1243 q 439 1238 421 1243 q 465 1217 457 1233 l 533 1078 q 542 1054 542 1064 q 513 1040 540 1040 l 474 1040 q 406 1065 415 1040 l 375 1129 l 333 1067 q 305 1047 322 1053 q 261 1040 288 1040 l 224 1040 z "},"K":{"ha":708,"x_min":42,"x_max":769,"o":"m 122 -3 q 46 42 42 -3 l 140 931 q 225 975 144 975 l 281 975 q 358 931 365 975 l 310 528 l 319 528 l 543 949 q 569 969 551 964 q 617 975 586 975 l 693 975 q 767 954 769 975 q 756 925 767 944 l 497 490 l 668 47 q 674 18 674 35 q 599 -3 671 -3 l 518 -3 q 469 3 486 -3 q 446 24 451 8 l 311 463 l 303 463 l 264 42 q 178 -3 260 -3 l 122 -3 z "},"Ķ":{"ha":708,"x_min":46,"x_max":767,"o":"m 122 -3 q 46 42 42 -3 l 140 931 q 225 975 144 975 l 281 975 q 358 931 365 975 l 310 528 l 319 528 l 543 949 q 569 969 551 964 q 617 975 586 975 l 693 975 q 767 954 769 975 q 756 925 767 944 l 497 490 l 668 47 q 674 18 674 35 q 599 -3 671 -3 l 518 -3 q 469 3 486 -3 q 446 24 451 8 l 311 463 l 303 463 l 264 42 q 178 -3 260 -3 l 122 -3 m 292 -333 q 250 -326 269 -333 q 231 -303 231 -318 q 233 -274 231 -299 q 244 -132 244 -203 q 325 -71 244 -71 l 353 -71 q 415 -132 415 -71 q 394 -223 415 -176 q 342 -301 372 -269 q 292 -333 313 -333 z "},"L":{"ha":567,"x_min":44,"x_max":521,"o":"m 93 0 q 55 13 65 0 q 47 56 44 26 l 140 931 q 225 975 144 975 l 281 975 q 357 931 361 975 l 278 182 l 485 182 q 513 170 504 182 q 521 132 521 158 l 519 113 l 514 69 q 499 17 511 33 q 465 0 488 0 l 93 0 z "},"Ǉ":{"ha":997,"x_min":50,"x_max":967,"o":"m 279 975 q 358 932 358 975 l 279 182 l 492 182 q 519 169 511 182 q 528 126 528 156 q 475 0 528 0 l 100 0 q 61 10 72 0 q 50 44 50 19 l 143 931 q 231 975 147 975 l 279 975 m 888 975 q 967 932 967 975 l 869 39 q 774 -176 854 -99 q 544 -253 694 -253 q 411 -193 411 -253 q 439 -58 411 -58 q 464 -65 444 -58 q 526 -71 483 -71 q 619 -37 589 -71 q 658 74 650 -3 l 751 931 q 839 975 756 975 l 888 975 z "},"Ĺ":{"ha":567,"x_min":46,"x_max":521,"o":"m 93 0 q 55 13 65 0 q 47 56 44 26 l 140 931 q 225 975 144 975 l 281 975 q 357 931 361 975 l 278 182 l 485 182 q 513 170 504 182 q 521 132 521 158 l 519 113 l 514 69 q 499 17 511 33 q 465 0 488 0 l 93 0 m 215 1044 q 183 1049 192 1044 q 175 1065 175 1054 q 184 1093 175 1074 q 210 1143 193 1113 l 253 1228 q 363 1265 272 1265 q 419 1261 401 1265 q 438 1246 438 1257 q 428 1224 438 1238 q 393 1179 418 1210 q 362 1139 381 1163 q 315 1079 343 1115 q 282 1053 303 1063 q 215 1044 261 1044 z "},"Ľ":{"ha":567,"x_min":46,"x_max":592,"o":"m 93 0 q 55 13 65 0 q 47 56 44 26 l 140 931 q 225 975 144 975 l 281 975 q 357 931 361 975 l 278 182 l 485 182 q 513 170 504 182 q 521 132 521 158 l 519 113 l 514 69 q 499 17 511 33 q 465 0 488 0 l 93 0 m 483 710 q 441 717 461 710 q 421 740 421 725 q 424 842 421 783 q 426 911 426 892 q 510 972 426 972 l 536 972 q 578 956 564 972 q 592 911 592 939 q 573 822 592 868 q 528 743 554 775 q 483 710 501 711 z "},"Ļ":{"ha":567,"x_min":46,"x_max":521,"o":"m 93 0 q 55 13 65 0 q 47 56 44 26 l 140 931 q 225 975 144 975 l 281 975 q 357 931 361 975 l 278 182 l 485 182 q 513 170 504 182 q 521 132 521 158 l 519 113 l 514 69 q 499 17 511 33 q 465 0 488 0 l 93 0 m 222 -333 q 181 -326 200 -333 q 161 -303 161 -318 q 164 -274 161 -299 q 175 -132 175 -203 q 256 -71 175 -71 l 283 -71 q 346 -132 346 -71 q 324 -223 346 -176 q 273 -301 303 -269 q 222 -333 243 -333 z "},"Ŀ":{"ha":567,"x_min":46,"x_max":549,"o":"m 93 0 q 55 13 65 0 q 47 56 44 26 l 140 931 q 225 975 144 975 l 281 975 q 357 931 361 975 l 278 182 l 485 182 q 513 170 504 182 q 521 132 521 158 l 519 113 l 514 69 q 499 17 511 33 q 465 0 488 0 l 93 0 m 443 401 q 382 424 406 401 q 358 486 358 446 q 389 567 358 538 q 464 596 419 596 q 525 574 501 596 q 549 513 549 551 q 518 431 549 461 q 443 401 488 401 z "},"ǈ":{"ha":913,"x_min":46,"x_max":889,"o":"m 93 0 q 55 13 65 0 q 47 56 44 26 l 140 931 q 225 975 144 975 l 281 975 q 357 931 361 975 l 278 182 l 485 182 q 513 170 504 182 q 521 132 521 158 l 519 113 l 514 69 q 499 17 511 33 q 465 0 488 0 l 93 0 m 585 -294 q 488 -281 519 -294 q 456 -232 456 -267 q 472 -166 456 -206 q 508 -126 488 -126 q 528 -129 515 -126 q 550 -132 542 -132 q 577 -118 568 -132 q 589 -72 586 -104 l 668 685 q 757 729 675 729 l 796 729 q 874 685 881 729 l 794 -69 q 726 -237 783 -179 q 585 -294 668 -294 m 782 803 q 690 847 683 803 l 699 931 q 796 975 703 975 q 889 931 893 975 l 881 847 q 782 803 874 803 z "},"Ł":{"ha":567,"x_min":18,"x_max":519,"o":"m 483 182 q 511 170 503 182 q 519 132 519 158 l 518 113 l 513 69 q 498 17 510 33 q 464 0 486 0 l 92 0 q 53 13 64 0 q 46 56 43 26 l 85 419 l 54 401 q 33 394 44 394 q 18 422 18 394 l 18 450 q 26 487 18 472 q 54 513 35 501 l 97 539 l 139 931 q 224 975 143 975 l 279 975 q 356 931 360 975 l 329 681 l 386 715 q 407 724 399 724 q 422 696 422 724 l 422 668 q 386 604 422 626 l 317 561 l 276 182 l 483 182 z "},"M":{"ha":957,"x_min":36,"x_max":944,"o":"m 460 310 q 427 317 439 310 q 407 343 415 325 l 325 535 q 303 600 317 556 l 297 599 q 299 554 299 585 q 297 522 299 533 l 247 42 q 224 8 244 18 q 161 -3 203 -3 l 114 -3 q 53 8 71 -3 q 39 42 36 18 l 132 931 q 154 965 135 954 q 217 975 174 975 l 260 975 q 311 966 293 975 q 339 936 329 957 l 478 610 q 497 543 485 592 q 529 610 508 578 l 735 936 q 769 966 749 957 q 822 975 789 975 l 865 975 q 926 965 908 975 q 942 931 944 954 l 849 42 q 825 8 846 18 q 763 -3 804 -3 l 715 -3 q 655 8 672 -3 q 640 42 638 18 l 690 522 q 708 599 694 556 l 703 600 q 665 535 685 564 l 542 343 q 518 317 531 325 q 483 310 506 310 l 460 310 z "},"N":{"ha":819,"x_min":32,"x_max":811,"o":"m 114 -3 q 39 42 32 -3 l 132 931 q 217 975 136 975 l 253 975 q 295 967 279 975 q 321 936 311 960 l 519 469 q 556 361 539 424 l 561 364 q 558 431 558 408 q 561 474 558 446 l 613 931 q 697 975 617 975 l 731 975 q 807 931 811 975 l 714 42 q 628 -3 707 -3 l 601 -3 q 557 6 574 -3 q 531 36 540 14 l 319 522 q 302 572 310 543 q 292 611 294 600 l 283 607 q 286 581 285 596 q 288 547 288 567 q 285 513 288 535 l 233 42 q 147 -3 229 -3 l 114 -3 z "},"Ǌ":{"ha":1313,"x_min":39,"x_max":1288,"o":"m 114 -3 q 39 42 32 -3 l 132 931 q 217 975 136 975 l 253 975 q 295 967 279 975 q 321 936 311 960 l 519 469 q 556 361 539 424 l 561 364 q 558 431 558 408 q 561 474 558 446 l 613 931 q 697 975 617 975 l 731 975 q 807 931 811 975 l 714 42 q 628 -3 707 -3 l 601 -3 q 557 6 574 -3 q 531 36 540 14 l 319 522 q 302 572 310 543 q 292 611 294 600 l 283 607 q 286 581 285 596 q 288 547 288 567 q 285 513 288 535 l 233 42 q 147 -3 229 -3 l 114 -3 m 938 -11 q 830 7 876 -11 q 785 53 783 25 q 812 137 789 93 q 857 182 835 181 q 881 178 863 182 q 922 174 900 174 q 978 207 960 174 q 1004 315 997 240 l 1069 931 q 1153 976 1074 976 l 1211 976 q 1288 931 1292 976 l 1219 281 q 938 -11 1189 -11 z "},"Ń":{"ha":819,"x_min":39,"x_max":807,"o":"m 114 -3 q 39 42 32 -3 l 132 931 q 217 975 136 975 l 253 975 q 295 967 279 975 q 321 936 311 960 l 519 469 q 556 361 539 424 l 561 364 q 558 431 558 408 q 561 474 558 446 l 613 931 q 697 975 617 975 l 731 975 q 807 931 811 975 l 714 42 q 628 -3 707 -3 l 601 -3 q 557 6 574 -3 q 531 36 540 14 l 319 522 q 302 572 310 543 q 292 611 294 600 l 283 607 q 286 581 285 596 q 288 547 288 567 q 285 513 288 535 l 233 42 q 147 -3 229 -3 l 114 -3 m 436 1044 q 404 1049 413 1044 q 396 1065 396 1054 q 405 1093 396 1074 q 431 1143 414 1113 l 474 1228 q 583 1265 493 1265 q 640 1261 622 1265 q 658 1246 658 1257 q 649 1224 658 1238 q 614 1179 639 1210 q 583 1139 601 1163 q 536 1079 564 1115 q 503 1053 524 1063 q 436 1044 482 1044 z "},"Ň":{"ha":819,"x_min":39,"x_max":807,"o":"m 114 -3 q 39 42 32 -3 l 132 931 q 217 975 136 975 l 253 975 q 295 967 279 975 q 321 936 311 960 l 519 469 q 556 361 539 424 l 561 364 q 558 431 558 408 q 561 474 558 446 l 613 931 q 697 975 617 975 l 731 975 q 807 931 811 975 l 714 42 q 628 -3 707 -3 l 601 -3 q 557 6 574 -3 q 531 36 540 14 l 319 522 q 302 572 310 543 q 292 611 294 600 l 283 607 q 286 581 285 596 q 288 547 288 567 q 285 513 288 535 l 233 42 q 147 -3 229 -3 l 114 -3 m 479 1040 q 431 1045 447 1040 q 406 1067 414 1050 l 338 1206 q 331 1229 331 1222 q 361 1243 332 1243 l 399 1243 q 441 1237 425 1243 q 465 1217 457 1231 l 494 1154 l 538 1218 q 611 1243 553 1243 l 650 1243 q 676 1229 678 1243 q 664 1206 676 1224 l 567 1067 q 536 1045 554 1050 q 488 1040 518 1040 l 479 1040 z "},"Ņ":{"ha":819,"x_min":39,"x_max":807,"o":"m 114 -3 q 39 42 32 -3 l 132 931 q 217 975 136 975 l 253 975 q 295 967 279 975 q 321 936 311 960 l 519 469 q 556 361 539 424 l 561 364 q 558 431 558 408 q 561 474 558 446 l 613 931 q 697 975 617 975 l 731 975 q 807 931 811 975 l 714 42 q 628 -3 707 -3 l 601 -3 q 557 6 574 -3 q 531 36 540 14 l 319 522 q 302 572 310 543 q 292 611 294 600 l 283 607 q 286 581 285 596 q 288 547 288 567 q 285 513 288 535 l 233 42 q 147 -3 229 -3 l 114 -3 m 346 -333 q 304 -326 324 -333 q 285 -303 285 -318 q 288 -274 285 -299 q 299 -132 299 -203 q 379 -71 299 -71 l 407 -71 q 469 -132 469 -71 q 448 -223 469 -176 q 397 -301 426 -269 q 346 -333 367 -333 z "},"Ṅ":{"ha":819,"x_min":39,"x_max":807,"o":"m 114 -3 q 39 42 32 -3 l 132 931 q 217 975 136 975 l 253 975 q 295 967 279 975 q 321 936 311 960 l 519 469 q 556 361 539 424 l 561 364 q 558 431 558 408 q 561 474 558 446 l 613 931 q 697 975 617 975 l 731 975 q 807 931 811 975 l 714 42 q 628 -3 707 -3 l 601 -3 q 557 6 574 -3 q 531 36 540 14 l 319 522 q 302 572 310 543 q 292 611 294 600 l 283 607 q 286 581 285 596 q 288 547 288 567 q 285 513 288 535 l 233 42 q 147 -3 229 -3 l 114 -3 m 486 1049 q 394 1093 388 1049 l 403 1176 q 500 1221 407 1221 q 593 1176 597 1221 l 585 1093 q 486 1049 578 1049 z "},"Ŋ":{"ha":819,"x_min":32,"x_max":811,"o":"m 731 975 q 807 931 811 975 l 701 -69 q 633 -237 690 -179 q 492 -294 575 -294 q 394 -281 426 -294 q 363 -232 363 -267 q 378 -166 363 -206 q 415 -126 394 -126 q 435 -129 422 -126 q 457 -132 449 -132 q 484 -118 475 -132 q 496 -72 493 -104 l 513 78 l 319 522 q 302 572 310 543 q 292 611 294 600 l 283 607 q 286 581 285 596 q 288 547 288 567 q 285 513 288 535 l 233 42 q 147 -3 229 -3 l 114 -3 q 39 42 32 -3 l 132 931 q 217 975 136 975 l 253 975 q 295 967 279 975 q 321 936 311 960 l 519 469 q 556 361 539 424 l 561 364 q 558 431 558 408 q 561 474 558 446 l 613 931 q 697 975 617 975 l 731 975 z "},"ǋ":{"ha":1165,"x_min":39,"x_max":1142,"o":"m 114 -3 q 39 42 32 -3 l 132 931 q 217 975 136 975 l 253 975 q 295 967 279 975 q 321 936 311 960 l 519 469 q 556 361 539 424 l 561 364 q 558 431 558 408 q 561 474 558 446 l 613 931 q 697 975 617 975 l 731 975 q 807 931 811 975 l 714 42 q 628 -3 707 -3 l 601 -3 q 557 6 574 -3 q 531 36 540 14 l 319 522 q 302 572 310 543 q 292 611 294 600 l 283 607 q 286 581 285 596 q 288 547 288 567 q 285 513 288 535 l 233 42 q 147 -3 229 -3 l 114 -3 m 838 -294 q 740 -281 772 -294 q 708 -232 708 -267 q 724 -166 708 -206 q 761 -126 740 -126 q 781 -129 768 -126 q 803 -132 794 -132 q 830 -118 821 -132 q 842 -72 839 -104 l 921 685 q 1010 729 928 729 l 1049 729 q 1126 685 1133 729 l 1047 -69 q 978 -237 1036 -179 q 838 -294 921 -294 m 1035 803 q 943 847 936 803 l 951 931 q 1049 975 956 975 q 1142 931 1146 975 l 1133 847 q 1035 803 1126 803 z "},"Ñ":{"ha":819,"x_min":39,"x_max":807,"o":"m 114 -3 q 39 42 32 -3 l 132 931 q 217 975 136 975 l 253 975 q 295 967 279 975 q 321 936 311 960 l 519 469 q 556 361 539 424 l 561 364 q 558 431 558 408 q 561 474 558 446 l 613 931 q 697 975 617 975 l 731 975 q 807 931 811 975 l 714 42 q 628 -3 707 -3 l 601 -3 q 557 6 574 -3 q 531 36 540 14 l 319 522 q 302 572 310 543 q 292 611 294 600 l 283 607 q 286 581 285 596 q 288 547 288 567 q 285 513 288 535 l 233 42 q 147 -3 229 -3 l 114 -3 m 286 1056 q 254 1092 254 1064 q 260 1114 254 1101 q 308 1183 275 1156 q 385 1210 340 1210 q 476 1188 413 1210 q 510 1177 486 1185 q 546 1169 533 1169 q 582 1192 564 1169 q 599 1210 590 1204 q 619 1215 607 1215 q 639 1213 625 1215 l 653 1208 q 685 1172 685 1199 q 681 1151 685 1168 q 631 1082 665 1110 q 554 1054 597 1054 q 464 1076 528 1054 q 431 1087 456 1079 q 393 1094 406 1094 q 358 1072 374 1094 q 340 1054 349 1060 q 319 1049 331 1049 q 301 1051 313 1049 l 286 1056 z "},"O":{"ha":832,"x_min":60,"x_max":797,"o":"m 376 -11 q 144 85 229 -11 q 60 379 60 182 q 65 486 60 436 q 194 864 92 744 q 482 983 296 983 q 714 888 631 983 q 797 596 797 792 q 792 486 797 538 q 664 108 765 228 q 376 -11 563 -11 m 397 171 q 481 199 447 171 q 537 295 514 226 q 572 486 560 364 q 581 615 581 561 q 552 758 581 717 q 464 800 524 800 q 380 772 414 800 q 322 676 346 744 q 286 486 299 607 q 278 360 278 414 q 308 213 278 256 q 397 171 338 171 z "},"Ó":{"ha":832,"x_min":60,"x_max":797,"o":"m 376 -11 q 144 85 229 -11 q 60 379 60 182 q 65 486 60 436 q 194 864 92 744 q 482 983 296 983 q 714 888 631 983 q 797 596 797 792 q 792 486 797 538 q 664 108 765 228 q 376 -11 563 -11 m 397 171 q 481 199 447 171 q 537 295 514 226 q 572 486 560 364 q 581 615 581 561 q 552 758 581 717 q 464 800 524 800 q 380 772 414 800 q 322 676 346 744 q 286 486 299 607 q 278 360 278 414 q 308 213 278 256 q 397 171 338 171 m 440 1044 q 408 1049 417 1044 q 400 1065 400 1054 q 409 1093 400 1074 q 435 1143 418 1113 l 478 1228 q 588 1265 497 1265 q 644 1261 626 1265 q 663 1246 663 1257 q 653 1224 663 1238 q 618 1179 643 1210 q 587 1139 606 1163 q 540 1079 568 1115 q 507 1053 528 1063 q 440 1044 486 1044 z "},"Ŏ":{"ha":832,"x_min":60,"x_max":797,"o":"m 376 -11 q 144 85 229 -11 q 60 379 60 182 q 65 486 60 436 q 194 864 92 744 q 482 983 296 983 q 714 888 631 983 q 797 596 797 792 q 792 486 797 538 q 664 108 765 228 q 376 -11 563 -11 m 397 171 q 481 199 447 171 q 537 295 514 226 q 572 486 560 364 q 581 615 581 561 q 552 758 581 717 q 464 800 524 800 q 380 772 414 800 q 322 676 346 744 q 286 486 299 607 q 278 360 278 414 q 308 213 278 256 q 397 171 338 171 m 488 1044 q 364 1084 406 1044 q 322 1178 322 1124 q 383 1239 322 1239 q 422 1214 413 1239 q 429 1199 424 1211 q 453 1178 435 1186 q 503 1171 471 1171 q 562 1182 544 1171 q 585 1203 579 1193 q 593 1217 592 1214 q 610 1233 599 1226 q 635 1239 621 1239 q 685 1192 690 1239 q 628 1090 679 1135 q 488 1044 576 1044 z "},"Ô":{"ha":832,"x_min":60,"x_max":797,"o":"m 376 -11 q 144 85 229 -11 q 60 379 60 182 q 65 486 60 436 q 194 864 92 744 q 482 983 296 983 q 714 888 631 983 q 797 596 797 792 q 792 486 797 538 q 664 108 765 228 q 376 -11 563 -11 m 397 171 q 481 199 447 171 q 537 295 514 226 q 572 486 560 364 q 581 615 581 561 q 552 758 581 717 q 464 800 524 800 q 380 772 414 800 q 322 676 346 744 q 286 486 299 607 q 278 360 278 414 q 308 213 278 256 q 397 171 338 171 m 343 1040 q 315 1054 314 1040 q 326 1078 315 1058 l 424 1217 q 455 1238 436 1233 q 506 1243 474 1243 l 508 1243 q 558 1238 540 1243 q 585 1217 576 1233 l 653 1078 q 661 1054 661 1064 q 632 1040 660 1040 l 593 1040 q 525 1065 535 1040 l 494 1129 l 453 1067 q 424 1047 442 1053 q 381 1040 407 1040 l 343 1040 z "},"Ố":{"ha":832,"x_min":60,"x_max":826,"o":"m 647 1185 q 624 1190 631 1185 q 618 1206 618 1194 q 638 1264 618 1215 l 667 1340 q 771 1378 686 1378 q 813 1371 800 1378 q 826 1344 826 1364 q 809 1311 826 1335 q 724 1206 792 1288 q 697 1190 714 1196 q 647 1185 681 1185 m 353 1040 q 330 1043 336 1040 q 325 1054 324 1046 q 328 1066 325 1060 q 333 1075 332 1072 l 426 1217 q 456 1238 438 1233 q 508 1243 475 1243 l 511 1243 q 562 1238 544 1243 q 586 1217 579 1233 l 649 1075 q 654 1054 654 1064 q 625 1040 653 1040 l 588 1040 q 518 1065 528 1040 l 497 1129 l 463 1067 q 435 1045 453 1050 q 390 1040 417 1040 l 353 1040 m 376 -11 q 144 85 229 -11 q 60 379 60 182 q 65 486 60 436 q 194 864 92 744 q 482 983 296 983 q 714 888 631 983 q 797 596 797 792 q 792 486 797 538 q 664 108 765 228 q 376 -11 563 -11 m 397 171 q 481 199 447 171 q 537 295 514 226 q 572 486 560 364 q 581 615 581 561 q 552 758 581 717 q 464 800 524 800 q 380 772 414 800 q 322 676 346 744 q 286 486 299 607 q 278 360 278 414 q 308 213 278 256 q 397 171 338 171 z "},"Ộ":{"ha":832,"x_min":60,"x_max":797,"o":"m 376 -11 q 144 85 229 -11 q 60 379 60 182 q 65 486 60 436 q 194 864 92 744 q 482 983 296 983 q 714 888 631 983 q 797 596 797 792 q 792 486 797 538 q 664 108 765 228 q 376 -11 563 -11 m 397 171 q 481 199 447 171 q 537 295 514 226 q 572 486 560 364 q 581 615 581 561 q 552 758 581 717 q 464 800 524 800 q 380 772 414 800 q 322 676 346 744 q 286 486 299 607 q 278 360 278 414 q 308 213 278 256 q 397 171 338 171 m 350 -283 q 258 -239 251 -283 l 267 -156 q 364 -111 271 -111 q 457 -156 461 -111 l 449 -239 q 350 -283 442 -283 m 343 1040 q 315 1054 314 1040 q 326 1078 315 1058 l 424 1217 q 455 1238 436 1233 q 506 1243 474 1243 l 508 1243 q 558 1238 540 1243 q 585 1217 576 1233 l 653 1078 q 661 1054 661 1064 q 632 1040 660 1040 l 593 1040 q 525 1065 535 1040 l 494 1129 l 453 1067 q 424 1047 442 1053 q 381 1040 407 1040 l 343 1040 z "},"Ồ":{"ha":832,"x_min":60,"x_max":797,"o":"m 718 1185 q 666 1192 683 1185 q 638 1211 649 1199 l 611 1244 q 549 1324 561 1307 q 536 1350 536 1340 q 551 1372 536 1365 q 596 1378 565 1378 q 706 1340 688 1378 q 740 1248 728 1282 q 753 1206 753 1214 q 746 1190 753 1194 q 718 1185 739 1185 m 353 1040 q 330 1043 336 1040 q 325 1054 324 1046 q 328 1066 325 1060 q 333 1075 332 1072 l 426 1217 q 456 1238 438 1233 q 508 1243 475 1243 l 511 1243 q 562 1238 544 1243 q 586 1217 579 1233 l 649 1075 q 654 1054 654 1064 q 625 1040 653 1040 l 588 1040 q 518 1065 528 1040 l 497 1129 l 463 1067 q 435 1045 453 1050 q 390 1040 417 1040 l 353 1040 m 376 -11 q 144 85 229 -11 q 60 379 60 182 q 65 486 60 436 q 194 864 92 744 q 482 983 296 983 q 714 888 631 983 q 797 596 797 792 q 792 486 797 538 q 664 108 765 228 q 376 -11 563 -11 m 397 171 q 481 199 447 171 q 537 295 514 226 q 572 486 560 364 q 581 615 581 561 q 552 758 581 717 q 464 800 524 800 q 380 772 414 800 q 322 676 346 744 q 286 486 299 607 q 278 360 278 414 q 308 213 278 256 q 397 171 338 171 z "},"Ổ":{"ha":832,"x_min":60,"x_max":797,"o":"m 681 1196 q 636 1204 653 1196 q 619 1225 619 1213 q 628 1235 619 1229 q 646 1247 636 1242 q 680 1266 671 1258 q 689 1286 689 1274 q 680 1303 689 1297 q 660 1310 671 1310 q 610 1298 629 1310 q 586 1286 590 1286 q 561 1308 578 1286 q 544 1344 544 1329 q 581 1371 544 1358 q 656 1383 618 1383 q 750 1358 715 1383 q 785 1292 785 1333 q 749 1226 785 1256 q 715 1206 735 1215 q 681 1196 696 1196 m 353 1040 q 330 1043 336 1040 q 325 1054 324 1046 q 328 1066 325 1060 q 333 1075 332 1072 l 426 1217 q 456 1238 438 1233 q 508 1243 475 1243 l 511 1243 q 562 1238 544 1243 q 586 1217 579 1233 l 649 1075 q 654 1054 654 1064 q 625 1040 653 1040 l 588 1040 q 518 1065 528 1040 l 497 1129 l 463 1067 q 435 1045 453 1050 q 390 1040 417 1040 l 353 1040 m 376 -11 q 144 85 229 -11 q 60 379 60 182 q 65 486 60 436 q 194 864 92 744 q 482 983 296 983 q 714 888 631 983 q 797 596 797 792 q 792 486 797 538 q 664 108 765 228 q 376 -11 563 -11 m 397 171 q 481 199 447 171 q 537 295 514 226 q 572 486 560 364 q 581 615 581 561 q 552 758 581 717 q 464 800 524 800 q 380 772 414 800 q 322 676 346 744 q 286 486 299 607 q 278 360 278 414 q 308 213 278 256 q 397 171 338 171 z "},"Ỗ":{"ha":832,"x_min":60,"x_max":797,"o":"m 344 1242 q 322 1256 329 1246 q 315 1278 315 1267 q 319 1300 315 1286 q 363 1369 333 1343 q 433 1396 393 1396 q 517 1374 458 1396 q 547 1363 525 1371 q 581 1356 568 1356 q 613 1378 596 1356 q 628 1396 621 1390 q 647 1401 636 1401 q 664 1399 653 1401 l 678 1394 q 706 1358 706 1385 q 703 1338 706 1349 q 658 1268 689 1296 q 588 1240 626 1240 q 506 1263 564 1240 q 478 1272 500 1264 q 442 1281 456 1281 q 410 1258 424 1281 q 375 1235 393 1235 q 358 1238 369 1235 l 344 1242 m 353 1040 q 330 1043 336 1040 q 325 1054 324 1046 q 331 1068 326 1060 q 340 1083 335 1076 l 422 1186 q 453 1207 435 1201 q 506 1213 471 1213 l 508 1213 q 558 1207 542 1213 q 585 1186 575 1201 l 644 1083 q 654 1054 654 1061 q 625 1040 651 1040 l 586 1040 q 544 1046 557 1040 q 519 1065 531 1051 l 497 1121 l 460 1067 q 431 1046 443 1051 q 390 1040 418 1040 l 353 1040 m 376 -11 q 144 85 229 -11 q 60 379 60 182 q 65 486 60 436 q 194 864 92 744 q 482 983 296 983 q 714 888 631 983 q 797 596 797 792 q 792 486 797 538 q 664 108 765 228 q 376 -11 563 -11 m 397 171 q 481 199 447 171 q 537 295 514 226 q 572 486 560 364 q 581 615 581 561 q 552 758 581 717 q 464 800 524 800 q 380 772 414 800 q 322 676 346 744 q 286 486 299 607 q 278 360 278 414 q 308 213 278 256 q 397 171 338 171 z "},"Ö":{"ha":832,"x_min":60,"x_max":797,"o":"m 376 -11 q 144 85 229 -11 q 60 379 60 182 q 65 486 60 436 q 194 864 92 744 q 482 983 296 983 q 714 888 631 983 q 797 596 797 792 q 792 486 797 538 q 664 108 765 228 q 376 -11 563 -11 m 397 171 q 481 199 447 171 q 537 295 514 226 q 572 486 560 364 q 581 615 581 561 q 552 758 581 717 q 464 800 524 800 q 380 772 414 800 q 322 676 346 744 q 286 486 299 607 q 278 360 278 414 q 308 213 278 256 q 397 171 338 171 m 378 1049 q 303 1093 296 1049 l 311 1176 q 393 1221 315 1221 q 469 1176 474 1221 l 461 1093 q 378 1049 454 1049 m 603 1049 q 528 1093 521 1049 l 536 1176 q 618 1221 540 1221 q 694 1176 699 1221 l 686 1093 q 603 1049 679 1049 z "},"Ọ":{"ha":832,"x_min":60,"x_max":797,"o":"m 376 -11 q 144 85 229 -11 q 60 379 60 182 q 65 486 60 436 q 194 864 92 744 q 482 983 296 983 q 714 888 631 983 q 797 596 797 792 q 792 486 797 538 q 664 108 765 228 q 376 -11 563 -11 m 397 171 q 481 199 447 171 q 537 295 514 226 q 572 486 560 364 q 581 615 581 561 q 552 758 581 717 q 464 800 524 800 q 380 772 414 800 q 322 676 346 744 q 286 486 299 607 q 278 360 278 414 q 308 213 278 256 q 397 171 338 171 m 350 -283 q 258 -239 251 -283 l 267 -156 q 364 -111 271 -111 q 457 -156 461 -111 l 449 -239 q 350 -283 442 -283 z "},"Ò":{"ha":832,"x_min":60,"x_max":797,"o":"m 376 -11 q 144 85 229 -11 q 60 379 60 182 q 65 486 60 436 q 194 864 92 744 q 482 983 296 983 q 714 888 631 983 q 797 596 797 792 q 792 486 797 538 q 664 108 765 228 q 376 -11 563 -11 m 397 171 q 481 199 447 171 q 537 295 514 226 q 572 486 560 364 q 581 615 581 561 q 552 758 581 717 q 464 800 524 800 q 380 772 414 800 q 322 676 346 744 q 286 486 299 607 q 278 360 278 414 q 308 213 278 256 q 397 171 338 171 m 524 1044 q 457 1054 478 1044 q 425 1079 436 1064 l 354 1168 q 313 1221 325 1204 q 301 1246 301 1238 q 319 1261 301 1257 q 376 1265 338 1265 q 488 1228 467 1265 q 544 1117 525 1157 q 564 1065 564 1076 q 556 1049 564 1053 q 524 1044 547 1044 z "},"Ỏ":{"ha":832,"x_min":60,"x_max":797,"o":"m 376 -11 q 144 85 229 -11 q 60 379 60 182 q 65 486 60 436 q 194 864 92 744 q 482 983 296 983 q 714 888 631 983 q 797 596 797 792 q 792 486 797 538 q 664 108 765 228 q 376 -11 563 -11 m 397 171 q 481 199 447 171 q 537 295 514 226 q 572 486 560 364 q 581 615 581 561 q 552 758 581 717 q 464 800 524 800 q 380 772 414 800 q 322 676 346 744 q 286 486 299 607 q 278 360 278 414 q 308 213 278 256 q 397 171 338 171 m 514 1038 q 465 1049 490 1038 q 439 1069 439 1061 q 475 1107 439 1081 q 517 1142 501 1126 q 532 1174 532 1158 q 519 1196 532 1188 q 488 1204 506 1204 q 452 1196 469 1204 q 429 1188 435 1188 q 404 1209 421 1188 q 388 1246 388 1231 q 425 1274 388 1260 q 499 1289 463 1289 q 613 1260 572 1289 q 653 1179 653 1231 q 625 1113 653 1146 q 563 1059 597 1081 q 514 1038 528 1038 z "},"Ơ":{"ha":832,"x_min":60,"x_max":894,"o":"m 894 975 q 858 883 894 917 q 744 844 821 849 q 797 596 797 751 q 792 486 797 538 q 664 108 765 228 q 376 -11 563 -11 q 144 85 229 -11 q 60 379 60 182 q 65 486 60 436 q 192 861 92 739 q 479 983 293 983 q 579 970 538 983 q 667 931 621 957 q 739 904 711 904 q 774 916 761 904 q 786 950 786 928 q 780 975 786 964 q 763 1000 774 986 q 747 1026 747 1018 q 763 1053 747 1043 l 807 1083 q 829 1090 815 1090 q 874 1050 854 1090 q 894 975 894 1010 m 572 486 q 581 615 581 561 q 552 758 581 717 q 464 800 524 800 q 380 772 414 800 q 322 676 346 744 q 286 486 299 607 q 278 360 278 414 q 308 213 278 256 q 397 171 338 171 q 481 199 447 171 q 537 295 514 226 q 572 486 560 364 z "},"Ớ":{"ha":832,"x_min":60,"x_max":894,"o":"m 894 975 q 858 883 894 917 q 744 844 821 849 q 797 596 797 751 q 792 486 797 538 q 664 108 765 228 q 376 -11 563 -11 q 144 85 229 -11 q 60 379 60 182 q 65 486 60 436 q 192 861 92 739 q 479 983 293 983 q 579 970 538 983 q 667 931 621 957 q 739 904 711 904 q 774 916 761 904 q 786 950 786 928 q 780 975 786 964 q 763 1000 774 986 q 747 1026 747 1018 q 763 1053 747 1043 l 807 1083 q 829 1090 815 1090 q 874 1050 854 1090 q 894 975 894 1010 m 572 486 q 581 615 581 561 q 552 758 581 717 q 464 800 524 800 q 380 772 414 800 q 322 676 346 744 q 286 486 299 607 q 278 360 278 414 q 308 213 278 256 q 397 171 338 171 q 481 199 447 171 q 537 295 514 226 q 572 486 560 364 m 451 1044 q 419 1049 428 1044 q 411 1065 411 1054 q 420 1093 411 1074 q 446 1143 429 1113 l 489 1228 q 599 1265 508 1265 q 656 1261 638 1265 q 674 1246 674 1257 q 664 1224 674 1238 q 629 1179 654 1210 q 598 1139 617 1163 q 551 1079 579 1115 q 518 1053 539 1063 q 451 1044 497 1044 z "},"Ợ":{"ha":832,"x_min":60,"x_max":894,"o":"m 894 975 q 858 883 894 917 q 744 844 821 849 q 797 596 797 751 q 792 486 797 538 q 664 108 765 228 q 376 -11 563 -11 q 144 85 229 -11 q 60 379 60 182 q 65 486 60 436 q 192 861 92 739 q 479 983 293 983 q 579 970 538 983 q 667 931 621 957 q 739 904 711 904 q 774 916 761 904 q 786 950 786 928 q 780 975 786 964 q 763 1000 774 986 q 747 1026 747 1018 q 763 1053 747 1043 l 807 1083 q 829 1090 815 1090 q 874 1050 854 1090 q 894 975 894 1010 m 572 486 q 581 615 581 561 q 552 758 581 717 q 464 800 524 800 q 380 772 414 800 q 322 676 346 744 q 286 486 299 607 q 278 360 278 414 q 308 213 278 256 q 397 171 338 171 q 481 199 447 171 q 537 295 514 226 q 572 486 560 364 m 350 -283 q 258 -239 251 -283 l 267 -156 q 364 -111 271 -111 q 457 -156 461 -111 l 449 -239 q 350 -283 442 -283 z "},"Ờ":{"ha":832,"x_min":60,"x_max":894,"o":"m 894 975 q 858 883 894 917 q 744 844 821 849 q 797 596 797 751 q 792 486 797 538 q 664 108 765 228 q 376 -11 563 -11 q 144 85 229 -11 q 60 379 60 182 q 65 486 60 436 q 192 861 92 739 q 479 983 293 983 q 579 970 538 983 q 667 931 621 957 q 739 904 711 904 q 774 916 761 904 q 786 950 786 928 q 780 975 786 964 q 763 1000 774 986 q 747 1026 747 1018 q 763 1053 747 1043 l 807 1083 q 829 1090 815 1090 q 874 1050 854 1090 q 894 975 894 1010 m 572 486 q 581 615 581 561 q 552 758 581 717 q 464 800 524 800 q 380 772 414 800 q 322 676 346 744 q 286 486 299 607 q 278 360 278 414 q 308 213 278 256 q 397 171 338 171 q 481 199 447 171 q 537 295 514 226 q 572 486 560 364 m 524 1044 q 457 1054 478 1044 q 425 1079 436 1064 l 354 1168 q 313 1221 325 1204 q 301 1246 301 1238 q 319 1261 301 1257 q 376 1265 338 1265 q 488 1228 467 1265 q 544 1117 525 1157 q 564 1065 564 1076 q 556 1049 564 1053 q 524 1044 547 1044 z "},"Ở":{"ha":832,"x_min":60,"x_max":894,"o":"m 894 975 q 858 883 894 917 q 744 844 821 849 q 797 596 797 751 q 792 486 797 538 q 664 108 765 228 q 376 -11 563 -11 q 144 85 229 -11 q 60 379 60 182 q 65 486 60 436 q 192 861 92 739 q 479 983 293 983 q 579 970 538 983 q 667 931 621 957 q 739 904 711 904 q 774 916 761 904 q 786 950 786 928 q 780 975 786 964 q 763 1000 774 986 q 747 1026 747 1018 q 763 1053 747 1043 l 807 1083 q 829 1090 815 1090 q 874 1050 854 1090 q 894 975 894 1010 m 572 486 q 581 615 581 561 q 552 758 581 717 q 464 800 524 800 q 380 772 414 800 q 322 676 346 744 q 286 486 299 607 q 278 360 278 414 q 308 213 278 256 q 397 171 338 171 q 481 199 447 171 q 537 295 514 226 q 572 486 560 364 m 514 1038 q 465 1049 490 1038 q 439 1069 439 1061 q 475 1107 439 1081 q 517 1142 501 1126 q 532 1174 532 1158 q 519 1196 532 1188 q 488 1204 506 1204 q 452 1196 469 1204 q 429 1188 435 1188 q 404 1209 421 1188 q 388 1246 388 1231 q 425 1274 388 1260 q 499 1289 463 1289 q 613 1260 572 1289 q 653 1179 653 1231 q 625 1113 653 1146 q 563 1059 597 1081 q 514 1038 528 1038 z "},"Ỡ":{"ha":832,"x_min":60,"x_max":894,"o":"m 310 1056 q 288 1070 294 1060 q 281 1092 281 1081 q 286 1114 281 1101 q 330 1183 301 1157 q 399 1210 358 1210 q 482 1188 424 1210 q 543 1169 526 1169 q 576 1192 560 1169 q 591 1210 583 1204 q 610 1215 599 1215 q 628 1213 614 1215 l 640 1208 q 668 1172 668 1199 q 665 1151 668 1163 q 621 1082 651 1110 q 551 1054 590 1054 q 469 1076 528 1054 q 442 1086 464 1078 q 406 1094 419 1094 q 375 1072 389 1094 q 340 1049 358 1049 q 324 1051 335 1049 l 310 1056 m 894 975 q 858 883 894 917 q 744 844 821 849 q 797 596 797 751 q 792 486 797 538 q 664 108 765 228 q 376 -11 563 -11 q 144 85 229 -11 q 60 379 60 182 q 65 486 60 436 q 192 861 92 739 q 479 983 293 983 q 579 970 538 983 q 667 931 621 957 q 739 904 711 904 q 774 916 761 904 q 786 950 786 928 q 780 975 786 964 q 763 1000 774 986 q 747 1026 747 1018 q 763 1053 747 1043 l 807 1083 q 829 1090 815 1090 q 874 1050 854 1090 q 894 975 894 1010 m 572 486 q 581 615 581 561 q 552 758 581 717 q 464 800 524 800 q 380 772 414 800 q 322 676 346 744 q 286 486 299 607 q 278 360 278 414 q 308 213 278 256 q 397 171 338 171 q 481 199 447 171 q 537 295 514 226 q 572 486 560 364 z "},"Ő":{"ha":832,"x_min":60,"x_max":799,"o":"m 376 -11 q 144 85 229 -11 q 60 379 60 182 q 65 486 60 436 q 194 864 92 744 q 482 983 296 983 q 714 888 631 983 q 797 596 797 792 q 792 486 797 538 q 664 108 765 228 q 376 -11 563 -11 m 397 171 q 481 199 447 171 q 537 295 514 226 q 572 486 560 364 q 581 615 581 561 q 552 758 581 717 q 464 800 524 800 q 380 772 414 800 q 322 676 346 744 q 286 486 299 607 q 278 360 278 414 q 308 213 278 256 q 397 171 338 171 m 347 1044 q 315 1049 324 1044 q 307 1065 307 1053 q 329 1118 307 1074 q 383 1228 351 1160 q 494 1265 401 1265 q 551 1261 533 1265 q 569 1246 569 1257 q 560 1224 569 1238 q 526 1179 550 1210 q 449 1079 496 1143 q 414 1053 435 1063 q 347 1044 393 1044 m 576 1044 q 544 1049 553 1044 q 536 1065 536 1054 q 547 1093 536 1072 q 560 1119 557 1114 l 614 1228 q 724 1265 632 1265 q 781 1261 763 1265 q 799 1246 799 1257 q 789 1224 799 1238 q 754 1179 779 1210 q 723 1139 742 1163 q 676 1079 704 1115 q 644 1053 664 1063 q 576 1044 624 1044 z "},"Ō":{"ha":832,"x_min":60,"x_max":797,"o":"m 376 -11 q 144 85 229 -11 q 60 379 60 182 q 65 486 60 436 q 194 864 92 744 q 482 983 296 983 q 714 888 631 983 q 797 596 797 792 q 792 486 797 538 q 664 108 765 228 q 376 -11 563 -11 m 397 171 q 481 199 447 171 q 537 295 514 226 q 572 486 560 364 q 581 615 581 561 q 552 758 581 717 q 464 800 524 800 q 380 772 414 800 q 322 676 346 744 q 286 486 299 607 q 278 360 278 414 q 308 213 278 256 q 397 171 338 171 m 358 1075 q 329 1088 338 1075 q 324 1131 321 1101 l 326 1151 q 340 1194 329 1181 q 372 1207 351 1207 l 638 1207 q 674 1167 674 1207 l 672 1151 l 669 1131 q 657 1088 668 1101 q 624 1075 646 1075 l 358 1075 z "},"Ǫ":{"ha":832,"x_min":60,"x_max":797,"o":"m 482 983 q 714 888 631 983 q 797 596 797 792 q 792 486 797 538 q 693 148 769 267 q 481 0 617 29 q 460 -97 460 -47 q 528 -158 460 -158 q 547 -156 539 -158 q 561 -153 556 -153 q 593 -162 583 -153 q 603 -194 603 -171 q 579 -237 603 -224 q 501 -254 544 -254 q 394 -212 422 -254 q 367 -124 367 -171 q 393 -11 367 -68 l 376 -11 q 144 85 229 -11 q 60 379 60 182 q 65 486 60 436 q 194 864 92 744 q 482 983 296 983 m 572 486 q 581 615 581 561 q 552 758 581 717 q 464 800 524 800 q 380 772 414 800 q 322 676 346 744 q 286 486 299 607 q 278 360 278 414 q 308 213 278 256 q 397 171 338 171 q 481 199 447 171 q 537 295 514 226 q 572 486 560 364 z "},"Ø":{"ha":832,"x_min":54,"x_max":797,"o":"m 732 865 q 797 594 797 765 q 792 486 797 538 q 664 108 765 228 q 376 -11 563 -11 q 192 42 265 -11 l 158 -10 q 125 -32 144 -32 q 80 -12 106 -32 q 54 25 54 7 q 64 50 54 36 l 115 128 q 60 379 60 222 q 65 486 60 436 q 194 864 92 744 q 482 983 296 983 q 650 943 578 983 l 682 992 q 697 1008 690 1003 q 714 1014 704 1014 q 759 994 733 1014 q 785 957 785 975 q 775 931 785 943 l 732 865 m 286 486 q 279 376 279 417 l 539 774 q 464 800 514 800 q 380 772 414 800 q 322 676 346 744 q 286 486 299 607 m 572 486 q 581 633 581 556 l 306 215 q 397 171 335 171 q 481 199 447 171 q 537 295 514 226 q 572 486 560 364 z "},"Ǿ":{"ha":832,"x_min":54,"x_max":797,"o":"m 732 865 q 797 594 797 765 q 792 486 797 538 q 664 108 765 228 q 376 -11 563 -11 q 192 42 265 -11 l 158 -10 q 125 -32 144 -32 q 80 -12 106 -32 q 54 25 54 7 q 64 50 54 36 l 115 128 q 60 379 60 222 q 65 486 60 436 q 194 864 92 744 q 482 983 296 983 q 650 943 578 983 l 682 992 q 697 1008 690 1003 q 714 1014 704 1014 q 759 994 733 1014 q 785 957 785 975 q 775 931 785 943 l 732 865 m 286 486 q 279 376 279 417 l 539 774 q 464 800 514 800 q 380 772 414 800 q 322 676 346 744 q 286 486 299 607 m 572 486 q 581 633 581 556 l 306 215 q 397 171 335 171 q 481 199 447 171 q 537 295 514 226 q 572 486 560 364 m 436 1044 q 404 1049 413 1044 q 396 1065 396 1054 q 405 1093 396 1074 q 431 1143 414 1113 l 474 1228 q 583 1265 493 1265 q 640 1261 622 1265 q 658 1246 658 1257 q 649 1224 658 1238 q 614 1179 639 1210 q 583 1139 601 1163 q 536 1079 564 1115 q 503 1053 524 1063 q 436 1044 482 1044 z "},"Õ":{"ha":832,"x_min":60,"x_max":797,"o":"m 376 -11 q 144 85 229 -11 q 60 379 60 182 q 65 486 60 436 q 194 864 92 744 q 482 983 296 983 q 714 888 631 983 q 797 596 797 792 q 792 486 797 538 q 664 108 765 228 q 376 -11 563 -11 m 397 171 q 481 199 447 171 q 537 295 514 226 q 572 486 560 364 q 581 615 581 561 q 552 758 581 717 q 464 800 524 800 q 380 772 414 800 q 322 676 346 744 q 286 486 299 607 q 278 360 278 414 q 308 213 278 256 q 397 171 338 171 m 290 1056 q 258 1092 258 1064 q 264 1114 258 1101 q 312 1183 279 1156 q 389 1210 344 1210 q 481 1188 417 1210 q 514 1177 490 1185 q 550 1169 538 1169 q 586 1192 568 1169 q 603 1210 594 1204 q 624 1215 611 1215 q 643 1213 629 1215 l 657 1208 q 689 1172 689 1199 q 685 1151 689 1168 q 635 1082 669 1110 q 558 1054 601 1054 q 468 1076 532 1054 q 435 1087 460 1079 q 397 1094 410 1094 q 363 1072 378 1094 q 344 1054 353 1060 q 324 1049 335 1049 q 306 1051 317 1049 l 290 1056 z "},"Œ":{"ha":1143,"x_min":58,"x_max":1144,"o":"m 1110 972 q 1144 922 1144 972 l 1143 903 l 1139 860 q 1090 790 1133 790 l 824 790 l 803 589 l 1042 589 q 1076 539 1076 589 l 1075 519 l 1071 476 q 1022 407 1065 407 l 783 407 l 760 182 l 1028 182 q 1053 170 1046 182 q 1061 133 1061 158 l 1060 113 l 1056 69 q 1008 0 1050 0 l 575 0 q 529 36 531 0 q 343 -11 451 -11 q 136 85 214 -11 q 58 372 58 181 q 65 486 58 419 q 186 861 93 739 q 442 983 279 983 q 547 969 503 983 q 621 921 590 954 q 638 960 625 949 q 678 972 651 972 l 1110 972 m 397 171 q 481 199 447 171 q 537 295 514 226 q 572 486 560 364 q 581 615 581 561 q 552 758 581 717 q 464 800 524 800 q 380 772 414 800 q 322 676 346 744 q 286 486 299 607 q 278 360 278 414 q 308 213 278 256 q 397 171 338 171 z "},"P":{"ha":669,"x_min":42,"x_max":689,"o":"m 125 -3 q 46 42 42 -3 l 139 917 q 156 959 142 946 q 200 972 171 972 l 440 972 q 614 920 539 972 q 689 724 689 868 q 686 668 689 707 q 618 478 674 546 q 500 388 563 411 q 390 364 438 364 l 294 364 l 260 42 q 172 -3 256 -3 l 125 -3 m 385 543 q 444 571 417 543 q 478 668 471 599 q 479 696 479 678 q 459 769 479 747 q 411 790 439 790 l 338 790 l 311 543 l 385 543 z "},"Þ":{"ha":669,"x_min":36,"x_max":669,"o":"m 118 -3 q 43 42 36 -3 l 136 931 q 221 975 140 975 l 276 975 q 353 931 357 975 l 342 821 l 421 821 q 594 769 519 821 q 669 572 669 717 q 667 517 669 556 q 598 327 653 394 q 481 236 543 260 q 371 213 418 213 l 278 213 l 260 42 q 174 -3 253 -3 l 118 -3 m 365 392 q 425 419 399 392 q 458 517 451 447 q 460 546 460 526 q 440 618 460 597 q 392 639 421 639 l 322 639 l 296 392 l 365 392 z "},"Q":{"ha":832,"x_min":58,"x_max":797,"o":"m 654 -221 q 473 -129 639 -221 q 215 21 307 -37 q 99 156 139 69 q 58 378 58 243 q 64 486 58 435 q 192 864 90 744 q 481 983 294 983 q 715 889 633 983 q 797 600 797 794 q 790 486 797 553 q 538 36 750 139 l 536 31 l 747 -65 q 761 -90 764 -72 q 740 -135 758 -103 q 699 -194 722 -168 q 654 -221 675 -221 m 396 168 q 479 197 446 168 q 535 294 513 225 q 571 486 558 363 q 579 615 579 561 q 551 758 579 717 q 463 800 522 800 q 378 772 413 800 q 321 676 344 744 q 285 486 297 607 q 276 358 276 411 q 306 210 276 253 q 396 168 336 168 z "},"R":{"ha":713,"x_min":38,"x_max":685,"o":"m 121 -3 q 42 42 38 -3 l 135 917 q 152 959 138 946 q 196 972 167 972 l 428 972 q 615 919 544 972 q 685 746 685 867 q 682 699 685 732 q 525 464 665 535 l 525 458 q 574 403 553 442 q 603 319 596 364 l 657 53 l 660 36 q 569 -1 656 -1 l 521 -1 q 442 36 447 -1 l 396 300 q 372 343 388 331 q 322 356 357 356 l 289 356 l 256 42 q 168 -3 251 -3 l 121 -3 m 389 558 q 443 589 418 558 q 475 678 468 619 q 476 703 476 686 q 458 769 476 749 q 408 790 440 790 l 335 790 l 311 558 l 389 558 z "},"Ŕ":{"ha":713,"x_min":42,"x_max":685,"o":"m 121 -3 q 42 42 38 -3 l 135 917 q 152 959 138 946 q 196 972 167 972 l 428 972 q 615 919 544 972 q 685 746 685 867 q 682 699 685 732 q 525 464 665 535 l 525 458 q 574 403 553 442 q 603 319 596 364 l 657 53 l 660 36 q 569 -1 656 -1 l 521 -1 q 442 36 447 -1 l 396 300 q 372 343 388 331 q 322 356 357 356 l 289 356 l 256 42 q 168 -3 251 -3 l 121 -3 m 389 558 q 443 589 418 558 q 475 678 468 619 q 476 703 476 686 q 458 769 476 749 q 408 790 440 790 l 335 790 l 311 558 l 389 558 m 374 1044 q 342 1049 350 1044 q 333 1065 333 1054 q 342 1093 333 1074 q 368 1143 351 1113 l 411 1228 q 521 1265 431 1265 q 578 1261 560 1265 q 596 1246 596 1257 q 586 1224 596 1238 q 551 1179 576 1210 q 520 1139 539 1163 q 474 1079 501 1115 q 440 1053 461 1063 q 374 1044 419 1044 z "},"Ř":{"ha":713,"x_min":42,"x_max":685,"o":"m 121 -3 q 42 42 38 -3 l 135 917 q 152 959 138 946 q 196 972 167 972 l 428 972 q 615 919 544 972 q 685 746 685 867 q 682 699 685 732 q 525 464 665 535 l 525 458 q 574 403 553 442 q 603 319 596 364 l 657 53 l 660 36 q 569 -1 656 -1 l 521 -1 q 442 36 447 -1 l 396 300 q 372 343 388 331 q 322 356 357 356 l 289 356 l 256 42 q 168 -3 251 -3 l 121 -3 m 389 558 q 443 589 418 558 q 475 678 468 619 q 476 703 476 686 q 458 769 476 749 q 408 790 440 790 l 335 790 l 311 558 l 389 558 m 417 1040 q 368 1045 385 1040 q 343 1067 351 1050 l 275 1206 q 268 1229 268 1222 q 299 1243 269 1243 l 336 1243 q 378 1237 363 1243 q 403 1217 394 1231 l 432 1154 l 475 1218 q 549 1243 490 1243 l 588 1243 q 614 1229 615 1243 q 601 1206 614 1224 l 504 1067 q 474 1045 492 1050 q 425 1040 456 1040 l 417 1040 z "},"Ŗ":{"ha":713,"x_min":42,"x_max":685,"o":"m 121 -3 q 42 42 38 -3 l 135 917 q 152 959 138 946 q 196 972 167 972 l 428 972 q 615 919 544 972 q 685 746 685 867 q 682 699 685 732 q 525 464 665 535 l 525 458 q 574 403 553 442 q 603 319 596 364 l 657 53 l 660 36 q 569 -1 656 -1 l 521 -1 q 442 36 447 -1 l 396 300 q 372 343 388 331 q 322 356 357 356 l 289 356 l 256 42 q 168 -3 251 -3 l 121 -3 m 389 558 q 443 589 418 558 q 475 678 468 619 q 476 703 476 686 q 458 769 476 749 q 408 790 440 790 l 335 790 l 311 558 l 389 558 m 288 -333 q 246 -326 265 -333 q 226 -303 226 -318 q 229 -274 226 -299 q 240 -132 240 -203 q 321 -71 240 -71 l 349 -71 q 411 -132 411 -71 q 390 -223 411 -176 q 338 -301 368 -269 q 288 -333 308 -333 z "},"Ṛ":{"ha":713,"x_min":42,"x_max":685,"o":"m 121 -3 q 42 42 38 -3 l 135 917 q 152 959 138 946 q 196 972 167 972 l 428 972 q 615 919 544 972 q 685 746 685 867 q 682 699 685 732 q 525 464 665 535 l 525 458 q 574 403 553 442 q 603 319 596 364 l 657 53 l 660 36 q 569 -1 656 -1 l 521 -1 q 442 36 447 -1 l 396 300 q 372 343 388 331 q 322 356 357 356 l 289 356 l 256 42 q 168 -3 251 -3 l 121 -3 m 389 558 q 443 589 418 558 q 475 678 468 619 q 476 703 476 686 q 458 769 476 749 q 408 790 440 790 l 335 790 l 311 558 l 389 558 m 299 -283 q 207 -239 200 -283 l 215 -156 q 313 -111 219 -111 q 406 -156 410 -111 l 397 -239 q 299 -283 390 -283 z "},"S":{"ha":607,"x_min":4,"x_max":588,"o":"m 236 -11 q 97 11 161 -11 q 33 46 60 25 q 6 92 6 67 q 26 179 4 132 q 76 226 49 226 q 103 217 86 226 q 177 181 149 192 q 243 171 206 171 q 322 198 289 171 q 356 285 356 225 q 329 352 356 326 q 246 414 303 378 q 233 423 239 419 q 222 429 226 426 q 108 531 143 479 q 72 669 72 582 q 113 837 72 765 q 225 946 154 908 q 383 983 296 983 q 476 973 428 983 q 554 944 524 963 q 588 896 588 925 q 569 815 588 858 q 525 771 551 771 q 483 781 513 771 q 396 800 431 800 q 310 769 331 800 q 289 706 289 739 q 314 634 289 661 q 371 587 339 607 q 413 560 403 567 q 535 455 497 506 q 572 319 572 404 q 483 76 572 163 q 236 -11 393 -11 z "},"Ś":{"ha":607,"x_min":6,"x_max":588,"o":"m 236 -11 q 97 11 161 -11 q 33 46 60 25 q 6 92 6 67 q 26 179 4 132 q 76 226 49 226 q 103 217 86 226 q 177 181 149 192 q 243 171 206 171 q 322 198 289 171 q 356 285 356 225 q 329 352 356 326 q 246 414 303 378 q 233 423 239 419 q 222 429 226 426 q 108 531 143 479 q 72 669 72 582 q 113 837 72 765 q 225 946 154 908 q 383 983 296 983 q 476 973 428 983 q 554 944 524 963 q 588 896 588 925 q 569 815 588 858 q 525 771 551 771 q 483 781 513 771 q 396 800 431 800 q 310 769 331 800 q 289 706 289 739 q 314 634 289 661 q 371 587 339 607 q 413 560 403 567 q 535 455 497 506 q 572 319 572 404 q 483 76 572 163 q 236 -11 393 -11 m 326 1044 q 294 1049 303 1044 q 286 1065 286 1054 q 295 1093 286 1074 q 321 1143 304 1113 l 364 1228 q 474 1265 383 1265 q 531 1261 513 1265 q 549 1246 549 1257 q 539 1224 549 1238 q 504 1179 529 1210 q 473 1139 492 1163 q 426 1079 454 1115 q 393 1053 414 1063 q 326 1044 372 1044 z "},"Š":{"ha":607,"x_min":6,"x_max":588,"o":"m 236 -11 q 97 11 161 -11 q 33 46 60 25 q 6 92 6 67 q 26 179 4 132 q 76 226 49 226 q 103 217 86 226 q 177 181 149 192 q 243 171 206 171 q 322 198 289 171 q 356 285 356 225 q 329 352 356 326 q 246 414 303 378 q 233 423 239 419 q 222 429 226 426 q 108 531 143 479 q 72 669 72 582 q 113 837 72 765 q 225 946 154 908 q 383 983 296 983 q 476 973 428 983 q 554 944 524 963 q 588 896 588 925 q 569 815 588 858 q 525 771 551 771 q 483 781 513 771 q 396 800 431 800 q 310 769 331 800 q 289 706 289 739 q 314 634 289 661 q 371 587 339 607 q 413 560 403 567 q 535 455 497 506 q 572 319 572 404 q 483 76 572 163 q 236 -11 393 -11 m 369 1040 q 321 1045 338 1040 q 296 1067 304 1050 l 228 1206 q 221 1229 221 1222 q 251 1243 222 1243 l 289 1243 q 331 1237 315 1243 q 356 1217 347 1231 l 385 1154 l 428 1218 q 501 1243 443 1243 l 540 1243 q 567 1229 568 1243 q 554 1206 567 1224 l 457 1067 q 426 1045 444 1050 q 378 1040 408 1040 l 369 1040 z "},"Ş":{"ha":607,"x_min":4,"x_max":588,"o":"m 413 560 q 535 455 497 506 q 572 319 572 404 q 488 82 572 168 q 257 -11 404 -4 l 240 -67 q 305 -99 281 -74 q 329 -169 329 -125 q 290 -262 329 -231 q 185 -294 251 -294 q 81 -273 125 -294 q 38 -222 38 -251 q 53 -181 38 -197 q 82 -164 69 -164 q 117 -176 94 -164 q 136 -185 119 -178 q 172 -193 153 -193 q 200 -171 200 -193 q 192 -153 200 -160 q 168 -140 185 -147 q 143 -127 151 -133 q 135 -110 135 -121 q 143 -79 135 -103 q 156 -42 151 -56 l 168 -6 q 97 11 140 -3 q 33 46 60 25 q 6 92 6 67 q 26 179 4 132 q 76 226 49 226 q 103 217 86 226 q 177 181 149 192 q 243 171 206 171 q 322 198 289 171 q 356 285 356 225 q 329 352 356 326 q 246 414 303 378 q 233 423 239 419 q 222 429 226 426 q 108 531 143 479 q 72 669 72 582 q 113 837 72 765 q 225 946 154 908 q 383 983 296 983 q 476 973 428 983 q 554 944 524 963 q 588 896 588 925 q 569 815 588 858 q 525 771 551 771 q 483 781 513 771 q 396 800 431 800 q 310 769 331 800 q 289 706 289 739 q 314 634 289 661 q 371 587 339 607 q 413 560 403 567 z "},"Ŝ":{"ha":607,"x_min":6,"x_max":588,"o":"m 236 -11 q 97 11 161 -11 q 33 46 60 25 q 6 92 6 67 q 26 179 4 132 q 76 226 49 226 q 103 217 86 226 q 177 181 149 192 q 243 171 206 171 q 322 198 289 171 q 356 285 356 225 q 329 352 356 326 q 246 414 303 378 q 233 423 239 419 q 222 429 226 426 q 108 531 143 479 q 72 669 72 582 q 113 837 72 765 q 225 946 154 908 q 383 983 296 983 q 476 973 428 983 q 554 944 524 963 q 588 896 588 925 q 569 815 588 858 q 525 771 551 771 q 483 781 513 771 q 396 800 431 800 q 310 769 331 800 q 289 706 289 739 q 314 634 289 661 q 371 587 339 607 q 413 560 403 567 q 535 455 497 506 q 572 319 572 404 q 483 76 572 163 q 236 -11 393 -11 m 229 1040 q 201 1054 200 1040 q 213 1078 201 1058 l 310 1217 q 341 1238 322 1233 q 392 1243 360 1243 l 394 1243 q 444 1238 426 1243 q 471 1217 463 1233 l 539 1078 q 547 1054 547 1064 q 518 1040 546 1040 l 479 1040 q 411 1065 421 1040 l 381 1129 l 339 1067 q 310 1047 328 1053 q 267 1040 293 1040 l 229 1040 z "},"Ș":{"ha":607,"x_min":6,"x_max":588,"o":"m 236 -11 q 97 11 161 -11 q 33 46 60 25 q 6 92 6 67 q 26 179 4 132 q 76 226 49 226 q 103 217 86 226 q 177 181 149 192 q 243 171 206 171 q 322 198 289 171 q 356 285 356 225 q 329 352 356 326 q 246 414 303 378 q 233 423 239 419 q 222 429 226 426 q 108 531 143 479 q 72 669 72 582 q 113 837 72 765 q 225 946 154 908 q 383 983 296 983 q 476 973 428 983 q 554 944 524 963 q 588 896 588 925 q 569 815 588 858 q 525 771 551 771 q 483 781 513 771 q 396 800 431 800 q 310 769 331 800 q 289 706 289 739 q 314 634 289 661 q 371 587 339 607 q 413 560 403 567 q 535 455 497 506 q 572 319 572 404 q 483 76 572 163 q 236 -11 393 -11 m 179 -333 q 138 -326 157 -333 q 118 -303 118 -318 q 121 -274 118 -299 q 132 -132 132 -203 q 213 -71 132 -71 l 240 -71 q 303 -132 303 -71 q 281 -223 303 -176 q 230 -301 260 -269 q 179 -333 200 -333 z "},"Ṣ":{"ha":607,"x_min":6,"x_max":588,"o":"m 236 -11 q 97 11 161 -11 q 33 46 60 25 q 6 92 6 67 q 26 179 4 132 q 76 226 49 226 q 103 217 86 226 q 177 181 149 192 q 243 171 206 171 q 322 198 289 171 q 356 285 356 225 q 329 352 356 326 q 246 414 303 378 q 233 423 239 419 q 222 429 226 426 q 108 531 143 479 q 72 669 72 582 q 113 837 72 765 q 225 946 154 908 q 383 983 296 983 q 476 973 428 983 q 554 944 524 963 q 588 896 588 925 q 569 815 588 858 q 525 771 551 771 q 483 781 513 771 q 396 800 431 800 q 310 769 331 800 q 289 706 289 739 q 314 634 289 661 q 371 587 339 607 q 413 560 403 567 q 535 455 497 506 q 572 319 572 404 q 483 76 572 163 q 236 -11 393 -11 m 190 -283 q 99 -239 92 -283 l 107 -156 q 204 -111 111 -111 q 297 -156 301 -111 l 289 -239 q 190 -283 282 -283 z "},"ẞ":{"ha":824,"x_min":25,"x_max":804,"o":"m 486 -11 q 404 -1 451 -11 q 323 30 357 8 q 293 83 289 51 q 308 123 294 97 q 340 169 322 149 q 372 189 357 189 q 397 178 378 189 q 435 159 417 167 q 476 151 454 151 q 543 186 518 151 q 575 286 568 221 q 576 317 576 297 q 553 399 576 371 q 482 428 529 428 l 460 428 q 429 474 443 428 q 418 551 415 521 l 422 565 l 561 793 q 454 800 510 800 q 306 599 328 800 l 247 42 q 158 -3 240 -3 l 110 -3 q 32 42 25 -3 l 90 600 q 208 886 110 789 q 478 983 307 983 q 628 976 550 983 q 764 958 706 969 q 792 908 779 957 q 801 831 804 860 q 800 819 801 822 l 650 569 q 749 483 713 535 q 786 338 786 432 q 783 283 786 322 q 690 67 769 146 q 486 -11 610 -11 z "},"Ə":{"ha":778,"x_min":46,"x_max":722,"o":"m 326 -1 q 115 94 185 -1 q 46 350 46 189 q 51 440 46 379 q 85 490 53 458 q 131 522 117 522 l 510 522 q 514 611 514 572 q 481 770 514 728 q 381 813 449 813 q 297 802 333 813 q 211 772 261 792 q 172 758 181 758 q 132 794 153 758 q 111 860 111 831 q 160 924 111 896 q 280 968 210 953 q 408 983 350 983 q 646 885 569 983 q 722 594 722 788 q 715 460 722 519 q 591 110 690 221 q 326 -1 492 -1 m 342 165 q 438 214 403 165 q 497 385 472 263 l 244 385 q 240 304 240 342 q 263 201 240 236 q 342 165 286 165 z "},"T":{"ha":631,"x_min":63,"x_max":681,"o":"m 249 -3 q 172 42 168 -3 l 251 790 l 97 790 q 63 840 63 790 l 64 860 l 69 903 q 117 972 75 972 l 644 972 q 672 960 664 972 q 681 922 681 949 l 679 903 l 674 860 q 659 807 671 824 q 625 790 647 790 l 469 790 l 390 42 q 306 -3 386 -3 l 249 -3 z "},"Ŧ":{"ha":631,"x_min":38,"x_max":681,"o":"m 644 972 q 672 960 664 972 q 681 922 681 949 l 679 903 l 674 860 q 659 807 671 824 q 625 790 647 790 l 469 790 l 444 553 l 583 553 q 619 511 619 553 q 609 449 619 478 q 568 421 599 421 l 431 421 l 390 42 q 306 -3 386 -3 l 249 -3 q 172 42 168 -3 l 213 421 l 74 421 q 46 431 54 421 q 38 463 38 440 q 89 553 38 553 l 226 553 l 251 790 l 97 790 q 63 840 63 790 l 64 860 l 69 903 q 117 972 75 972 l 644 972 z "},"Ť":{"ha":631,"x_min":63,"x_max":681,"o":"m 249 -3 q 172 42 168 -3 l 251 790 l 97 790 q 63 840 63 790 l 64 860 l 69 903 q 117 972 75 972 l 644 972 q 672 960 664 972 q 681 922 681 949 l 679 903 l 674 860 q 659 807 671 824 q 625 790 647 790 l 469 790 l 390 42 q 306 -3 386 -3 l 249 -3 m 383 1040 q 335 1045 351 1040 q 310 1067 318 1050 l 242 1206 q 235 1229 235 1222 q 265 1243 236 1243 l 303 1243 q 345 1237 329 1243 q 369 1217 361 1231 l 399 1154 l 442 1218 q 515 1243 457 1243 l 554 1243 q 581 1229 582 1243 q 568 1206 581 1224 l 471 1067 q 440 1045 458 1050 q 392 1040 422 1040 l 383 1040 z "},"Ţ":{"ha":631,"x_min":63,"x_max":681,"o":"m 644 972 q 672 960 664 972 q 681 922 681 949 l 679 903 l 674 860 q 659 807 671 824 q 625 790 647 790 l 469 790 l 390 42 q 319 -3 386 1 l 300 -67 q 365 -99 340 -74 q 389 -169 389 -125 q 350 -262 389 -231 q 244 -294 311 -294 q 141 -273 185 -294 q 97 -222 97 -251 q 113 -181 97 -197 q 142 -164 129 -164 q 176 -176 154 -164 q 196 -185 179 -178 q 232 -193 213 -193 q 260 -171 260 -193 q 252 -153 260 -160 q 228 -140 244 -147 q 203 -127 211 -133 q 194 -110 194 -121 q 203 -75 194 -103 q 229 -1 213 -47 q 172 42 168 3 l 251 790 l 97 790 q 63 840 63 790 l 64 860 l 69 903 q 117 972 75 972 l 644 972 z "},"Ț":{"ha":631,"x_min":63,"x_max":681,"o":"m 249 -3 q 172 42 168 -3 l 251 790 l 97 790 q 63 840 63 790 l 64 860 l 69 903 q 117 972 75 972 l 644 972 q 672 960 664 972 q 681 922 681 949 l 679 903 l 674 860 q 659 807 671 824 q 625 790 647 790 l 469 790 l 390 42 q 306 -3 386 -3 l 249 -3 m 239 -333 q 197 -326 217 -333 q 178 -303 178 -318 q 181 -274 178 -299 q 192 -132 192 -203 q 272 -71 192 -71 l 300 -71 q 363 -132 363 -71 q 341 -223 363 -176 q 290 -301 319 -269 q 239 -333 260 -333 z "},"Ṭ":{"ha":631,"x_min":63,"x_max":681,"o":"m 249 -3 q 172 42 168 -3 l 251 790 l 97 790 q 63 840 63 790 l 64 860 l 69 903 q 117 972 75 972 l 644 972 q 672 960 664 972 q 681 922 681 949 l 679 903 l 674 860 q 659 807 671 824 q 625 790 647 790 l 469 790 l 390 42 q 306 -3 386 -3 l 249 -3 m 250 -283 q 158 -239 151 -283 l 167 -156 q 264 -111 171 -111 q 357 -156 361 -111 l 349 -239 q 250 -283 342 -283 z "},"U":{"ha":810,"x_min":60,"x_max":803,"o":"m 367 -11 q 140 56 221 -11 q 60 244 60 122 q 63 285 60 257 l 131 931 q 215 975 135 975 l 271 975 q 347 931 351 975 l 281 299 q 303 206 275 242 q 385 171 331 171 q 475 207 439 171 q 517 299 511 243 l 583 931 q 668 975 588 975 l 722 975 q 799 931 803 975 l 731 285 q 620 67 717 144 q 367 -11 524 -11 z "},"Ú":{"ha":810,"x_min":60,"x_max":799,"o":"m 367 -11 q 140 56 221 -11 q 60 244 60 122 q 63 285 60 257 l 131 931 q 215 975 135 975 l 271 975 q 347 931 351 975 l 281 299 q 303 206 275 242 q 385 171 331 171 q 475 207 439 171 q 517 299 511 243 l 583 931 q 668 975 588 975 l 722 975 q 799 931 803 975 l 731 285 q 620 67 717 144 q 367 -11 524 -11 m 429 1044 q 397 1049 406 1044 q 389 1065 389 1054 q 398 1093 389 1074 q 424 1143 407 1113 l 467 1228 q 576 1265 486 1265 q 633 1261 615 1265 q 651 1246 651 1257 q 642 1224 651 1238 q 607 1179 632 1210 q 576 1139 594 1163 q 529 1079 557 1115 q 496 1053 517 1063 q 429 1044 475 1044 z "},"Ŭ":{"ha":810,"x_min":60,"x_max":799,"o":"m 367 -11 q 140 56 221 -11 q 60 244 60 122 q 63 285 60 257 l 131 931 q 215 975 135 975 l 271 975 q 347 931 351 975 l 281 299 q 303 206 275 242 q 385 171 331 171 q 475 207 439 171 q 517 299 511 243 l 583 931 q 668 975 588 975 l 722 975 q 799 931 803 975 l 731 285 q 620 67 717 144 q 367 -11 524 -11 m 476 1044 q 353 1084 394 1044 q 311 1178 311 1124 q 372 1239 311 1239 q 411 1214 401 1239 q 418 1199 413 1211 q 442 1178 424 1186 q 492 1171 460 1171 q 551 1182 533 1171 q 574 1203 568 1193 q 582 1217 581 1214 q 599 1233 588 1226 q 624 1239 610 1239 q 674 1192 679 1239 q 617 1090 668 1135 q 476 1044 565 1044 z "},"Û":{"ha":810,"x_min":60,"x_max":799,"o":"m 367 -11 q 140 56 221 -11 q 60 244 60 122 q 63 285 60 257 l 131 931 q 215 975 135 975 l 271 975 q 347 931 351 975 l 281 299 q 303 206 275 242 q 385 171 331 171 q 475 207 439 171 q 517 299 511 243 l 583 931 q 668 975 588 975 l 722 975 q 799 931 803 975 l 731 285 q 620 67 717 144 q 367 -11 524 -11 m 332 1040 q 304 1054 303 1040 q 315 1078 304 1058 l 413 1217 q 444 1238 425 1233 q 494 1243 463 1243 l 497 1243 q 547 1238 529 1243 q 574 1217 565 1233 l 642 1078 q 650 1054 650 1064 q 621 1040 649 1040 l 582 1040 q 514 1065 524 1040 l 483 1129 l 442 1067 q 413 1047 431 1053 q 369 1040 396 1040 l 332 1040 z "},"Ü":{"ha":810,"x_min":60,"x_max":799,"o":"m 367 -11 q 140 56 221 -11 q 60 244 60 122 q 63 285 60 257 l 131 931 q 215 975 135 975 l 271 975 q 347 931 351 975 l 281 299 q 303 206 275 242 q 385 171 331 171 q 475 207 439 171 q 517 299 511 243 l 583 931 q 668 975 588 975 l 722 975 q 799 931 803 975 l 731 285 q 620 67 717 144 q 367 -11 524 -11 m 367 1049 q 292 1093 285 1049 l 300 1176 q 382 1221 304 1221 q 458 1176 463 1221 l 450 1093 q 367 1049 443 1049 m 592 1049 q 517 1093 510 1049 l 525 1176 q 607 1221 529 1221 q 683 1176 688 1221 l 675 1093 q 592 1049 668 1049 z "},"Ụ":{"ha":810,"x_min":60,"x_max":799,"o":"m 367 -11 q 140 56 221 -11 q 60 244 60 122 q 63 285 60 257 l 131 931 q 215 975 135 975 l 271 975 q 347 931 351 975 l 281 299 q 303 206 275 242 q 385 171 331 171 q 475 207 439 171 q 517 299 511 243 l 583 931 q 668 975 588 975 l 722 975 q 799 931 803 975 l 731 285 q 620 67 717 144 q 367 -11 524 -11 m 340 -283 q 249 -239 242 -283 l 257 -156 q 354 -111 261 -111 q 447 -156 451 -111 l 439 -239 q 340 -283 432 -283 z "},"Ù":{"ha":810,"x_min":60,"x_max":799,"o":"m 367 -11 q 140 56 221 -11 q 60 244 60 122 q 63 285 60 257 l 131 931 q 215 975 135 975 l 271 975 q 347 931 351 975 l 281 299 q 303 206 275 242 q 385 171 331 171 q 475 207 439 171 q 517 299 511 243 l 583 931 q 668 975 588 975 l 722 975 q 799 931 803 975 l 731 285 q 620 67 717 144 q 367 -11 524 -11 m 513 1044 q 446 1054 467 1044 q 414 1079 425 1064 l 343 1168 q 302 1221 314 1204 q 290 1246 290 1238 q 308 1261 290 1257 q 365 1265 326 1265 q 476 1228 456 1265 q 533 1117 514 1157 q 553 1065 553 1076 q 544 1049 553 1053 q 513 1044 536 1044 z "},"Ủ":{"ha":810,"x_min":60,"x_max":799,"o":"m 367 -11 q 140 56 221 -11 q 60 244 60 122 q 63 285 60 257 l 131 931 q 215 975 135 975 l 271 975 q 347 931 351 975 l 281 299 q 303 206 275 242 q 385 171 331 171 q 475 207 439 171 q 517 299 511 243 l 583 931 q 668 975 588 975 l 722 975 q 799 931 803 975 l 731 285 q 620 67 717 144 q 367 -11 524 -11 m 503 1038 q 453 1049 479 1038 q 428 1069 428 1061 q 464 1107 428 1081 q 506 1142 490 1126 q 521 1174 521 1158 q 508 1196 521 1188 q 476 1204 494 1204 q 441 1196 458 1204 q 418 1188 424 1188 q 393 1209 410 1188 q 376 1246 376 1231 q 414 1274 376 1260 q 488 1289 451 1289 q 601 1260 561 1289 q 642 1179 642 1231 q 614 1113 642 1146 q 551 1059 586 1081 q 503 1038 517 1038 z "},"Ư":{"ha":810,"x_min":60,"x_max":907,"o":"m 907 1046 q 797 921 907 940 l 731 285 q 620 67 717 144 q 367 -11 524 -11 q 140 56 221 -11 q 60 244 60 122 q 63 285 60 257 l 131 931 q 215 975 135 975 l 271 975 q 347 931 351 975 l 281 299 q 303 206 275 242 q 385 171 331 171 q 475 207 439 171 q 517 299 511 243 l 583 931 q 668 975 588 975 l 739 975 q 783 988 767 975 q 799 1021 799 1000 q 792 1046 799 1035 q 775 1071 786 1057 q 760 1097 760 1089 q 775 1124 760 1114 l 819 1154 q 842 1161 828 1161 q 887 1121 867 1161 q 907 1046 907 1081 z "},"Ứ":{"ha":810,"x_min":60,"x_max":907,"o":"m 429 1044 q 397 1049 406 1044 q 389 1065 389 1054 q 398 1093 389 1074 q 424 1143 407 1113 l 467 1228 q 576 1265 486 1265 q 633 1261 615 1265 q 651 1246 651 1257 q 642 1224 651 1238 q 607 1179 632 1210 q 576 1139 594 1163 q 529 1079 557 1115 q 496 1053 517 1063 q 429 1044 475 1044 m 907 1046 q 797 921 907 940 l 731 285 q 620 67 717 144 q 367 -11 524 -11 q 140 56 221 -11 q 60 244 60 122 q 63 285 60 257 l 131 931 q 215 975 135 975 l 271 975 q 347 931 351 975 l 281 299 q 303 206 275 242 q 385 171 331 171 q 475 207 439 171 q 517 299 511 243 l 583 931 q 668 975 588 975 l 739 975 q 783 988 767 975 q 799 1021 799 1000 q 792 1046 799 1035 q 775 1071 786 1057 q 760 1097 760 1089 q 775 1124 760 1114 l 819 1154 q 842 1161 828 1161 q 887 1121 867 1161 q 907 1046 907 1081 z "},"Ự":{"ha":810,"x_min":60,"x_max":907,"o":"m 907 1046 q 797 921 907 940 l 731 285 q 620 67 717 144 q 367 -11 524 -11 q 140 56 221 -11 q 60 244 60 122 q 63 285 60 257 l 131 931 q 215 975 135 975 l 271 975 q 347 931 351 975 l 281 299 q 303 206 275 242 q 385 171 331 171 q 475 207 439 171 q 517 299 511 243 l 583 931 q 668 975 588 975 l 739 975 q 783 988 767 975 q 799 1021 799 1000 q 792 1046 799 1035 q 775 1071 786 1057 q 760 1097 760 1089 q 775 1124 760 1114 l 819 1154 q 842 1161 828 1161 q 887 1121 867 1161 q 907 1046 907 1081 m 354 -111 q 447 -156 451 -111 l 439 -239 q 340 -283 432 -283 q 249 -239 242 -283 l 257 -156 q 354 -111 261 -111 z "},"Ừ":{"ha":810,"x_min":60,"x_max":907,"o":"m 513 1044 q 446 1054 467 1044 q 414 1079 425 1064 l 343 1168 q 302 1221 314 1204 q 290 1246 290 1238 q 308 1261 290 1257 q 365 1265 326 1265 q 476 1228 456 1265 q 533 1117 514 1157 q 553 1065 553 1076 q 544 1049 553 1053 q 513 1044 536 1044 m 907 1046 q 797 921 907 940 l 731 285 q 620 67 717 144 q 367 -11 524 -11 q 140 56 221 -11 q 60 244 60 122 q 63 285 60 257 l 131 931 q 215 975 135 975 l 271 975 q 347 931 351 975 l 281 299 q 303 206 275 242 q 385 171 331 171 q 475 207 439 171 q 517 299 511 243 l 583 931 q 668 975 588 975 l 739 975 q 783 988 767 975 q 799 1021 799 1000 q 792 1046 799 1035 q 775 1071 786 1057 q 760 1097 760 1089 q 775 1124 760 1114 l 819 1154 q 842 1161 828 1161 q 887 1121 867 1161 q 907 1046 907 1081 z "},"Ử":{"ha":810,"x_min":60,"x_max":907,"o":"m 418 1188 q 393 1209 410 1188 q 376 1246 376 1231 q 414 1274 376 1260 q 488 1289 451 1289 q 601 1260 561 1289 q 642 1179 642 1231 q 614 1113 642 1146 q 551 1059 586 1081 q 503 1038 517 1038 q 453 1049 479 1038 q 428 1069 428 1061 q 464 1107 428 1081 q 506 1142 490 1126 q 521 1174 521 1158 q 508 1196 521 1188 q 476 1204 494 1204 q 441 1196 458 1204 q 418 1188 424 1188 m 907 1046 q 797 921 907 940 l 731 285 q 620 67 717 144 q 367 -11 524 -11 q 140 56 221 -11 q 60 244 60 122 q 63 285 60 257 l 131 931 q 215 975 135 975 l 271 975 q 347 931 351 975 l 281 299 q 303 206 275 242 q 385 171 331 171 q 475 207 439 171 q 517 299 511 243 l 583 931 q 668 975 588 975 l 739 975 q 783 988 767 975 q 799 1021 799 1000 q 792 1046 799 1035 q 775 1071 786 1057 q 760 1097 760 1089 q 775 1124 760 1114 l 819 1154 q 842 1161 828 1161 q 887 1121 867 1161 q 907 1046 907 1081 z "},"Ữ":{"ha":810,"x_min":60,"x_max":907,"o":"m 279 1056 q 247 1092 247 1064 q 253 1114 247 1101 q 301 1183 268 1156 q 378 1210 333 1210 q 469 1188 406 1210 q 503 1177 479 1185 q 539 1169 526 1169 q 575 1192 557 1169 q 592 1210 583 1204 q 613 1215 600 1215 q 632 1213 618 1215 l 646 1208 q 678 1172 678 1199 q 674 1151 678 1168 q 624 1082 658 1110 q 547 1054 590 1054 q 457 1076 521 1054 q 424 1087 449 1079 q 386 1094 399 1094 q 351 1072 367 1094 q 333 1054 342 1060 q 313 1049 324 1049 q 294 1051 306 1049 l 279 1056 m 907 1046 q 797 921 907 940 l 731 285 q 620 67 717 144 q 367 -11 524 -11 q 140 56 221 -11 q 60 244 60 122 q 63 285 60 257 l 131 931 q 215 975 135 975 l 271 975 q 347 931 351 975 l 281 299 q 303 206 275 242 q 385 171 331 171 q 475 207 439 171 q 517 299 511 243 l 583 931 q 668 975 588 975 l 739 975 q 783 988 767 975 q 799 1021 799 1000 q 792 1046 799 1035 q 775 1071 786 1057 q 760 1097 760 1089 q 775 1124 760 1114 l 819 1154 q 842 1161 828 1161 q 887 1121 867 1161 q 907 1046 907 1081 z "},"Ű":{"ha":810,"x_min":60,"x_max":799,"o":"m 367 -11 q 140 56 221 -11 q 60 244 60 122 q 63 285 60 257 l 131 931 q 215 975 135 975 l 271 975 q 347 931 351 975 l 281 299 q 303 206 275 242 q 385 171 331 171 q 475 207 439 171 q 517 299 511 243 l 583 931 q 668 975 588 975 l 722 975 q 799 931 803 975 l 731 285 q 620 67 717 144 q 367 -11 524 -11 m 336 1044 q 304 1049 313 1044 q 296 1065 296 1053 q 318 1118 296 1074 q 372 1228 340 1160 q 483 1265 390 1265 q 540 1261 522 1265 q 558 1246 558 1257 q 549 1224 558 1238 q 515 1179 539 1210 q 438 1079 485 1143 q 403 1053 424 1063 q 336 1044 382 1044 m 565 1044 q 533 1049 542 1044 q 525 1065 525 1054 q 535 1093 525 1072 q 549 1119 546 1114 l 603 1228 q 713 1265 621 1265 q 769 1261 751 1265 q 788 1246 788 1257 q 778 1224 788 1238 q 743 1179 768 1210 q 712 1139 731 1163 q 665 1079 693 1115 q 633 1053 653 1063 q 565 1044 613 1044 z "},"Ū":{"ha":810,"x_min":60,"x_max":799,"o":"m 367 -11 q 140 56 221 -11 q 60 244 60 122 q 63 285 60 257 l 131 931 q 215 975 135 975 l 271 975 q 347 931 351 975 l 281 299 q 303 206 275 242 q 385 171 331 171 q 475 207 439 171 q 517 299 511 243 l 583 931 q 668 975 588 975 l 722 975 q 799 931 803 975 l 731 285 q 620 67 717 144 q 367 -11 524 -11 m 347 1075 q 318 1088 326 1075 q 313 1131 310 1101 l 315 1151 q 329 1194 318 1181 q 361 1207 340 1207 l 626 1207 q 663 1167 663 1207 l 661 1151 l 658 1131 q 646 1088 657 1101 q 613 1075 635 1075 l 347 1075 z "},"Ų":{"ha":810,"x_min":60,"x_max":803,"o":"m 722 975 q 799 931 803 975 l 731 285 q 681 135 721 199 q 572 35 640 72 q 550 -65 550 -15 q 618 -126 550 -126 q 638 -124 629 -126 q 651 -121 646 -121 q 683 -130 674 -121 q 693 -162 693 -139 q 669 -206 693 -192 q 592 -222 635 -222 q 485 -181 513 -222 q 457 -92 457 -139 q 474 0 457 -49 q 367 -11 422 -11 q 140 56 221 -11 q 60 244 60 122 q 63 285 60 257 l 131 931 q 215 975 135 975 l 271 975 q 347 931 351 975 l 281 299 q 303 206 275 242 q 385 171 331 171 q 475 207 439 171 q 517 299 511 243 l 583 931 q 668 975 588 975 l 722 975 z "},"Ů":{"ha":810,"x_min":60,"x_max":799,"o":"m 367 -11 q 140 56 221 -11 q 60 244 60 122 q 63 285 60 257 l 131 931 q 215 975 135 975 l 271 975 q 347 931 351 975 l 281 299 q 303 206 275 242 q 385 171 331 171 q 475 207 439 171 q 517 299 511 243 l 583 931 q 668 975 588 975 l 722 975 q 799 931 803 975 l 731 285 q 620 67 717 144 q 367 -11 524 -11 m 472 1010 q 382 1042 414 1010 q 350 1128 350 1075 q 392 1242 350 1197 q 501 1286 433 1286 q 594 1253 561 1286 q 626 1167 626 1221 q 584 1054 626 1099 q 472 1010 542 1010 m 483 1096 q 522 1109 507 1096 q 540 1146 538 1122 q 531 1183 543 1169 q 494 1197 518 1197 q 455 1183 469 1197 q 438 1146 440 1169 q 447 1109 435 1122 q 483 1096 458 1096 z "},"Ũ":{"ha":810,"x_min":60,"x_max":799,"o":"m 367 -11 q 140 56 221 -11 q 60 244 60 122 q 63 285 60 257 l 131 931 q 215 975 135 975 l 271 975 q 347 931 351 975 l 281 299 q 303 206 275 242 q 385 171 331 171 q 475 207 439 171 q 517 299 511 243 l 583 931 q 668 975 588 975 l 722 975 q 799 931 803 975 l 731 285 q 620 67 717 144 q 367 -11 524 -11 m 279 1056 q 247 1092 247 1064 q 253 1114 247 1101 q 301 1183 268 1156 q 378 1210 333 1210 q 469 1188 406 1210 q 503 1177 479 1185 q 539 1169 526 1169 q 575 1192 557 1169 q 592 1210 583 1204 q 613 1215 600 1215 q 632 1213 618 1215 l 646 1208 q 678 1172 678 1199 q 674 1151 678 1168 q 624 1082 658 1110 q 547 1054 590 1054 q 457 1076 521 1054 q 424 1087 449 1079 q 386 1094 399 1094 q 351 1072 367 1094 q 333 1054 342 1060 q 313 1049 324 1049 q 294 1051 306 1049 l 279 1056 z "},"V":{"ha":706,"x_min":67,"x_max":761,"o":"m 267 -3 q 196 26 200 -3 l 71 919 q 69 931 71 924 q 68 944 67 939 q 151 975 71 975 l 204 975 q 276 935 272 975 l 331 307 l 332 211 l 338 211 l 361 307 l 550 935 q 631 975 563 975 l 682 975 q 758 944 761 975 l 751 919 l 442 26 q 365 -3 432 -3 l 267 -3 z "},"W":{"ha":1044,"x_min":67,"x_max":1101,"o":"m 231 -3 q 163 26 165 -3 l 67 918 l 67 922 q 69 939 67 931 q 154 975 72 975 l 194 975 q 279 932 278 975 l 290 419 q 292 299 292 382 q 293 211 293 269 l 319 311 q 334 366 325 333 q 347 419 343 399 l 481 946 q 503 969 485 963 q 556 975 521 975 l 611 975 q 663 969 646 975 q 681 946 679 963 l 715 419 q 721 276 718 374 l 724 207 q 757 347 742 275 l 774 419 l 894 932 q 988 975 904 975 l 1019 975 q 1099 939 1101 975 q 1098 930 1099 936 q 1094 918 1097 924 l 824 26 q 747 -3 815 -3 l 669 -3 q 624 5 642 -3 q 604 26 606 13 l 554 517 l 554 665 l 522 517 l 382 26 q 356 5 376 13 q 308 -3 336 -3 l 231 -3 z "},"Ẃ":{"ha":1044,"x_min":67,"x_max":1099,"o":"m 231 -3 q 163 26 165 -3 l 67 918 l 67 922 q 69 939 67 931 q 154 975 72 975 l 194 975 q 279 932 278 975 l 290 419 q 292 299 292 382 q 293 211 293 269 l 319 311 q 334 366 325 333 q 347 419 343 399 l 481 946 q 503 969 485 963 q 556 975 521 975 l 611 975 q 663 969 646 975 q 681 946 679 963 l 715 419 q 721 276 718 374 l 724 207 q 757 347 742 275 l 774 419 l 894 932 q 988 975 904 975 l 1019 975 q 1099 939 1101 975 q 1098 930 1099 936 q 1094 918 1097 924 l 824 26 q 747 -3 815 -3 l 669 -3 q 624 5 642 -3 q 604 26 606 13 l 554 517 l 554 665 l 522 517 l 382 26 q 356 5 376 13 q 308 -3 336 -3 l 231 -3 m 540 1044 q 508 1049 517 1044 q 500 1065 500 1054 q 509 1093 500 1074 q 535 1143 518 1113 l 578 1228 q 688 1265 597 1265 q 744 1261 726 1265 q 763 1246 763 1257 q 753 1224 763 1238 q 718 1179 743 1210 q 687 1139 706 1163 q 640 1079 668 1115 q 607 1053 628 1063 q 540 1044 586 1044 z "},"Ŵ":{"ha":1044,"x_min":67,"x_max":1099,"o":"m 231 -3 q 163 26 165 -3 l 67 918 l 67 922 q 69 939 67 931 q 154 975 72 975 l 194 975 q 279 932 278 975 l 290 419 q 292 299 292 382 q 293 211 293 269 l 319 311 q 334 366 325 333 q 347 419 343 399 l 481 946 q 503 969 485 963 q 556 975 521 975 l 611 975 q 663 969 646 975 q 681 946 679 963 l 715 419 q 721 276 718 374 l 724 207 q 757 347 742 275 l 774 419 l 894 932 q 988 975 904 975 l 1019 975 q 1099 939 1101 975 q 1098 930 1099 936 q 1094 918 1097 924 l 824 26 q 747 -3 815 -3 l 669 -3 q 624 5 642 -3 q 604 26 606 13 l 554 517 l 554 665 l 522 517 l 382 26 q 356 5 376 13 q 308 -3 336 -3 l 231 -3 m 443 1040 q 415 1054 414 1040 q 426 1078 415 1058 l 524 1217 q 555 1238 536 1233 q 606 1243 574 1243 l 608 1243 q 658 1238 640 1243 q 685 1217 676 1233 l 753 1078 q 761 1054 761 1064 q 732 1040 760 1040 l 693 1040 q 625 1065 635 1040 l 594 1129 l 553 1067 q 524 1047 542 1053 q 481 1040 507 1040 l 443 1040 z "},"Ẅ":{"ha":1044,"x_min":67,"x_max":1099,"o":"m 231 -3 q 163 26 165 -3 l 67 918 l 67 922 q 69 939 67 931 q 154 975 72 975 l 194 975 q 279 932 278 975 l 290 419 q 292 299 292 382 q 293 211 293 269 l 319 311 q 334 366 325 333 q 347 419 343 399 l 481 946 q 503 969 485 963 q 556 975 521 975 l 611 975 q 663 969 646 975 q 681 946 679 963 l 715 419 q 721 276 718 374 l 724 207 q 757 347 742 275 l 774 419 l 894 932 q 988 975 904 975 l 1019 975 q 1099 939 1101 975 q 1098 930 1099 936 q 1094 918 1097 924 l 824 26 q 747 -3 815 -3 l 669 -3 q 624 5 642 -3 q 604 26 606 13 l 554 517 l 554 665 l 522 517 l 382 26 q 356 5 376 13 q 308 -3 336 -3 l 231 -3 m 478 1049 q 403 1093 396 1049 l 411 1176 q 493 1221 415 1221 q 569 1176 574 1221 l 561 1093 q 478 1049 554 1049 m 703 1049 q 628 1093 621 1049 l 636 1176 q 718 1221 640 1221 q 794 1176 799 1221 l 786 1093 q 703 1049 779 1049 z "},"Ẁ":{"ha":1044,"x_min":67,"x_max":1099,"o":"m 231 -3 q 163 26 165 -3 l 67 918 l 67 922 q 69 939 67 931 q 154 975 72 975 l 194 975 q 279 932 278 975 l 290 419 q 292 299 292 382 q 293 211 293 269 l 319 311 q 334 366 325 333 q 347 419 343 399 l 481 946 q 503 969 485 963 q 556 975 521 975 l 611 975 q 663 969 646 975 q 681 946 679 963 l 715 419 q 721 276 718 374 l 724 207 q 757 347 742 275 l 774 419 l 894 932 q 988 975 904 975 l 1019 975 q 1099 939 1101 975 q 1098 930 1099 936 q 1094 918 1097 924 l 824 26 q 747 -3 815 -3 l 669 -3 q 624 5 642 -3 q 604 26 606 13 l 554 517 l 554 665 l 522 517 l 382 26 q 356 5 376 13 q 308 -3 336 -3 l 231 -3 m 624 1044 q 557 1054 578 1044 q 525 1079 536 1064 l 454 1168 q 413 1221 425 1204 q 401 1246 401 1238 q 419 1261 401 1257 q 476 1265 438 1265 q 588 1228 567 1265 q 644 1117 625 1157 q 664 1065 664 1076 q 656 1049 664 1053 q 624 1044 647 1044 z "},"X":{"ha":703,"x_min":-28,"x_max":751,"o":"m 54 -3 q -25 24 -28 -3 q -10 58 -24 31 l 239 507 l 107 914 q 97 949 97 939 q 121 968 99 961 q 183 975 143 975 l 249 975 q 299 969 281 975 q 321 949 318 964 l 383 621 l 524 947 q 551 969 532 964 q 604 975 569 975 l 669 975 q 731 968 710 975 q 749 949 751 961 q 735 914 749 939 l 503 504 l 646 58 q 651 42 647 53 q 653 24 654 31 q 568 -3 650 -3 l 508 -3 q 435 24 442 -3 l 358 378 l 196 25 q 171 1 188 6 q 117 -3 154 -3 l 54 -3 z "},"Y":{"ha":672,"x_min":61,"x_max":733,"o":"m 271 -3 q 193 42 189 -3 l 233 419 l 71 913 q 63 947 61 938 q 86 967 64 960 q 149 975 108 975 l 219 975 q 293 949 289 975 l 354 558 l 508 949 q 534 969 514 964 q 588 975 554 975 l 646 975 q 731 947 733 975 q 717 913 729 940 l 451 415 l 411 42 q 388 8 408 19 q 325 -3 367 -3 l 271 -3 z "},"Ý":{"ha":672,"x_min":63,"x_max":731,"o":"m 271 -3 q 193 42 189 -3 l 233 419 l 71 913 q 63 947 61 938 q 86 967 64 960 q 149 975 108 975 l 219 975 q 293 949 289 975 l 354 558 l 508 949 q 534 969 514 964 q 588 975 554 975 l 646 975 q 731 947 733 975 q 717 913 729 940 l 451 415 l 411 42 q 388 8 408 19 q 325 -3 367 -3 l 271 -3 m 360 1044 q 328 1049 336 1044 q 319 1065 319 1054 q 328 1093 319 1074 q 354 1143 338 1113 l 397 1228 q 507 1265 417 1265 q 564 1261 546 1265 q 582 1246 582 1257 q 572 1224 582 1238 q 538 1179 563 1210 q 506 1139 525 1163 q 460 1079 488 1115 q 426 1053 447 1063 q 360 1044 406 1044 z "},"Ŷ":{"ha":672,"x_min":63,"x_max":731,"o":"m 271 -3 q 193 42 189 -3 l 233 419 l 71 913 q 63 947 61 938 q 86 967 64 960 q 149 975 108 975 l 219 975 q 293 949 289 975 l 354 558 l 508 949 q 534 969 514 964 q 588 975 554 975 l 646 975 q 731 947 733 975 q 717 913 729 940 l 451 415 l 411 42 q 388 8 408 19 q 325 -3 367 -3 l 271 -3 m 263 1040 q 235 1054 233 1040 q 246 1078 235 1058 l 343 1217 q 374 1238 356 1233 q 425 1243 393 1243 l 428 1243 q 478 1238 460 1243 q 504 1217 496 1233 l 572 1078 q 581 1054 581 1064 q 551 1040 579 1040 l 513 1040 q 444 1065 454 1040 l 414 1129 l 372 1067 q 344 1047 361 1053 q 300 1040 326 1040 l 263 1040 z "},"Ÿ":{"ha":672,"x_min":63,"x_max":731,"o":"m 271 -3 q 193 42 189 -3 l 233 419 l 71 913 q 63 947 61 938 q 86 967 64 960 q 149 975 108 975 l 219 975 q 293 949 289 975 l 354 558 l 508 949 q 534 969 514 964 q 588 975 554 975 l 646 975 q 731 947 733 975 q 717 913 729 940 l 451 415 l 411 42 q 388 8 408 19 q 325 -3 367 -3 l 271 -3 m 297 1049 q 222 1093 215 1049 l 231 1176 q 313 1221 235 1221 q 389 1176 393 1221 l 381 1093 q 297 1049 374 1049 m 522 1049 q 447 1093 440 1049 l 456 1176 q 538 1221 460 1221 q 614 1176 618 1221 l 606 1093 q 522 1049 599 1049 z "},"Ỵ":{"ha":672,"x_min":63,"x_max":731,"o":"m 271 -3 q 193 42 189 -3 l 233 419 l 71 913 q 63 947 61 938 q 86 967 64 960 q 149 975 108 975 l 219 975 q 293 949 289 975 l 354 558 l 508 949 q 534 969 514 964 q 588 975 554 975 l 646 975 q 731 947 733 975 q 717 913 729 940 l 451 415 l 411 42 q 388 8 408 19 q 325 -3 367 -3 l 271 -3 m 272 -283 q 181 -239 174 -283 l 189 -156 q 286 -111 193 -111 q 379 -156 383 -111 l 371 -239 q 272 -283 364 -283 z "},"Ỳ":{"ha":672,"x_min":63,"x_max":731,"o":"m 271 -3 q 193 42 189 -3 l 233 419 l 71 913 q 63 947 61 938 q 86 967 64 960 q 149 975 108 975 l 219 975 q 293 949 289 975 l 354 558 l 508 949 q 534 969 514 964 q 588 975 554 975 l 646 975 q 731 947 733 975 q 717 913 729 940 l 451 415 l 411 42 q 388 8 408 19 q 325 -3 367 -3 l 271 -3 m 443 1044 q 376 1054 397 1044 q 344 1079 356 1064 l 274 1168 q 233 1221 244 1204 q 221 1246 221 1238 q 239 1261 221 1257 q 296 1265 257 1265 q 407 1228 386 1265 q 464 1117 444 1157 q 483 1065 483 1076 q 475 1049 483 1053 q 443 1044 467 1044 z "},"Ỷ":{"ha":672,"x_min":63,"x_max":731,"o":"m 271 -3 q 193 42 189 -3 l 233 419 l 71 913 q 63 947 61 938 q 86 967 64 960 q 149 975 108 975 l 219 975 q 293 949 289 975 l 354 558 l 508 949 q 534 969 514 964 q 588 975 554 975 l 646 975 q 731 947 733 975 q 717 913 729 940 l 451 415 l 411 42 q 388 8 408 19 q 325 -3 367 -3 l 271 -3 m 433 1038 q 384 1049 410 1038 q 358 1069 358 1061 q 394 1107 358 1081 q 436 1142 421 1126 q 451 1174 451 1158 q 438 1196 451 1188 q 407 1204 425 1204 q 372 1196 389 1204 q 349 1188 354 1188 q 324 1209 340 1188 q 307 1246 307 1231 q 344 1274 307 1260 q 418 1289 382 1289 q 532 1260 492 1289 q 572 1179 572 1231 q 544 1113 572 1146 q 482 1059 517 1081 q 433 1038 447 1038 z "},"Ỹ":{"ha":672,"x_min":63,"x_max":731,"o":"m 271 -3 q 193 42 189 -3 l 233 419 l 71 913 q 63 947 61 938 q 86 967 64 960 q 149 975 108 975 l 219 975 q 293 949 289 975 l 354 558 l 508 949 q 534 969 514 964 q 588 975 554 975 l 646 975 q 731 947 733 975 q 717 913 729 940 l 451 415 l 411 42 q 388 8 408 19 q 325 -3 367 -3 l 271 -3 m 210 1056 q 178 1092 178 1064 q 183 1114 178 1101 q 231 1183 199 1156 q 308 1210 264 1210 q 400 1188 336 1210 q 433 1177 410 1185 q 469 1169 457 1169 q 506 1192 488 1169 q 522 1210 514 1204 q 543 1215 531 1215 q 563 1213 549 1215 l 576 1208 q 608 1172 608 1199 q 604 1151 608 1168 q 555 1082 589 1110 q 478 1054 521 1054 q 388 1076 451 1054 q 354 1087 379 1079 q 317 1094 329 1094 q 282 1072 297 1094 q 263 1054 272 1060 q 243 1049 254 1049 q 225 1051 236 1049 l 210 1056 z "},"Z":{"ha":704,"x_min":4,"x_max":715,"o":"m 49 0 q 17 46 31 0 q 8 124 4 92 q 11 138 8 135 l 432 790 l 147 790 q 122 802 129 790 q 114 839 114 814 l 115 860 l 121 903 q 135 956 124 939 q 167 972 146 972 l 674 972 q 703 924 690 972 q 711 844 715 875 q 712 839 711 842 q 711 833 713 836 l 292 182 l 604 182 q 639 132 639 182 l 638 113 l 632 69 q 585 0 626 0 l 49 0 z "},"Ź":{"ha":704,"x_min":8,"x_max":711,"o":"m 49 0 q 17 46 31 0 q 8 124 4 92 q 11 138 8 135 l 432 790 l 147 790 q 122 802 129 790 q 114 839 114 814 l 115 860 l 121 903 q 135 956 124 939 q 167 972 146 972 l 674 972 q 703 924 690 972 q 711 844 715 875 q 712 839 711 842 q 711 833 713 836 l 292 182 l 604 182 q 639 132 639 182 l 638 113 l 632 69 q 585 0 626 0 l 49 0 m 381 1044 q 349 1049 357 1044 q 340 1065 340 1054 q 349 1093 340 1074 q 375 1143 358 1113 l 418 1228 q 528 1265 438 1265 q 585 1261 567 1265 q 603 1246 603 1257 q 593 1224 603 1238 q 558 1179 583 1210 q 527 1139 546 1163 q 481 1079 508 1115 q 447 1053 468 1063 q 381 1044 426 1044 z "},"Ž":{"ha":704,"x_min":8,"x_max":711,"o":"m 49 0 q 17 46 31 0 q 8 124 4 92 q 11 138 8 135 l 432 790 l 147 790 q 122 802 129 790 q 114 839 114 814 l 115 860 l 121 903 q 135 956 124 939 q 167 972 146 972 l 674 972 q 703 924 690 972 q 711 844 715 875 q 712 839 711 842 q 711 833 713 836 l 292 182 l 604 182 q 639 132 639 182 l 638 113 l 632 69 q 585 0 626 0 l 49 0 m 424 1040 q 375 1045 392 1040 q 350 1067 358 1050 l 282 1206 q 275 1229 275 1222 q 306 1243 276 1243 l 343 1243 q 385 1237 369 1243 q 410 1217 401 1231 l 439 1154 l 482 1218 q 556 1243 497 1243 l 594 1243 q 621 1229 622 1243 q 608 1206 621 1224 l 511 1067 q 481 1045 499 1050 q 432 1040 463 1040 l 424 1040 z "},"Ż":{"ha":704,"x_min":8,"x_max":711,"o":"m 49 0 q 17 46 31 0 q 8 124 4 92 q 11 138 8 135 l 432 790 l 147 790 q 122 802 129 790 q 114 839 114 814 l 115 860 l 121 903 q 135 956 124 939 q 167 972 146 972 l 674 972 q 703 924 690 972 q 711 844 715 875 q 712 839 711 842 q 711 833 713 836 l 292 182 l 604 182 q 639 132 639 182 l 638 113 l 632 69 q 585 0 626 0 l 49 0 m 431 1049 q 339 1093 332 1049 l 347 1176 q 444 1221 351 1221 q 538 1176 542 1221 l 529 1093 q 431 1049 522 1049 z "},"Ẓ":{"ha":704,"x_min":8,"x_max":711,"o":"m 49 0 q 17 46 31 0 q 8 124 4 92 q 11 138 8 135 l 432 790 l 147 790 q 122 802 129 790 q 114 839 114 814 l 115 860 l 121 903 q 135 956 124 939 q 167 972 146 972 l 674 972 q 703 924 690 972 q 711 844 715 875 q 712 839 711 842 q 711 833 713 836 l 292 182 l 604 182 q 639 132 639 182 l 638 113 l 632 69 q 585 0 626 0 l 49 0 m 285 -283 q 193 -239 186 -283 l 201 -156 q 299 -111 206 -111 q 392 -156 396 -111 l 383 -239 q 285 -283 376 -283 z "},"a":{"ha":668,"x_min":39,"x_max":632,"o":"m 215 -12 q 81 69 122 -12 q 39 279 39 151 q 44 375 39 311 q 133 644 64 551 q 300 738 201 738 q 381 717 350 738 q 439 665 411 697 q 455 705 447 693 q 479 723 463 717 q 529 729 496 729 l 546 729 q 628 694 628 729 q 624 648 626 675 q 618 596 621 621 q 611 536 613 554 l 590 340 l 575 185 q 593 154 575 154 q 603 156 599 154 q 613 157 607 157 q 627 144 622 157 q 632 117 632 132 q 597 25 632 61 q 496 -11 561 -11 q 375 94 393 -11 q 215 -12 319 -12 m 301 156 q 345 176 326 156 q 374 231 364 197 l 396 451 q 411 547 406 522 q 354 575 386 575 q 288 528 313 575 q 250 371 263 482 q 244 282 244 307 q 301 156 244 156 z "},"á":{"ha":668,"x_min":39,"x_max":632,"o":"m 215 -12 q 81 69 122 -12 q 39 279 39 151 q 44 375 39 311 q 133 644 64 551 q 300 738 201 738 q 381 717 350 738 q 439 665 411 697 q 455 705 447 693 q 479 723 463 717 q 529 729 496 729 l 546 729 q 628 694 628 729 q 624 648 626 675 q 618 596 621 621 q 611 536 613 554 l 590 340 l 575 185 q 593 154 575 154 q 603 156 599 154 q 613 157 607 157 q 627 144 622 157 q 632 117 632 132 q 597 25 632 61 q 496 -11 561 -11 q 375 94 393 -11 q 215 -12 319 -12 m 301 156 q 345 176 326 156 q 374 231 364 197 l 396 451 q 411 547 406 522 q 354 575 386 575 q 288 528 313 575 q 250 371 263 482 q 244 282 244 307 q 301 156 244 156 m 329 799 q 297 803 306 799 q 289 819 289 808 q 298 847 289 828 q 324 897 307 867 l 367 982 q 476 1019 386 1019 q 533 1015 515 1019 q 551 1000 551 1011 q 542 978 551 992 q 507 933 532 964 q 476 893 494 917 q 429 833 457 869 q 396 808 417 817 q 329 799 375 799 z "},"ă":{"ha":668,"x_min":39,"x_max":632,"o":"m 215 -12 q 81 69 122 -12 q 39 279 39 151 q 44 375 39 311 q 133 644 64 551 q 300 738 201 738 q 381 717 350 738 q 439 665 411 697 q 455 705 447 693 q 479 723 463 717 q 529 729 496 729 l 546 729 q 628 694 628 729 q 624 648 626 675 q 618 596 621 621 q 611 536 613 554 l 590 340 l 575 185 q 593 154 575 154 q 603 156 599 154 q 613 157 607 157 q 627 144 622 157 q 632 117 632 132 q 597 25 632 61 q 496 -11 561 -11 q 375 94 393 -11 q 215 -12 319 -12 m 301 156 q 345 176 326 156 q 374 231 364 197 l 396 451 q 411 547 406 522 q 354 575 386 575 q 288 528 313 575 q 250 371 263 482 q 244 282 244 307 q 301 156 244 156 m 376 799 q 253 838 294 799 q 211 932 211 878 q 272 993 211 993 q 311 968 301 993 q 318 953 313 965 q 342 933 324 940 q 392 925 360 925 q 451 936 433 925 q 474 958 468 947 q 482 971 481 968 q 499 987 488 981 q 524 993 510 993 q 574 946 579 993 q 517 844 568 889 q 376 799 465 799 z "},"ắ":{"ha":668,"x_min":39,"x_max":632,"o":"m 215 -12 q 81 69 122 -12 q 39 279 39 151 q 44 375 39 311 q 133 644 64 551 q 300 738 201 738 q 381 717 350 738 q 439 665 411 697 q 455 705 447 693 q 479 723 463 717 q 529 729 496 729 l 546 729 q 628 694 628 729 q 624 648 626 675 q 618 596 621 621 q 611 536 613 554 l 590 340 l 575 185 q 593 154 575 154 q 603 156 599 154 q 613 157 607 157 q 627 144 622 157 q 632 117 632 132 q 597 25 632 61 q 496 -11 561 -11 q 375 94 393 -11 q 215 -12 319 -12 m 301 156 q 345 176 326 156 q 374 231 364 197 l 396 451 q 411 547 406 522 q 354 575 386 575 q 288 528 313 575 q 250 371 263 482 q 244 282 244 307 q 301 156 244 156 m 376 799 q 253 838 294 799 q 211 932 211 878 q 272 993 211 993 q 311 968 301 993 q 318 953 313 965 q 342 933 324 940 q 392 925 360 925 q 451 936 433 925 q 474 958 468 947 q 482 971 481 968 q 499 987 488 981 q 524 993 510 993 q 574 946 579 993 q 517 844 568 889 q 376 799 465 799 m 354 1025 q 322 1030 331 1025 q 314 1046 314 1035 q 323 1074 314 1054 q 349 1124 332 1093 l 392 1208 q 501 1246 411 1246 q 558 1242 540 1246 q 576 1226 576 1238 q 567 1204 576 1218 q 532 1160 557 1190 q 501 1119 519 1143 q 454 1060 482 1096 q 421 1034 442 1043 q 354 1025 400 1025 z "},"ặ":{"ha":668,"x_min":39,"x_max":632,"o":"m 215 -12 q 81 69 122 -12 q 39 279 39 151 q 44 375 39 311 q 133 644 64 551 q 300 738 201 738 q 381 717 350 738 q 439 665 411 697 q 455 705 447 693 q 479 723 463 717 q 529 729 496 729 l 546 729 q 628 694 628 729 q 624 648 626 675 q 618 596 621 621 q 611 536 613 554 l 590 340 l 575 185 q 593 154 575 154 q 603 156 599 154 q 613 157 607 157 q 627 144 622 157 q 632 117 632 132 q 597 25 632 61 q 496 -11 561 -11 q 375 94 393 -11 q 215 -12 319 -12 m 301 156 q 345 176 326 156 q 374 231 364 197 l 396 451 q 411 547 406 522 q 354 575 386 575 q 288 528 313 575 q 250 371 263 482 q 244 282 244 307 q 301 156 244 156 m 308 -283 q 217 -239 210 -283 l 225 -156 q 322 -111 229 -111 q 415 -156 419 -111 l 407 -239 q 308 -283 400 -283 m 376 799 q 253 838 294 799 q 211 932 211 878 q 272 993 211 993 q 311 968 301 993 q 318 953 313 965 q 342 933 324 940 q 392 925 360 925 q 451 936 433 925 q 474 958 468 947 q 482 971 481 968 q 499 987 488 981 q 524 993 510 993 q 574 946 579 993 q 517 844 568 889 q 376 799 465 799 z "},"ằ":{"ha":668,"x_min":39,"x_max":632,"o":"m 215 -12 q 81 69 122 -12 q 39 279 39 151 q 44 375 39 311 q 133 644 64 551 q 300 738 201 738 q 381 717 350 738 q 439 665 411 697 q 455 705 447 693 q 479 723 463 717 q 529 729 496 729 l 546 729 q 628 694 628 729 q 624 648 626 675 q 618 596 621 621 q 611 536 613 554 l 590 340 l 575 185 q 593 154 575 154 q 603 156 599 154 q 613 157 607 157 q 627 144 622 157 q 632 117 632 132 q 597 25 632 61 q 496 -11 561 -11 q 375 94 393 -11 q 215 -12 319 -12 m 301 156 q 345 176 326 156 q 374 231 364 197 l 396 451 q 411 547 406 522 q 354 575 386 575 q 288 528 313 575 q 250 371 263 482 q 244 282 244 307 q 301 156 244 156 m 376 799 q 253 838 294 799 q 211 932 211 878 q 272 993 211 993 q 311 968 301 993 q 318 953 313 965 q 342 933 324 940 q 392 925 360 925 q 451 936 433 925 q 474 958 468 947 q 482 971 481 968 q 499 987 488 981 q 524 993 510 993 q 574 946 579 993 q 517 844 568 889 q 376 799 465 799 m 438 1025 q 371 1035 392 1025 q 339 1060 350 1044 l 268 1149 q 227 1201 239 1185 q 215 1226 215 1218 q 233 1242 215 1238 q 290 1246 251 1246 q 401 1208 381 1246 q 458 1097 439 1138 q 478 1046 478 1057 q 469 1029 478 1033 q 438 1025 461 1025 z "},"ẳ":{"ha":668,"x_min":39,"x_max":632,"o":"m 215 -12 q 81 69 122 -12 q 39 279 39 151 q 44 375 39 311 q 133 644 64 551 q 300 738 201 738 q 381 717 350 738 q 439 665 411 697 q 455 705 447 693 q 479 723 463 717 q 529 729 496 729 l 546 729 q 628 694 628 729 q 624 648 626 675 q 618 596 621 621 q 611 536 613 554 l 590 340 l 575 185 q 593 154 575 154 q 603 156 599 154 q 613 157 607 157 q 627 144 622 157 q 632 117 632 132 q 597 25 632 61 q 496 -11 561 -11 q 375 94 393 -11 q 215 -12 319 -12 m 301 156 q 345 176 326 156 q 374 231 364 197 l 396 451 q 411 547 406 522 q 354 575 386 575 q 288 528 313 575 q 250 371 263 482 q 244 282 244 307 q 301 156 244 156 m 376 799 q 253 838 294 799 q 211 932 211 878 q 272 993 211 993 q 311 968 301 993 q 318 953 313 965 q 342 933 324 940 q 392 925 360 925 q 451 936 433 925 q 474 958 468 947 q 482 971 481 968 q 499 987 488 981 q 524 993 510 993 q 574 946 579 993 q 517 844 568 889 q 376 799 465 799 m 428 1018 q 378 1030 404 1018 q 353 1050 353 1042 q 389 1088 353 1061 q 431 1123 415 1107 q 446 1154 446 1139 q 433 1176 446 1168 q 401 1185 419 1185 q 366 1176 383 1185 q 343 1168 349 1168 q 318 1190 335 1168 q 301 1226 301 1211 q 339 1255 301 1240 q 413 1269 376 1269 q 526 1240 486 1269 q 567 1160 567 1211 q 539 1094 567 1126 q 476 1040 511 1061 q 428 1018 442 1018 z "},"ẵ":{"ha":668,"x_min":39,"x_max":632,"o":"m 238 1054 q 215 1069 222 1058 q 208 1090 208 1079 q 213 1113 208 1099 q 256 1182 226 1156 q 326 1208 286 1208 q 410 1186 351 1208 q 440 1176 418 1183 q 474 1168 461 1168 q 506 1190 489 1168 q 522 1208 514 1203 q 540 1214 529 1214 q 557 1211 546 1214 l 571 1207 q 599 1171 599 1197 q 596 1150 599 1161 q 551 1081 582 1108 q 481 1053 519 1053 q 399 1075 457 1053 q 371 1085 393 1076 q 335 1093 349 1093 q 303 1071 317 1093 q 268 1047 286 1047 q 251 1050 263 1047 l 238 1054 m 376 799 q 253 838 294 799 q 211 932 211 878 q 272 993 211 993 q 311 968 301 993 q 318 953 313 965 q 342 933 324 940 q 392 925 360 925 q 451 936 433 925 q 474 958 468 947 q 482 971 481 968 q 499 987 488 981 q 524 993 510 993 q 574 946 579 993 q 517 844 568 889 q 376 799 465 799 m 215 -12 q 81 69 122 -12 q 39 279 39 151 q 44 375 39 311 q 133 644 64 551 q 300 738 201 738 q 381 717 350 738 q 439 665 411 697 q 455 705 447 693 q 479 723 463 717 q 529 729 496 729 l 546 729 q 628 694 628 729 q 624 648 626 675 q 618 596 621 621 q 611 536 613 554 l 590 340 l 575 185 q 593 154 575 154 q 603 156 599 154 q 613 157 607 157 q 627 144 622 157 q 632 117 632 132 q 597 25 632 61 q 496 -11 561 -11 q 375 94 393 -11 q 215 -12 319 -12 m 301 156 q 345 176 326 156 q 374 231 364 197 l 396 451 q 411 547 406 522 q 354 575 386 575 q 288 528 313 575 q 250 371 263 482 q 244 282 244 307 q 301 156 244 156 z "},"â":{"ha":668,"x_min":39,"x_max":632,"o":"m 215 -12 q 81 69 122 -12 q 39 279 39 151 q 44 375 39 311 q 133 644 64 551 q 300 738 201 738 q 381 717 350 738 q 439 665 411 697 q 455 705 447 693 q 479 723 463 717 q 529 729 496 729 l 546 729 q 628 694 628 729 q 624 648 626 675 q 618 596 621 621 q 611 536 613 554 l 590 340 l 575 185 q 593 154 575 154 q 603 156 599 154 q 613 157 607 157 q 627 144 622 157 q 632 117 632 132 q 597 25 632 61 q 496 -11 561 -11 q 375 94 393 -11 q 215 -12 319 -12 m 301 156 q 345 176 326 156 q 374 231 364 197 l 396 451 q 411 547 406 522 q 354 575 386 575 q 288 528 313 575 q 250 371 263 482 q 244 282 244 307 q 301 156 244 156 m 232 794 q 204 808 203 794 q 215 832 204 813 l 313 971 q 344 992 325 988 q 394 997 363 997 l 397 997 q 447 992 429 997 q 474 971 465 988 l 542 832 q 550 808 550 818 q 521 794 549 794 l 482 794 q 414 819 424 794 l 383 883 l 342 821 q 313 801 331 807 q 269 794 296 794 l 232 794 z "},"ấ":{"ha":668,"x_min":39,"x_max":746,"o":"m 524 985 q 492 990 500 985 q 483 1006 483 994 q 492 1033 483 1014 q 518 1083 501 1053 l 561 1168 q 671 1206 581 1206 q 728 1201 710 1206 q 746 1186 746 1197 q 736 1164 746 1178 q 701 1119 726 1150 q 670 1079 689 1103 q 624 1019 651 1056 q 590 994 611 1003 q 524 985 569 985 m 242 794 q 219 797 225 794 q 214 808 213 800 q 217 820 214 814 q 222 829 221 826 l 315 971 q 345 992 326 988 q 397 997 364 997 l 400 997 q 451 992 433 997 q 475 971 468 988 l 538 829 q 543 808 543 818 q 514 794 542 794 l 476 794 q 407 819 417 794 l 386 883 l 351 821 q 324 799 342 804 q 279 794 306 794 l 242 794 m 215 -12 q 81 69 122 -12 q 39 279 39 151 q 44 375 39 311 q 133 644 64 551 q 300 738 201 738 q 381 717 350 738 q 439 665 411 697 q 455 705 447 693 q 479 723 463 717 q 529 729 496 729 l 546 729 q 628 694 628 729 q 624 648 626 675 q 618 596 621 621 q 611 536 613 554 l 590 340 l 575 185 q 593 154 575 154 q 603 156 599 154 q 613 157 607 157 q 627 144 622 157 q 632 117 632 132 q 597 25 632 61 q 496 -11 561 -11 q 375 94 393 -11 q 215 -12 319 -12 m 301 156 q 345 176 326 156 q 374 231 364 197 l 396 451 q 411 547 406 522 q 354 575 386 575 q 288 528 313 575 q 250 371 263 482 q 244 282 244 307 q 301 156 244 156 z "},"ậ":{"ha":668,"x_min":39,"x_max":632,"o":"m 215 -12 q 81 69 122 -12 q 39 279 39 151 q 44 375 39 311 q 133 644 64 551 q 300 738 201 738 q 381 717 350 738 q 439 665 411 697 q 455 705 447 693 q 479 723 463 717 q 529 729 496 729 l 546 729 q 628 694 628 729 q 624 648 626 675 q 618 596 621 621 q 611 536 613 554 l 590 340 l 575 185 q 593 154 575 154 q 603 156 599 154 q 613 157 607 157 q 627 144 622 157 q 632 117 632 132 q 597 25 632 61 q 496 -11 561 -11 q 375 94 393 -11 q 215 -12 319 -12 m 301 156 q 345 176 326 156 q 374 231 364 197 l 396 451 q 411 547 406 522 q 354 575 386 575 q 288 528 313 575 q 250 371 263 482 q 244 282 244 307 q 301 156 244 156 m 308 -283 q 217 -239 210 -283 l 225 -156 q 322 -111 229 -111 q 415 -156 419 -111 l 407 -239 q 308 -283 400 -283 m 232 794 q 204 808 203 794 q 215 832 204 813 l 313 971 q 344 992 325 988 q 394 997 363 997 l 397 997 q 447 992 429 997 q 474 971 465 988 l 542 832 q 550 808 550 818 q 521 794 549 794 l 482 794 q 414 819 424 794 l 383 883 l 342 821 q 313 801 331 807 q 269 794 296 794 l 232 794 z "},"ầ":{"ha":668,"x_min":39,"x_max":647,"o":"m 607 985 q 540 994 561 985 q 508 1019 519 1004 l 438 1108 q 397 1161 408 1144 q 385 1186 385 1178 q 403 1201 385 1197 q 460 1206 421 1206 q 571 1168 550 1206 q 628 1057 608 1097 q 647 1006 647 1017 q 639 989 647 993 q 607 985 631 985 m 242 794 q 219 797 225 794 q 214 808 213 800 q 217 820 214 814 q 222 829 221 826 l 315 971 q 345 992 326 988 q 397 997 364 997 l 400 997 q 451 992 433 997 q 475 971 468 988 l 538 829 q 543 808 543 818 q 514 794 542 794 l 476 794 q 407 819 417 794 l 386 883 l 351 821 q 324 799 342 804 q 279 794 306 794 l 242 794 m 215 -12 q 81 69 122 -12 q 39 279 39 151 q 44 375 39 311 q 133 644 64 551 q 300 738 201 738 q 381 717 350 738 q 439 665 411 697 q 455 705 447 693 q 479 723 463 717 q 529 729 496 729 l 546 729 q 628 694 628 729 q 624 648 626 675 q 618 596 621 621 q 611 536 613 554 l 590 340 l 575 185 q 593 154 575 154 q 603 156 599 154 q 613 157 607 157 q 627 144 622 157 q 632 117 632 132 q 597 25 632 61 q 496 -11 561 -11 q 375 94 393 -11 q 215 -12 319 -12 m 301 156 q 345 176 326 156 q 374 231 364 197 l 396 451 q 411 547 406 522 q 354 575 386 575 q 288 528 313 575 q 250 371 263 482 q 244 282 244 307 q 301 156 244 156 z "},"ẩ":{"ha":668,"x_min":39,"x_max":736,"o":"m 597 978 q 548 990 574 978 q 522 1010 522 1001 q 558 1047 522 1021 q 600 1083 585 1067 q 615 1114 615 1099 q 602 1136 615 1128 q 571 1144 589 1144 q 535 1136 553 1144 q 513 1128 518 1128 q 488 1149 504 1128 q 471 1186 471 1171 q 508 1215 471 1200 q 582 1229 546 1229 q 696 1200 656 1229 q 736 1119 736 1171 q 708 1053 736 1086 q 646 999 681 1021 q 597 978 611 978 m 242 794 q 219 797 225 794 q 214 808 213 800 q 217 820 214 814 q 222 829 221 826 l 315 971 q 345 992 326 988 q 397 997 364 997 l 400 997 q 451 992 433 997 q 475 971 468 988 l 538 829 q 543 808 543 818 q 514 794 542 794 l 476 794 q 407 819 417 794 l 386 883 l 351 821 q 324 799 342 804 q 279 794 306 794 l 242 794 m 215 -12 q 81 69 122 -12 q 39 279 39 151 q 44 375 39 311 q 133 644 64 551 q 300 738 201 738 q 381 717 350 738 q 439 665 411 697 q 455 705 447 693 q 479 723 463 717 q 529 729 496 729 l 546 729 q 628 694 628 729 q 624 648 626 675 q 618 596 621 621 q 611 536 613 554 l 590 340 l 575 185 q 593 154 575 154 q 603 156 599 154 q 613 157 607 157 q 627 144 622 157 q 632 117 632 132 q 597 25 632 61 q 496 -11 561 -11 q 375 94 393 -11 q 215 -12 319 -12 m 301 156 q 345 176 326 156 q 374 231 364 197 l 396 451 q 411 547 406 522 q 354 575 386 575 q 288 528 313 575 q 250 371 263 482 q 244 282 244 307 q 301 156 244 156 z "},"ẫ":{"ha":668,"x_min":39,"x_max":632,"o":"m 242 1054 q 219 1069 226 1058 q 213 1090 213 1079 q 217 1113 213 1099 q 260 1182 231 1156 q 331 1208 290 1208 q 414 1186 356 1208 q 444 1176 422 1183 q 478 1168 465 1168 q 510 1190 493 1168 q 526 1208 518 1203 q 544 1214 533 1214 q 561 1211 550 1214 l 575 1207 q 603 1171 603 1197 q 600 1150 603 1161 q 555 1081 586 1108 q 485 1053 524 1053 q 403 1075 461 1053 q 375 1085 397 1076 q 339 1093 353 1093 q 307 1071 321 1093 q 272 1047 290 1047 q 256 1050 267 1047 l 242 1054 m 232 794 q 204 808 203 794 q 215 832 204 813 l 313 971 q 344 992 325 988 q 394 997 363 997 l 397 997 q 447 992 429 997 q 474 971 465 988 l 542 832 q 550 808 550 818 q 521 794 549 794 l 482 794 q 414 819 424 794 l 383 883 l 342 821 q 313 801 331 807 q 269 794 296 794 l 232 794 m 215 -12 q 81 69 122 -12 q 39 279 39 151 q 44 375 39 311 q 133 644 64 551 q 300 738 201 738 q 381 717 350 738 q 439 665 411 697 q 455 705 447 693 q 479 723 463 717 q 529 729 496 729 l 546 729 q 628 694 628 729 q 624 648 626 675 q 618 596 621 621 q 611 536 613 554 l 590 340 l 575 185 q 593 154 575 154 q 603 156 599 154 q 613 157 607 157 q 627 144 622 157 q 632 117 632 132 q 597 25 632 61 q 496 -11 561 -11 q 375 94 393 -11 q 215 -12 319 -12 m 301 156 q 345 176 326 156 q 374 231 364 197 l 396 451 q 411 547 406 522 q 354 575 386 575 q 288 528 313 575 q 250 371 263 482 q 244 282 244 307 q 301 156 244 156 z "},"ä":{"ha":668,"x_min":39,"x_max":632,"o":"m 215 -12 q 81 69 122 -12 q 39 279 39 151 q 44 375 39 311 q 133 644 64 551 q 300 738 201 738 q 381 717 350 738 q 439 665 411 697 q 455 705 447 693 q 479 723 463 717 q 529 729 496 729 l 546 729 q 628 694 628 729 q 624 648 626 675 q 618 596 621 621 q 611 536 613 554 l 590 340 l 575 185 q 593 154 575 154 q 603 156 599 154 q 613 157 607 157 q 627 144 622 157 q 632 117 632 132 q 597 25 632 61 q 496 -11 561 -11 q 375 94 393 -11 q 215 -12 319 -12 m 301 156 q 345 176 326 156 q 374 231 364 197 l 396 451 q 411 547 406 522 q 354 575 386 575 q 288 528 313 575 q 250 371 263 482 q 244 282 244 307 q 301 156 244 156 m 267 803 q 192 847 185 803 l 200 931 q 282 975 204 975 q 358 931 363 975 l 350 847 q 267 803 343 803 m 492 803 q 417 847 410 803 l 425 931 q 507 975 429 975 q 583 931 588 975 l 575 847 q 492 803 568 803 z "},"ạ":{"ha":668,"x_min":39,"x_max":632,"o":"m 215 -12 q 81 69 122 -12 q 39 279 39 151 q 44 375 39 311 q 133 644 64 551 q 300 738 201 738 q 381 717 350 738 q 439 665 411 697 q 455 705 447 693 q 479 723 463 717 q 529 729 496 729 l 546 729 q 628 694 628 729 q 624 648 626 675 q 618 596 621 621 q 611 536 613 554 l 590 340 l 575 185 q 593 154 575 154 q 603 156 599 154 q 613 157 607 157 q 627 144 622 157 q 632 117 632 132 q 597 25 632 61 q 496 -11 561 -11 q 375 94 393 -11 q 215 -12 319 -12 m 301 156 q 345 176 326 156 q 374 231 364 197 l 396 451 q 411 547 406 522 q 354 575 386 575 q 288 528 313 575 q 250 371 263 482 q 244 282 244 307 q 301 156 244 156 m 308 -283 q 217 -239 210 -283 l 225 -156 q 322 -111 229 -111 q 415 -156 419 -111 l 407 -239 q 308 -283 400 -283 z "},"à":{"ha":668,"x_min":39,"x_max":632,"o":"m 215 -12 q 81 69 122 -12 q 39 279 39 151 q 44 375 39 311 q 133 644 64 551 q 300 738 201 738 q 381 717 350 738 q 439 665 411 697 q 455 705 447 693 q 479 723 463 717 q 529 729 496 729 l 546 729 q 628 694 628 729 q 624 648 626 675 q 618 596 621 621 q 611 536 613 554 l 590 340 l 575 185 q 593 154 575 154 q 603 156 599 154 q 613 157 607 157 q 627 144 622 157 q 632 117 632 132 q 597 25 632 61 q 496 -11 561 -11 q 375 94 393 -11 q 215 -12 319 -12 m 301 156 q 345 176 326 156 q 374 231 364 197 l 396 451 q 411 547 406 522 q 354 575 386 575 q 288 528 313 575 q 250 371 263 482 q 244 282 244 307 q 301 156 244 156 m 413 799 q 346 808 367 799 q 314 833 325 818 l 243 922 q 202 975 214 958 q 190 1000 190 992 q 208 1015 190 1011 q 265 1019 226 1019 q 376 982 356 1019 q 433 871 414 911 q 453 819 453 831 q 444 803 453 807 q 413 799 436 799 z "},"ả":{"ha":668,"x_min":39,"x_max":632,"o":"m 215 -12 q 81 69 122 -12 q 39 279 39 151 q 44 375 39 311 q 133 644 64 551 q 300 738 201 738 q 381 717 350 738 q 439 665 411 697 q 455 705 447 693 q 479 723 463 717 q 529 729 496 729 l 546 729 q 628 694 628 729 q 624 648 626 675 q 618 596 621 621 q 611 536 613 554 l 590 340 l 575 185 q 593 154 575 154 q 603 156 599 154 q 613 157 607 157 q 627 144 622 157 q 632 117 632 132 q 597 25 632 61 q 496 -11 561 -11 q 375 94 393 -11 q 215 -12 319 -12 m 301 156 q 345 176 326 156 q 374 231 364 197 l 396 451 q 411 547 406 522 q 354 575 386 575 q 288 528 313 575 q 250 371 263 482 q 244 282 244 307 q 301 156 244 156 m 403 792 q 353 803 379 792 q 328 824 328 815 q 364 861 328 835 q 406 897 390 881 q 421 928 421 913 q 408 950 421 942 q 376 958 394 958 q 341 950 358 958 q 318 942 324 942 q 293 963 310 942 q 276 1000 276 985 q 314 1028 276 1014 q 388 1043 351 1043 q 501 1014 461 1043 q 542 933 542 985 q 514 867 542 900 q 451 813 486 835 q 403 792 417 792 z "},"ā":{"ha":668,"x_min":39,"x_max":632,"o":"m 215 -12 q 81 69 122 -12 q 39 279 39 151 q 44 375 39 311 q 133 644 64 551 q 300 738 201 738 q 381 717 350 738 q 439 665 411 697 q 455 705 447 693 q 479 723 463 717 q 529 729 496 729 l 546 729 q 628 694 628 729 q 624 648 626 675 q 618 596 621 621 q 611 536 613 554 l 590 340 l 575 185 q 593 154 575 154 q 603 156 599 154 q 613 157 607 157 q 627 144 622 157 q 632 117 632 132 q 597 25 632 61 q 496 -11 561 -11 q 375 94 393 -11 q 215 -12 319 -12 m 301 156 q 345 176 326 156 q 374 231 364 197 l 396 451 q 411 547 406 522 q 354 575 386 575 q 288 528 313 575 q 250 371 263 482 q 244 282 244 307 q 301 156 244 156 m 247 829 q 218 842 226 829 q 213 885 210 856 l 215 906 q 229 948 218 935 q 261 961 240 961 l 526 961 q 563 921 563 961 l 561 906 l 558 885 q 546 842 557 856 q 513 829 535 829 l 247 829 z "},"ą":{"ha":668,"x_min":39,"x_max":674,"o":"m 632 -158 q 664 -167 654 -158 q 674 -200 674 -176 q 650 -243 674 -229 q 572 -260 615 -260 q 465 -218 493 -260 q 438 -129 438 -176 q 467 -8 438 -71 q 375 94 390 4 q 215 -12 319 -12 q 81 69 122 -12 q 39 279 39 151 q 44 375 39 311 q 133 644 64 551 q 300 738 201 738 q 381 717 350 738 q 439 665 411 697 q 455 705 447 693 q 479 723 463 717 q 529 729 496 729 l 546 729 q 628 694 628 729 q 624 648 626 675 q 618 596 621 621 q 611 536 613 554 l 590 340 l 575 185 q 593 154 575 154 q 603 156 599 154 q 613 157 607 157 q 627 144 622 157 q 632 117 632 132 q 612 44 632 75 q 553 -1 592 13 q 531 -103 531 -54 q 599 -164 531 -164 q 618 -161 610 -164 q 632 -158 626 -158 m 396 451 q 411 547 406 522 q 354 575 386 575 q 288 528 313 575 q 250 371 263 482 q 244 282 244 307 q 301 156 244 156 q 345 176 326 156 q 374 231 364 197 l 396 451 z "},"å":{"ha":668,"x_min":39,"x_max":632,"o":"m 215 -12 q 81 69 122 -12 q 39 279 39 151 q 44 375 39 311 q 133 644 64 551 q 300 738 201 738 q 381 717 350 738 q 439 665 411 697 q 455 705 447 693 q 479 723 463 717 q 529 729 496 729 l 546 729 q 628 694 628 729 q 624 648 626 675 q 618 596 621 621 q 611 536 613 554 l 590 340 l 575 185 q 593 154 575 154 q 603 156 599 154 q 613 157 607 157 q 627 144 622 157 q 632 117 632 132 q 597 25 632 61 q 496 -11 561 -11 q 375 94 393 -11 q 215 -12 319 -12 m 301 156 q 345 176 326 156 q 374 231 364 197 l 396 451 q 411 547 406 522 q 354 575 386 575 q 288 528 313 575 q 250 371 263 482 q 244 282 244 307 q 301 156 244 156 m 372 764 q 282 797 314 764 q 250 882 250 829 q 292 996 250 951 q 401 1040 333 1040 q 494 1008 461 1040 q 526 921 526 975 q 484 808 526 853 q 372 764 442 764 m 383 850 q 422 863 407 850 q 440 900 438 876 q 431 938 443 924 q 394 951 418 951 q 355 938 369 951 q 338 900 340 924 q 347 863 335 876 q 383 850 358 850 z "},"ǻ":{"ha":668,"x_min":39,"x_max":632,"o":"m 215 -12 q 81 69 122 -12 q 39 279 39 151 q 44 375 39 311 q 133 644 64 551 q 300 738 201 738 q 381 717 350 738 q 439 665 411 697 q 455 705 447 693 q 479 723 463 717 q 529 729 496 729 l 546 729 q 628 694 628 729 q 624 648 626 675 q 618 596 621 621 q 611 536 613 554 l 590 340 l 575 185 q 593 154 575 154 q 603 156 599 154 q 613 157 607 157 q 627 144 622 157 q 632 117 632 132 q 597 25 632 61 q 496 -11 561 -11 q 375 94 393 -11 q 215 -12 319 -12 m 301 156 q 345 176 326 156 q 374 231 364 197 l 396 451 q 411 547 406 522 q 354 575 386 575 q 288 528 313 575 q 250 371 263 482 q 244 282 244 307 q 301 156 244 156 m 382 764 q 292 797 324 764 q 260 882 260 829 q 301 996 260 951 q 411 1040 343 1040 q 503 1008 471 1040 q 536 921 536 975 q 494 808 536 853 q 382 764 451 764 m 393 850 q 432 863 417 850 q 450 900 447 876 q 440 938 453 924 q 404 951 428 951 q 365 938 379 951 q 347 900 350 924 q 356 863 344 876 q 393 850 368 850 m 403 1063 q 371 1067 379 1063 q 363 1083 363 1072 q 372 1111 363 1092 q 397 1161 381 1131 l 440 1246 q 550 1283 460 1283 q 607 1279 589 1283 q 625 1264 625 1275 q 615 1242 625 1256 q 581 1197 606 1228 q 549 1157 568 1181 q 503 1097 531 1133 q 469 1072 490 1081 q 403 1063 449 1063 z "},"ã":{"ha":668,"x_min":39,"x_max":632,"o":"m 215 -12 q 81 69 122 -12 q 39 279 39 151 q 44 375 39 311 q 133 644 64 551 q 300 738 201 738 q 381 717 350 738 q 439 665 411 697 q 455 705 447 693 q 479 723 463 717 q 529 729 496 729 l 546 729 q 628 694 628 729 q 624 648 626 675 q 618 596 621 621 q 611 536 613 554 l 590 340 l 575 185 q 593 154 575 154 q 603 156 599 154 q 613 157 607 157 q 627 144 622 157 q 632 117 632 132 q 597 25 632 61 q 496 -11 561 -11 q 375 94 393 -11 q 215 -12 319 -12 m 301 156 q 345 176 326 156 q 374 231 364 197 l 396 451 q 411 547 406 522 q 354 575 386 575 q 288 528 313 575 q 250 371 263 482 q 244 282 244 307 q 301 156 244 156 m 179 810 q 147 846 147 818 q 153 868 147 856 q 201 937 168 910 q 278 964 233 964 q 369 942 306 964 q 403 931 379 939 q 439 924 426 924 q 475 946 457 924 q 492 964 483 958 q 513 969 500 969 q 532 967 518 969 l 546 963 q 578 926 578 953 q 574 906 578 922 q 524 836 558 864 q 447 808 490 808 q 357 831 421 808 q 324 841 349 833 q 286 849 299 849 q 251 826 267 849 q 233 808 242 814 q 213 803 224 803 q 194 806 206 803 l 179 810 z "},"æ":{"ha":922,"x_min":11,"x_max":901,"o":"m 199 -11 q 63 40 114 -11 q 11 178 11 92 q 13 207 11 197 q 47 332 19 276 q 150 426 74 388 q 365 465 226 465 q 383 525 369 490 q 293 575 369 575 q 240 567 264 575 q 185 547 215 560 q 150 535 157 535 q 109 574 129 535 q 89 642 89 614 q 123 689 89 667 q 213 724 157 711 q 328 738 268 738 q 431 726 385 738 q 507 694 478 714 q 674 738 574 738 q 844 665 788 738 q 901 456 901 593 q 896 369 901 431 q 863 320 894 353 q 817 288 831 288 l 554 288 q 553 260 553 278 q 579 177 553 203 q 650 151 606 151 q 703 159 679 151 q 760 181 726 167 q 789 192 779 192 q 828 154 807 192 q 849 89 849 117 q 810 37 849 60 q 718 1 772 14 q 617 -11 664 -11 q 403 71 476 -11 q 319 13 375 36 q 199 -11 263 -11 m 706 425 q 710 486 710 461 q 697 554 710 533 q 658 575 685 575 q 602 543 625 575 q 565 425 579 511 l 706 425 m 260 151 q 308 163 285 151 q 349 197 332 175 q 343 268 343 226 q 346 331 343 286 q 210 222 221 331 q 219 171 207 190 q 260 151 232 151 z "},"ǽ":{"ha":922,"x_min":11,"x_max":901,"o":"m 199 -11 q 63 40 114 -11 q 11 178 11 92 q 13 207 11 197 q 47 332 19 276 q 150 426 74 388 q 365 465 226 465 q 383 525 369 490 q 293 575 369 575 q 240 567 264 575 q 185 547 215 560 q 150 535 157 535 q 109 574 129 535 q 89 642 89 614 q 123 689 89 667 q 213 724 157 711 q 328 738 268 738 q 431 726 385 738 q 507 694 478 714 q 674 738 574 738 q 844 665 788 738 q 901 456 901 593 q 896 369 901 431 q 863 320 894 353 q 817 288 831 288 l 554 288 q 553 260 553 278 q 579 177 553 203 q 650 151 606 151 q 703 159 679 151 q 760 181 726 167 q 789 192 779 192 q 828 154 807 192 q 849 89 849 117 q 810 37 849 60 q 718 1 772 14 q 617 -11 664 -11 q 403 71 476 -11 q 319 13 375 36 q 199 -11 263 -11 m 706 425 q 710 486 710 461 q 697 554 710 533 q 658 575 685 575 q 602 543 625 575 q 565 425 579 511 l 706 425 m 260 151 q 308 163 285 151 q 349 197 332 175 q 343 268 343 226 q 346 331 343 286 q 210 222 221 331 q 219 171 207 190 q 260 151 232 151 m 463 799 q 431 803 439 799 q 422 819 422 808 q 431 847 422 828 q 457 897 440 867 l 500 982 q 610 1019 519 1019 q 667 1015 649 1019 q 685 1000 685 1011 q 675 978 685 992 q 640 933 665 964 q 609 893 628 917 q 563 833 590 869 q 529 808 550 817 q 463 799 508 799 z "},"b":{"ha":669,"x_min":28,"x_max":622,"o":"m 367 -11 q 281 16 319 -11 q 224 86 242 43 l 207 33 q 181 5 199 13 q 128 -3 163 -3 l 111 -3 q 32 42 28 -3 l 133 1003 q 221 1047 138 1047 l 260 1047 q 339 1003 343 1047 l 306 696 q 426 738 358 738 q 572 665 521 738 q 622 456 622 593 q 617 361 622 406 q 531 87 599 185 q 367 -11 463 -11 m 317 157 q 376 203 354 157 q 408 363 397 250 q 414 460 414 414 q 399 549 414 522 q 351 575 383 575 q 292 554 321 575 l 254 204 q 317 157 279 157 z "},"c":{"ha":567,"x_min":43,"x_max":578,"o":"m 303 -11 q 43 279 43 -11 q 47 361 43 318 q 386 738 86 738 q 519 710 461 738 q 578 646 578 683 q 565 606 578 633 q 535 558 553 579 q 504 536 518 536 q 479 547 494 536 q 438 567 457 560 q 392 575 418 575 q 302 526 335 575 q 257 364 269 478 q 253 290 253 322 q 275 184 253 217 q 343 151 297 151 q 389 158 368 151 q 424 172 410 165 q 444 181 439 178 q 471 190 467 190 q 508 151 492 190 q 521 85 524 111 q 481 36 518 58 q 394 1 444 14 q 303 -11 343 -11 z "},"ć":{"ha":567,"x_min":43,"x_max":578,"o":"m 303 -11 q 43 279 43 -11 q 47 361 43 318 q 386 738 86 738 q 519 710 461 738 q 578 646 578 683 q 565 606 578 633 q 535 558 553 579 q 504 536 518 536 q 479 547 494 536 q 438 567 457 560 q 392 575 418 575 q 302 526 335 575 q 257 364 269 478 q 253 290 253 322 q 275 184 253 217 q 343 151 297 151 q 389 158 368 151 q 424 172 410 165 q 444 181 439 178 q 471 190 467 190 q 508 151 492 190 q 521 85 524 111 q 481 36 518 58 q 394 1 444 14 q 303 -11 343 -11 m 314 799 q 282 803 290 799 q 274 819 274 808 q 283 847 274 828 q 308 897 292 867 l 351 982 q 461 1019 371 1019 q 518 1015 500 1019 q 536 1000 536 1011 q 526 978 536 992 q 492 933 517 964 q 460 893 479 917 q 414 833 442 869 q 381 808 401 817 q 314 799 360 799 z "},"č":{"ha":567,"x_min":43,"x_max":578,"o":"m 303 -11 q 43 279 43 -11 q 47 361 43 318 q 386 738 86 738 q 519 710 461 738 q 578 646 578 683 q 565 606 578 633 q 535 558 553 579 q 504 536 518 536 q 479 547 494 536 q 438 567 457 560 q 392 575 418 575 q 302 526 335 575 q 257 364 269 478 q 253 290 253 322 q 275 184 253 217 q 343 151 297 151 q 389 158 368 151 q 424 172 410 165 q 444 181 439 178 q 471 190 467 190 q 508 151 492 190 q 521 85 524 111 q 481 36 518 58 q 394 1 444 14 q 303 -11 343 -11 m 357 794 q 308 799 325 794 q 283 821 292 804 l 215 960 q 208 983 208 976 q 239 997 210 997 l 276 997 q 319 991 303 997 q 343 971 335 985 l 372 908 l 415 972 q 489 997 431 997 l 528 997 q 554 983 556 997 q 542 960 554 978 l 444 821 q 414 799 432 804 q 365 794 396 794 l 357 794 z "},"ç":{"ha":567,"x_min":43,"x_max":578,"o":"m 386 738 q 519 710 461 738 q 578 646 578 683 q 565 606 578 633 q 535 558 553 579 q 504 536 518 536 q 479 547 494 536 q 438 567 457 560 q 392 575 418 575 q 302 526 335 575 q 257 364 269 478 q 253 290 253 322 q 275 184 253 217 q 343 151 297 151 q 389 158 368 151 q 424 172 410 165 q 444 181 439 178 q 471 190 467 190 q 508 151 492 190 q 521 85 524 111 q 463 26 518 51 q 342 -8 407 0 l 325 -67 q 390 -99 365 -74 q 414 -169 414 -125 q 375 -262 414 -231 q 269 -294 336 -294 q 166 -273 210 -294 q 122 -222 122 -251 q 138 -181 122 -197 q 167 -164 154 -164 q 201 -176 179 -164 q 221 -185 204 -178 q 257 -193 238 -193 q 285 -171 285 -193 q 277 -153 285 -160 q 253 -140 269 -147 q 228 -127 236 -133 q 219 -110 219 -121 q 239 -46 219 -99 q 251 -8 243 -29 q 43 281 43 19 q 47 361 43 318 q 386 738 86 738 z "},"ĉ":{"ha":567,"x_min":43,"x_max":578,"o":"m 303 -11 q 43 279 43 -11 q 47 361 43 318 q 386 738 86 738 q 519 710 461 738 q 578 646 578 683 q 565 606 578 633 q 535 558 553 579 q 504 536 518 536 q 479 547 494 536 q 438 567 457 560 q 392 575 418 575 q 302 526 335 575 q 257 364 269 478 q 253 290 253 322 q 275 184 253 217 q 343 151 297 151 q 389 158 368 151 q 424 172 410 165 q 444 181 439 178 q 471 190 467 190 q 508 151 492 190 q 521 85 524 111 q 481 36 518 58 q 394 1 444 14 q 303 -11 343 -11 m 217 794 q 189 808 188 794 q 200 832 189 813 l 297 971 q 328 992 310 988 q 379 997 347 997 l 382 997 q 432 992 414 997 q 458 971 450 988 l 526 832 q 535 808 535 818 q 506 794 533 794 l 467 794 q 399 819 408 794 l 368 883 l 326 821 q 298 801 315 807 q 254 794 281 794 l 217 794 z "},"ċ":{"ha":567,"x_min":43,"x_max":578,"o":"m 303 -11 q 43 279 43 -11 q 47 361 43 318 q 386 738 86 738 q 519 710 461 738 q 578 646 578 683 q 565 606 578 633 q 535 558 553 579 q 504 536 518 536 q 479 547 494 536 q 438 567 457 560 q 392 575 418 575 q 302 526 335 575 q 257 364 269 478 q 253 290 253 322 q 275 184 253 217 q 343 151 297 151 q 389 158 368 151 q 424 172 410 165 q 444 181 439 178 q 471 190 467 190 q 508 151 492 190 q 521 85 524 111 q 481 36 518 58 q 394 1 444 14 q 303 -11 343 -11 m 364 803 q 272 847 265 803 l 281 931 q 378 975 285 975 q 471 931 475 975 l 463 847 q 364 803 456 803 z "},"d":{"ha":668,"x_min":40,"x_max":668,"o":"m 214 -11 q 88 63 135 -11 q 40 274 40 138 q 46 367 40 322 q 135 641 64 544 q 317 738 207 738 q 426 697 383 738 l 458 1003 q 546 1047 463 1047 l 585 1047 q 664 1003 668 1047 l 638 764 q 578 185 578 206 q 596 154 578 154 q 606 156 601 154 q 615 157 610 157 q 630 144 625 157 q 635 117 635 132 q 599 25 635 61 q 499 -11 564 -11 q 378 99 393 -11 q 310 19 354 50 q 214 -11 267 -11 m 301 157 q 375 213 342 157 l 411 556 q 356 575 386 575 q 290 526 314 575 q 253 363 265 476 q 247 271 247 317 q 260 184 247 211 q 301 157 274 157 z "},"ð":{"ha":663,"x_min":43,"x_max":628,"o":"m 582 931 q 613 913 599 931 q 628 876 628 896 q 596 850 628 854 l 531 842 q 594 666 569 769 q 619 451 619 563 q 615 364 619 408 q 517 83 596 178 q 292 -11 439 -11 q 109 67 175 -11 q 43 292 43 146 q 47 364 43 326 q 148 637 67 543 q 369 731 229 731 q 392 729 385 731 q 357 818 378 771 q 272 807 281 807 q 238 824 253 807 q 224 861 224 840 q 231 880 224 874 q 256 888 238 886 l 315 896 q 308 906 313 900 q 299 921 303 913 q 271 967 269 958 q 299 983 271 979 l 386 993 q 438 978 414 993 q 486 918 457 961 l 582 931 m 407 364 q 414 461 414 429 q 399 543 414 518 q 354 568 385 568 q 290 522 313 568 q 256 364 268 476 q 249 264 249 297 q 263 177 249 203 q 310 151 278 151 q 372 199 350 151 q 407 364 394 247 z "},"ď":{"ha":668,"x_min":40,"x_max":842,"o":"m 214 -11 q 88 63 135 -11 q 40 274 40 138 q 46 367 40 322 q 135 641 64 544 q 317 738 207 738 q 426 697 383 738 l 458 1003 q 546 1047 463 1047 l 585 1047 q 664 1003 668 1047 l 638 764 q 578 185 578 206 q 596 154 578 154 q 606 156 601 154 q 615 157 610 157 q 630 144 625 157 q 635 117 635 132 q 599 25 635 61 q 499 -11 564 -11 q 378 99 393 -11 q 310 19 354 50 q 214 -11 267 -11 m 301 157 q 375 213 342 157 l 411 556 q 356 575 386 575 q 290 526 314 575 q 253 363 265 476 q 247 271 247 317 q 260 184 247 211 q 301 157 274 157 m 733 710 q 691 717 711 710 q 671 740 671 725 q 674 842 671 783 q 676 911 676 892 q 760 972 676 972 l 786 972 q 828 956 814 972 q 842 911 842 939 q 823 822 842 868 q 778 743 804 775 q 733 710 751 711 z "},"đ":{"ha":668,"x_min":40,"x_max":711,"o":"m 675 942 q 711 901 711 942 l 710 886 l 707 865 q 694 823 706 836 q 661 810 683 810 l 643 810 q 628 672 639 760 q 578 185 578 206 q 596 154 578 154 q 606 156 601 154 q 615 157 610 157 q 630 144 625 157 q 635 117 635 132 q 599 25 635 61 q 499 -11 564 -11 q 378 99 393 -11 q 310 19 354 50 q 214 -11 267 -11 q 88 63 135 -11 q 40 274 40 138 q 46 367 40 322 q 135 641 64 544 q 317 738 207 738 q 426 697 383 738 l 438 810 l 396 810 q 367 823 375 810 q 361 865 358 836 l 364 886 q 378 928 367 915 q 410 942 389 942 l 451 942 l 458 1003 q 546 1047 463 1047 l 585 1047 q 664 1007 664 1047 q 661 971 664 992 q 657 942 658 950 l 675 942 m 411 556 q 356 575 386 575 q 290 526 314 575 q 253 363 265 476 q 247 271 247 317 q 260 184 247 211 q 301 157 274 157 q 375 213 342 157 l 411 556 z "},"ḍ":{"ha":668,"x_min":40,"x_max":664,"o":"m 214 -11 q 88 63 135 -11 q 40 274 40 138 q 46 367 40 322 q 135 641 64 544 q 317 738 207 738 q 426 697 383 738 l 458 1003 q 546 1047 463 1047 l 585 1047 q 664 1003 668 1047 l 638 764 q 578 185 578 206 q 596 154 578 154 q 606 156 601 154 q 615 157 610 157 q 630 144 625 157 q 635 117 635 132 q 599 25 635 61 q 499 -11 564 -11 q 378 99 393 -11 q 310 19 354 50 q 214 -11 267 -11 m 301 157 q 375 213 342 157 l 411 556 q 356 575 386 575 q 290 526 314 575 q 253 363 265 476 q 247 271 247 317 q 260 184 247 211 q 301 157 274 157 m 343 -283 q 251 -239 244 -283 l 260 -156 q 357 -111 264 -111 q 450 -156 454 -111 l 442 -239 q 343 -283 435 -283 z "},"ǳ":{"ha":1231,"x_min":40,"x_max":1215,"o":"m 214 -11 q 88 63 135 -11 q 40 274 40 138 q 46 367 40 322 q 135 641 64 544 q 317 738 207 738 q 426 697 383 738 l 458 1003 q 546 1047 463 1047 l 585 1047 q 664 1003 668 1047 l 638 764 q 578 185 578 206 q 596 154 578 154 q 606 156 601 154 q 615 157 610 157 q 630 144 625 157 q 635 117 635 132 q 599 25 635 61 q 499 -11 564 -11 q 378 99 393 -11 q 310 19 354 50 q 214 -11 267 -11 m 301 157 q 375 213 342 157 l 411 556 q 356 575 386 575 q 290 526 314 575 q 253 363 265 476 q 247 271 247 317 q 260 184 247 211 q 301 157 274 157 m 700 0 q 679 38 688 0 q 674 106 671 76 q 678 125 674 113 l 960 564 l 776 564 q 742 614 742 564 l 743 633 l 746 657 q 761 710 750 693 q 793 726 772 726 l 1189 726 q 1208 688 1199 726 q 1215 619 1218 649 q 1210 599 1215 610 l 928 163 l 1135 163 q 1169 113 1169 163 l 1168 93 l 1165 69 q 1150 17 1161 33 q 1118 0 1139 0 l 700 0 z "},"ǆ":{"ha":1231,"x_min":40,"x_max":1215,"o":"m 214 -11 q 88 63 135 -11 q 40 274 40 138 q 46 367 40 322 q 135 641 64 544 q 317 738 207 738 q 426 697 383 738 l 458 1003 q 546 1047 463 1047 l 585 1047 q 664 1003 668 1047 l 638 764 q 578 185 578 206 q 596 154 578 154 q 606 156 601 154 q 615 157 610 157 q 630 144 625 157 q 635 117 635 132 q 599 25 635 61 q 499 -11 564 -11 q 378 99 393 -11 q 310 19 354 50 q 214 -11 267 -11 m 301 157 q 375 213 342 157 l 411 556 q 356 575 386 575 q 290 526 314 575 q 253 363 265 476 q 247 271 247 317 q 260 184 247 211 q 301 157 274 157 m 700 0 q 679 38 688 0 q 674 106 671 76 q 678 125 674 113 l 960 564 l 776 564 q 742 614 742 564 l 743 633 l 746 657 q 761 710 750 693 q 793 726 772 726 l 1189 726 q 1208 688 1199 726 q 1215 619 1218 649 q 1210 599 1215 610 l 928 163 l 1135 163 q 1169 113 1169 163 l 1168 93 l 1165 69 q 1150 17 1161 33 q 1118 0 1139 0 l 700 0 m 990 794 q 942 799 958 794 q 917 821 925 804 l 849 960 q 842 983 842 976 q 872 997 843 997 l 910 997 q 952 991 936 997 q 976 971 968 985 l 1006 908 l 1049 972 q 1122 997 1064 997 l 1161 997 q 1188 983 1189 997 q 1175 960 1188 978 l 1078 821 q 1047 799 1065 804 q 999 794 1029 794 l 990 794 z "},"e":{"ha":631,"x_min":44,"x_max":613,"o":"m 613 540 q 579 405 613 464 q 488 314 546 346 q 356 282 429 282 q 253 290 294 282 q 283 181 254 211 q 363 151 311 151 q 434 164 404 151 q 494 196 464 176 q 526 213 518 213 q 547 194 540 213 q 554 146 554 175 q 536 65 554 97 q 449 8 515 28 q 322 -11 383 -11 q 113 67 182 -11 q 44 286 44 144 q 129 611 44 485 q 382 738 214 738 q 561 676 510 738 q 613 540 613 614 m 304 406 q 394 431 363 406 q 426 510 426 457 q 371 575 426 575 q 263 406 293 575 l 304 406 z "},"é":{"ha":631,"x_min":44,"x_max":613,"o":"m 613 540 q 579 405 613 464 q 488 314 546 346 q 356 282 429 282 q 253 290 294 282 q 283 181 254 211 q 363 151 311 151 q 434 164 404 151 q 494 196 464 176 q 526 213 518 213 q 547 194 540 213 q 554 146 554 175 q 536 65 554 97 q 449 8 515 28 q 322 -11 383 -11 q 113 67 182 -11 q 44 286 44 144 q 129 611 44 485 q 382 738 214 738 q 561 676 510 738 q 613 540 613 614 m 304 406 q 394 431 363 406 q 426 510 426 457 q 371 575 426 575 q 263 406 293 575 l 304 406 m 339 799 q 307 803 315 799 q 299 819 299 808 q 308 847 299 828 q 333 897 317 867 l 376 982 q 486 1019 396 1019 q 543 1015 525 1019 q 561 1000 561 1011 q 551 978 561 992 q 517 933 542 964 q 485 893 504 917 q 439 833 467 869 q 406 808 426 817 q 339 799 385 799 z "},"ĕ":{"ha":631,"x_min":44,"x_max":613,"o":"m 613 540 q 579 405 613 464 q 488 314 546 346 q 356 282 429 282 q 253 290 294 282 q 283 181 254 211 q 363 151 311 151 q 434 164 404 151 q 494 196 464 176 q 526 213 518 213 q 547 194 540 213 q 554 146 554 175 q 536 65 554 97 q 449 8 515 28 q 322 -11 383 -11 q 113 67 182 -11 q 44 286 44 144 q 129 611 44 485 q 382 738 214 738 q 561 676 510 738 q 613 540 613 614 m 304 406 q 394 431 363 406 q 426 510 426 457 q 371 575 426 575 q 263 406 293 575 l 304 406 m 386 799 q 263 838 304 799 q 221 932 221 878 q 282 993 221 993 q 321 968 311 993 q 328 953 322 965 q 351 933 333 940 q 401 925 369 925 q 460 936 443 925 q 484 958 478 947 q 492 971 490 968 q 508 987 497 981 q 533 993 519 993 q 583 946 589 993 q 526 844 578 889 q 386 799 475 799 z "},"ě":{"ha":631,"x_min":44,"x_max":613,"o":"m 613 540 q 579 405 613 464 q 488 314 546 346 q 356 282 429 282 q 253 290 294 282 q 283 181 254 211 q 363 151 311 151 q 434 164 404 151 q 494 196 464 176 q 526 213 518 213 q 547 194 540 213 q 554 146 554 175 q 536 65 554 97 q 449 8 515 28 q 322 -11 383 -11 q 113 67 182 -11 q 44 286 44 144 q 129 611 44 485 q 382 738 214 738 q 561 676 510 738 q 613 540 613 614 m 304 406 q 394 431 363 406 q 426 510 426 457 q 371 575 426 575 q 263 406 293 575 l 304 406 m 382 794 q 333 799 350 794 q 308 821 317 804 l 240 960 q 233 983 233 976 q 264 997 235 997 l 301 997 q 344 991 328 997 q 368 971 360 985 l 397 908 l 440 972 q 514 997 456 997 l 553 997 q 579 983 581 997 q 567 960 579 978 l 469 821 q 439 799 457 804 q 390 794 421 794 l 382 794 z "},"ê":{"ha":631,"x_min":44,"x_max":613,"o":"m 613 540 q 579 405 613 464 q 488 314 546 346 q 356 282 429 282 q 253 290 294 282 q 283 181 254 211 q 363 151 311 151 q 434 164 404 151 q 494 196 464 176 q 526 213 518 213 q 547 194 540 213 q 554 146 554 175 q 536 65 554 97 q 449 8 515 28 q 322 -11 383 -11 q 113 67 182 -11 q 44 286 44 144 q 129 611 44 485 q 382 738 214 738 q 561 676 510 738 q 613 540 613 614 m 304 406 q 394 431 363 406 q 426 510 426 457 q 371 575 426 575 q 263 406 293 575 l 304 406 m 242 794 q 214 808 213 794 q 225 832 214 813 l 322 971 q 353 992 335 988 q 404 997 372 997 l 407 997 q 457 992 439 997 q 483 971 475 988 l 551 832 q 560 808 560 818 q 531 794 558 794 l 492 794 q 424 819 433 794 l 393 883 l 351 821 q 323 801 340 807 q 279 794 306 794 l 242 794 z "},"ế":{"ha":631,"x_min":44,"x_max":756,"o":"m 681 1206 q 738 1201 719 1206 q 756 1186 756 1197 q 746 1164 756 1178 q 711 1119 736 1150 q 680 1079 699 1103 q 633 1019 661 1056 q 600 994 621 1003 q 533 985 579 985 q 501 990 510 985 q 493 1006 493 994 q 502 1033 493 1014 q 528 1083 511 1053 l 571 1168 q 681 1206 590 1206 m 251 794 q 228 797 235 794 q 224 808 222 800 q 227 820 224 814 q 232 829 231 826 l 325 971 q 355 992 336 988 q 407 997 374 997 l 410 997 q 460 992 443 997 q 485 971 478 988 l 547 829 q 553 808 553 818 q 524 794 551 794 l 486 794 q 417 819 428 794 l 396 883 l 361 821 q 333 799 351 804 q 289 794 315 794 l 251 794 m 382 738 q 561 676 510 738 q 613 540 613 614 q 579 405 613 464 q 488 314 546 346 q 356 282 429 282 q 253 290 294 282 q 283 181 254 211 q 363 151 311 151 q 434 164 404 151 q 494 196 464 176 q 526 213 518 213 q 547 194 540 213 q 554 146 554 175 q 536 65 554 97 q 449 8 515 28 q 322 -11 383 -11 q 113 67 182 -11 q 44 286 44 144 q 129 611 44 485 q 382 738 214 738 m 304 406 q 394 431 363 406 q 426 510 426 457 q 371 575 426 575 q 263 406 293 575 l 304 406 z "},"ệ":{"ha":631,"x_min":44,"x_max":613,"o":"m 613 540 q 579 405 613 464 q 488 314 546 346 q 356 282 429 282 q 253 290 294 282 q 283 181 254 211 q 363 151 311 151 q 434 164 404 151 q 494 196 464 176 q 526 213 518 213 q 547 194 540 213 q 554 146 554 175 q 536 65 554 97 q 449 8 515 28 q 322 -11 383 -11 q 113 67 182 -11 q 44 286 44 144 q 129 611 44 485 q 382 738 214 738 q 561 676 510 738 q 613 540 613 614 m 304 406 q 394 431 363 406 q 426 510 426 457 q 371 575 426 575 q 263 406 293 575 l 304 406 m 290 -283 q 199 -239 192 -283 l 207 -156 q 304 -111 211 -111 q 397 -156 401 -111 l 389 -239 q 290 -283 382 -283 m 242 794 q 214 808 213 794 q 225 832 214 813 l 322 971 q 353 992 335 988 q 404 997 372 997 l 407 997 q 457 992 439 997 q 483 971 475 988 l 551 832 q 560 808 560 818 q 531 794 558 794 l 492 794 q 424 819 433 794 l 393 883 l 351 821 q 323 801 340 807 q 279 794 306 794 l 242 794 z "},"ề":{"ha":631,"x_min":44,"x_max":657,"o":"m 581 1168 q 638 1057 618 1097 q 657 1006 657 1017 q 649 989 657 993 q 617 985 640 985 q 550 994 571 985 q 518 1019 529 1004 l 447 1108 q 406 1161 418 1144 q 394 1186 394 1178 q 413 1201 394 1197 q 469 1206 431 1206 q 581 1168 560 1206 m 251 794 q 228 797 235 794 q 224 808 222 800 q 227 820 224 814 q 232 829 231 826 l 325 971 q 355 992 336 988 q 407 997 374 997 l 410 997 q 460 992 443 997 q 485 971 478 988 l 547 829 q 553 808 553 818 q 524 794 551 794 l 486 794 q 417 819 428 794 l 396 883 l 361 821 q 333 799 351 804 q 289 794 315 794 l 251 794 m 382 738 q 561 676 510 738 q 613 540 613 614 q 579 405 613 464 q 488 314 546 346 q 356 282 429 282 q 253 290 294 282 q 283 181 254 211 q 363 151 311 151 q 434 164 404 151 q 494 196 464 176 q 526 213 518 213 q 547 194 540 213 q 554 146 554 175 q 536 65 554 97 q 449 8 515 28 q 322 -11 383 -11 q 113 67 182 -11 q 44 286 44 144 q 129 611 44 485 q 382 738 214 738 m 304 406 q 394 431 363 406 q 426 510 426 457 q 371 575 426 575 q 263 406 293 575 l 304 406 z "},"ể":{"ha":631,"x_min":44,"x_max":746,"o":"m 592 1229 q 706 1200 665 1229 q 746 1119 746 1171 q 718 1053 746 1086 q 656 999 690 1021 q 607 978 621 978 q 558 990 583 978 q 532 1010 532 1001 q 568 1047 532 1021 q 610 1083 594 1067 q 625 1114 625 1099 q 612 1136 625 1128 q 581 1144 599 1144 q 545 1136 563 1144 q 522 1128 528 1128 q 497 1149 514 1128 q 481 1186 481 1171 q 518 1215 481 1200 q 592 1229 556 1229 m 251 794 q 228 797 235 794 q 224 808 222 800 q 227 820 224 814 q 232 829 231 826 l 325 971 q 355 992 336 988 q 407 997 374 997 l 410 997 q 460 992 443 997 q 485 971 478 988 l 547 829 q 553 808 553 818 q 524 794 551 794 l 486 794 q 417 819 428 794 l 396 883 l 361 821 q 333 799 351 804 q 289 794 315 794 l 251 794 m 382 738 q 561 676 510 738 q 613 540 613 614 q 579 405 613 464 q 488 314 546 346 q 356 282 429 282 q 253 290 294 282 q 283 181 254 211 q 363 151 311 151 q 434 164 404 151 q 494 196 464 176 q 526 213 518 213 q 547 194 540 213 q 554 146 554 175 q 536 65 554 97 q 449 8 515 28 q 322 -11 383 -11 q 113 67 182 -11 q 44 286 44 144 q 129 611 44 485 q 382 738 214 738 m 304 406 q 394 431 363 406 q 426 510 426 457 q 371 575 426 575 q 263 406 293 575 l 304 406 z "},"ễ":{"ha":631,"x_min":44,"x_max":613,"o":"m 251 1054 q 229 1069 236 1058 q 222 1090 222 1079 q 226 1113 222 1099 q 270 1182 240 1156 q 340 1208 300 1208 q 424 1186 365 1208 q 453 1176 432 1183 q 488 1168 475 1168 q 519 1190 503 1168 q 535 1208 528 1203 q 554 1214 543 1214 q 571 1211 560 1214 l 585 1207 q 613 1171 613 1197 q 610 1150 613 1161 q 565 1081 596 1108 q 494 1053 533 1053 q 413 1075 471 1053 q 385 1085 407 1076 q 349 1093 363 1093 q 317 1071 331 1093 q 282 1047 300 1047 q 265 1050 276 1047 l 251 1054 m 242 794 q 214 808 213 794 q 225 832 214 813 l 322 971 q 353 992 335 988 q 404 997 372 997 l 407 997 q 457 992 439 997 q 483 971 475 988 l 551 832 q 560 808 560 818 q 531 794 558 794 l 492 794 q 424 819 433 794 l 393 883 l 351 821 q 323 801 340 807 q 279 794 306 794 l 242 794 m 613 540 q 579 405 613 464 q 488 314 546 346 q 356 282 429 282 q 253 290 294 282 q 283 181 254 211 q 363 151 311 151 q 434 164 404 151 q 494 196 464 176 q 526 213 518 213 q 547 194 540 213 q 554 146 554 175 q 536 65 554 97 q 449 8 515 28 q 322 -11 383 -11 q 113 67 182 -11 q 44 286 44 144 q 129 611 44 485 q 382 738 214 738 q 561 676 510 738 q 613 540 613 614 m 304 406 q 394 431 363 406 q 426 510 426 457 q 371 575 426 575 q 263 406 293 575 l 304 406 z "},"ë":{"ha":631,"x_min":44,"x_max":613,"o":"m 613 540 q 579 405 613 464 q 488 314 546 346 q 356 282 429 282 q 253 290 294 282 q 283 181 254 211 q 363 151 311 151 q 434 164 404 151 q 494 196 464 176 q 526 213 518 213 q 547 194 540 213 q 554 146 554 175 q 536 65 554 97 q 449 8 515 28 q 322 -11 383 -11 q 113 67 182 -11 q 44 286 44 144 q 129 611 44 485 q 382 738 214 738 q 561 676 510 738 q 613 540 613 614 m 304 406 q 394 431 363 406 q 426 510 426 457 q 371 575 426 575 q 263 406 293 575 l 304 406 m 276 803 q 201 847 194 803 l 210 931 q 292 975 214 975 q 368 931 372 975 l 360 847 q 276 803 353 803 m 501 803 q 426 847 419 803 l 435 931 q 517 975 439 975 q 593 931 597 975 l 585 847 q 501 803 578 803 z "},"ė":{"ha":631,"x_min":44,"x_max":613,"o":"m 613 540 q 579 405 613 464 q 488 314 546 346 q 356 282 429 282 q 253 290 294 282 q 283 181 254 211 q 363 151 311 151 q 434 164 404 151 q 494 196 464 176 q 526 213 518 213 q 547 194 540 213 q 554 146 554 175 q 536 65 554 97 q 449 8 515 28 q 322 -11 383 -11 q 113 67 182 -11 q 44 286 44 144 q 129 611 44 485 q 382 738 214 738 q 561 676 510 738 q 613 540 613 614 m 304 406 q 394 431 363 406 q 426 510 426 457 q 371 575 426 575 q 263 406 293 575 l 304 406 m 389 803 q 297 847 290 803 l 306 931 q 403 975 310 975 q 496 931 500 975 l 488 847 q 389 803 481 803 z "},"ẹ":{"ha":631,"x_min":44,"x_max":613,"o":"m 613 540 q 579 405 613 464 q 488 314 546 346 q 356 282 429 282 q 253 290 294 282 q 283 181 254 211 q 363 151 311 151 q 434 164 404 151 q 494 196 464 176 q 526 213 518 213 q 547 194 540 213 q 554 146 554 175 q 536 65 554 97 q 449 8 515 28 q 322 -11 383 -11 q 113 67 182 -11 q 44 286 44 144 q 129 611 44 485 q 382 738 214 738 q 561 676 510 738 q 613 540 613 614 m 304 406 q 394 431 363 406 q 426 510 426 457 q 371 575 426 575 q 263 406 293 575 l 304 406 m 290 -283 q 199 -239 192 -283 l 207 -156 q 304 -111 211 -111 q 397 -156 401 -111 l 389 -239 q 290 -283 382 -283 z "},"è":{"ha":631,"x_min":44,"x_max":613,"o":"m 613 540 q 579 405 613 464 q 488 314 546 346 q 356 282 429 282 q 253 290 294 282 q 283 181 254 211 q 363 151 311 151 q 434 164 404 151 q 494 196 464 176 q 526 213 518 213 q 547 194 540 213 q 554 146 554 175 q 536 65 554 97 q 449 8 515 28 q 322 -11 383 -11 q 113 67 182 -11 q 44 286 44 144 q 129 611 44 485 q 382 738 214 738 q 561 676 510 738 q 613 540 613 614 m 304 406 q 394 431 363 406 q 426 510 426 457 q 371 575 426 575 q 263 406 293 575 l 304 406 m 422 799 q 356 808 376 799 q 324 833 335 818 l 253 922 q 212 975 224 958 q 200 1000 200 992 q 218 1015 200 1011 q 275 1019 236 1019 q 386 982 365 1019 q 443 871 424 911 q 463 819 463 831 q 454 803 463 807 q 422 799 446 799 z "},"ẻ":{"ha":631,"x_min":44,"x_max":613,"o":"m 613 540 q 579 405 613 464 q 488 314 546 346 q 356 282 429 282 q 253 290 294 282 q 283 181 254 211 q 363 151 311 151 q 434 164 404 151 q 494 196 464 176 q 526 213 518 213 q 547 194 540 213 q 554 146 554 175 q 536 65 554 97 q 449 8 515 28 q 322 -11 383 -11 q 113 67 182 -11 q 44 286 44 144 q 129 611 44 485 q 382 738 214 738 q 561 676 510 738 q 613 540 613 614 m 304 406 q 394 431 363 406 q 426 510 426 457 q 371 575 426 575 q 263 406 293 575 l 304 406 m 413 792 q 363 803 389 792 q 338 824 338 815 q 374 861 338 835 q 415 897 400 881 q 431 928 431 913 q 417 950 431 942 q 386 958 404 958 q 351 950 368 958 q 328 942 333 942 q 303 963 319 942 q 286 1000 286 985 q 324 1028 286 1014 q 397 1043 361 1043 q 511 1014 471 1043 q 551 933 551 985 q 524 867 551 900 q 461 813 496 835 q 413 792 426 792 z "},"ē":{"ha":631,"x_min":44,"x_max":613,"o":"m 613 540 q 579 405 613 464 q 488 314 546 346 q 356 282 429 282 q 253 290 294 282 q 283 181 254 211 q 363 151 311 151 q 434 164 404 151 q 494 196 464 176 q 526 213 518 213 q 547 194 540 213 q 554 146 554 175 q 536 65 554 97 q 449 8 515 28 q 322 -11 383 -11 q 113 67 182 -11 q 44 286 44 144 q 129 611 44 485 q 382 738 214 738 q 561 676 510 738 q 613 540 613 614 m 304 406 q 394 431 363 406 q 426 510 426 457 q 371 575 426 575 q 263 406 293 575 l 304 406 m 257 829 q 228 842 236 829 q 222 885 219 856 l 225 906 q 239 948 228 935 q 271 961 250 961 l 536 961 q 572 921 572 961 l 571 906 l 568 885 q 556 842 567 856 q 522 829 544 829 l 257 829 z "},"ę":{"ha":631,"x_min":44,"x_max":632,"o":"m 590 -115 q 622 -124 613 -115 q 632 -157 632 -133 q 608 -200 632 -186 q 531 -217 574 -217 q 424 -175 451 -217 q 396 -86 396 -133 q 411 -1 396 -47 q 322 -11 367 -11 q 113 67 182 -11 q 44 286 44 144 q 129 611 44 485 q 382 738 214 738 q 561 676 510 738 q 613 540 613 614 q 579 405 613 464 q 488 314 546 346 q 356 282 429 282 q 253 290 294 282 q 283 181 254 211 q 363 151 311 151 q 434 164 404 151 q 494 196 464 176 q 526 213 518 213 q 547 194 540 213 q 554 146 554 175 q 536 65 554 97 q 510 38 529 53 q 489 -60 489 -10 q 557 -121 489 -121 q 576 -118 568 -121 q 590 -115 585 -115 m 371 575 q 263 406 293 575 l 304 406 q 394 431 363 406 q 426 510 426 457 q 371 575 426 575 z "},"ẽ":{"ha":631,"x_min":44,"x_max":613,"o":"m 613 540 q 579 405 613 464 q 488 314 546 346 q 356 282 429 282 q 253 290 294 282 q 283 181 254 211 q 363 151 311 151 q 434 164 404 151 q 494 196 464 176 q 526 213 518 213 q 547 194 540 213 q 554 146 554 175 q 536 65 554 97 q 449 8 515 28 q 322 -11 383 -11 q 113 67 182 -11 q 44 286 44 144 q 129 611 44 485 q 382 738 214 738 q 561 676 510 738 q 613 540 613 614 m 304 406 q 394 431 363 406 q 426 510 426 457 q 371 575 426 575 q 263 406 293 575 l 304 406 m 189 810 q 157 846 157 818 q 163 868 157 856 q 210 937 178 910 q 288 964 243 964 q 379 942 315 964 q 413 931 389 939 q 449 924 436 924 q 485 946 467 924 q 501 964 493 958 q 522 969 510 969 q 542 967 528 969 l 556 963 q 588 926 588 953 q 583 906 588 922 q 534 836 568 864 q 457 808 500 808 q 367 831 431 808 q 333 841 358 833 q 296 849 308 849 q 261 826 276 849 q 242 808 251 814 q 222 803 233 803 q 204 806 215 803 l 189 810 z "},"ə":{"ha":631,"x_min":18,"x_max":586,"o":"m 308 738 q 517 660 449 738 q 586 440 586 582 q 501 115 586 242 q 249 -11 417 -11 q 69 51 121 -11 q 18 186 18 113 q 51 322 18 263 q 143 413 85 381 q 275 444 201 444 q 378 436 336 444 q 348 545 376 515 q 268 575 319 575 q 197 563 226 575 q 136 531 167 550 q 104 514 113 514 q 83 533 90 514 q 76 581 76 551 q 94 661 76 629 q 181 718 115 699 q 308 738 247 738 m 260 151 q 368 321 338 151 l 326 321 q 236 295 268 321 q 204 217 204 269 q 260 151 204 151 z "},"f":{"ha":397,"x_min":47,"x_max":486,"o":"m 131 -3 q 51 42 47 -3 l 107 564 l 90 564 q 63 575 71 564 q 54 611 54 586 q 56 633 54 625 l 58 657 q 74 710 63 693 q 107 726 85 726 l 124 726 l 135 831 q 354 1056 160 1056 q 442 1039 399 1056 q 482 986 486 1022 q 463 927 479 968 q 428 886 446 886 q 410 890 424 886 q 390 893 396 893 q 355 878 367 893 q 340 833 343 864 l 329 726 l 375 726 q 403 715 394 726 q 411 679 411 704 q 410 657 411 665 l 407 633 q 392 581 403 597 q 358 564 381 564 l 313 564 l 257 42 q 169 -3 253 -3 l 131 -3 z "},"g":{"ha":654,"x_min":35,"x_max":628,"o":"m 546 729 q 628 694 628 729 l 567 114 q 472 -195 544 -96 q 258 -294 399 -294 q 106 -270 169 -294 q 38 -208 43 -246 q 35 -167 35 -186 q 42 -108 35 -132 q 64 -85 49 -85 q 90 -96 71 -85 q 147 -122 119 -111 q 213 -132 175 -132 q 310 -89 274 -132 q 353 38 346 -46 l 357 78 q 222 6 303 6 q 81 83 124 6 q 39 281 39 160 q 44 375 39 332 q 133 644 63 551 q 304 738 203 738 q 439 665 381 738 q 455 705 447 693 q 479 723 463 717 q 529 729 496 729 l 546 729 m 396 451 q 411 547 406 522 q 356 575 386 575 q 288 530 314 575 q 250 371 263 485 q 244 285 244 310 q 258 202 244 231 q 304 174 272 174 q 341 188 325 174 q 374 231 357 203 l 396 451 z "},"ğ":{"ha":654,"x_min":35,"x_max":628,"o":"m 546 729 q 628 694 628 729 l 567 114 q 472 -195 544 -96 q 258 -294 399 -294 q 106 -270 169 -294 q 38 -208 43 -246 q 35 -167 35 -186 q 42 -108 35 -132 q 64 -85 49 -85 q 90 -96 71 -85 q 147 -122 119 -111 q 213 -132 175 -132 q 310 -89 274 -132 q 353 38 346 -46 l 357 78 q 222 6 303 6 q 81 83 124 6 q 39 281 39 160 q 44 375 39 332 q 133 644 63 551 q 304 738 203 738 q 439 665 381 738 q 455 705 447 693 q 479 723 463 717 q 529 729 496 729 l 546 729 m 396 451 q 411 547 406 522 q 356 575 386 575 q 288 530 314 575 q 250 371 263 485 q 244 285 244 310 q 258 202 244 231 q 304 174 272 174 q 341 188 325 174 q 374 231 357 203 l 396 451 m 372 799 q 249 838 290 799 q 207 932 207 878 q 268 993 207 993 q 307 968 297 993 q 314 953 308 965 q 338 933 319 940 q 388 925 356 925 q 447 936 429 925 q 470 958 464 947 q 478 971 476 968 q 494 987 483 981 q 519 993 506 993 q 569 946 575 993 q 513 844 564 889 q 372 799 461 799 z "},"ĝ":{"ha":654,"x_min":35,"x_max":628,"o":"m 546 729 q 628 694 628 729 l 567 114 q 472 -195 544 -96 q 258 -294 399 -294 q 106 -270 169 -294 q 38 -208 43 -246 q 35 -167 35 -186 q 42 -108 35 -132 q 64 -85 49 -85 q 90 -96 71 -85 q 147 -122 119 -111 q 213 -132 175 -132 q 310 -89 274 -132 q 353 38 346 -46 l 357 78 q 222 6 303 6 q 81 83 124 6 q 39 281 39 160 q 44 375 39 332 q 133 644 63 551 q 304 738 203 738 q 439 665 381 738 q 455 705 447 693 q 479 723 463 717 q 529 729 496 729 l 546 729 m 396 451 q 411 547 406 522 q 356 575 386 575 q 288 530 314 575 q 250 371 263 485 q 244 285 244 310 q 258 202 244 231 q 304 174 272 174 q 341 188 325 174 q 374 231 357 203 l 396 451 m 228 794 q 200 808 199 794 q 211 832 200 813 l 308 971 q 340 992 321 988 q 390 997 358 997 l 393 997 q 443 992 425 997 q 469 971 461 988 l 538 832 q 546 808 546 818 q 517 794 544 794 l 478 794 q 410 819 419 794 l 379 883 l 338 821 q 309 801 326 807 q 265 794 292 794 l 228 794 z "},"ģ":{"ha":654,"x_min":35,"x_max":628,"o":"m 546 729 q 628 694 628 729 l 567 114 q 472 -195 544 -96 q 258 -294 399 -294 q 106 -270 169 -294 q 38 -208 43 -246 q 35 -167 35 -186 q 42 -108 35 -132 q 64 -85 49 -85 q 90 -96 71 -85 q 147 -122 119 -111 q 213 -132 175 -132 q 310 -89 274 -132 q 353 38 346 -46 l 357 78 q 222 6 303 6 q 81 83 124 6 q 39 281 39 160 q 44 375 39 332 q 133 644 63 551 q 304 738 203 738 q 439 665 381 738 q 455 705 447 693 q 479 723 463 717 q 529 729 496 729 l 546 729 m 396 451 q 411 547 406 522 q 356 575 386 575 q 288 530 314 575 q 250 371 263 485 q 244 285 244 310 q 258 202 244 231 q 304 174 272 174 q 341 188 325 174 q 374 231 357 203 l 396 451 m 421 1061 q 463 1053 443 1061 q 482 1031 482 1046 q 479 1001 482 1026 q 468 860 468 931 q 388 799 468 799 l 360 799 q 297 860 297 799 q 319 951 297 904 q 370 1029 340 997 q 421 1061 400 1061 z "},"ġ":{"ha":654,"x_min":35,"x_max":628,"o":"m 546 729 q 628 694 628 729 l 567 114 q 472 -195 544 -96 q 258 -294 399 -294 q 106 -270 169 -294 q 38 -208 43 -246 q 35 -167 35 -186 q 42 -108 35 -132 q 64 -85 49 -85 q 90 -96 71 -85 q 147 -122 119 -111 q 213 -132 175 -132 q 310 -89 274 -132 q 353 38 346 -46 l 357 78 q 222 6 303 6 q 81 83 124 6 q 39 281 39 160 q 44 375 39 332 q 133 644 63 551 q 304 738 203 738 q 439 665 381 738 q 455 705 447 693 q 479 723 463 717 q 529 729 496 729 l 546 729 m 396 451 q 411 547 406 522 q 356 575 386 575 q 288 530 314 575 q 250 371 263 485 q 244 285 244 310 q 258 202 244 231 q 304 174 272 174 q 341 188 325 174 q 374 231 357 203 l 396 451 m 375 803 q 283 847 276 803 l 292 931 q 389 975 296 975 q 482 931 486 975 l 474 847 q 375 803 467 803 z "},"h":{"ha":674,"x_min":21,"x_max":638,"o":"m 501 -11 q 406 26 440 -11 q 371 139 371 63 q 375 197 371 156 l 406 497 q 407 517 407 504 q 358 568 407 568 q 286 524 322 568 l 236 42 q 150 -3 231 -3 l 103 -3 q 28 42 21 -3 l 128 1003 q 151 1036 131 1025 q 214 1047 172 1047 l 261 1047 q 336 1003 343 1047 l 299 643 q 380 711 333 685 q 482 738 426 738 q 586 699 550 738 q 622 586 622 661 q 619 544 622 575 q 581 185 581 214 q 599 154 581 154 q 608 156 604 154 q 618 157 613 157 q 633 144 628 157 q 638 117 638 132 q 602 25 638 61 q 501 -11 567 -11 z "},"ħ":{"ha":674,"x_min":21,"x_max":638,"o":"m 618 157 q 633 144 628 157 q 638 117 638 132 q 602 25 638 61 q 501 -11 567 -11 q 406 26 440 -11 q 371 139 371 63 q 375 197 371 156 l 406 497 q 407 517 407 504 q 358 568 407 568 q 286 524 322 568 l 236 42 q 150 -3 231 -3 l 103 -3 q 28 42 21 -3 l 108 810 l 74 810 q 39 823 49 810 q 32 865 29 836 l 36 886 q 52 928 39 915 q 90 942 65 942 l 121 942 l 128 1003 q 151 1036 131 1025 q 214 1047 172 1047 l 261 1047 q 336 1003 343 1047 l 329 942 l 408 942 q 442 933 432 942 q 451 903 451 924 q 450 886 451 892 l 447 865 q 433 823 446 836 q 392 810 419 810 l 317 810 l 299 643 q 380 711 333 685 q 482 738 426 738 q 586 699 550 738 q 622 586 622 661 q 619 544 622 575 q 581 185 581 214 q 599 154 581 154 q 608 156 604 154 q 618 157 613 157 z "},"ĥ":{"ha":674,"x_min":28,"x_max":638,"o":"m 501 -11 q 406 26 440 -11 q 371 139 371 63 q 375 197 371 156 l 406 497 q 407 517 407 504 q 358 568 407 568 q 286 524 322 568 l 236 42 q 150 -3 231 -3 l 103 -3 q 28 42 21 -3 l 128 1003 q 151 1036 131 1025 q 214 1047 172 1047 l 261 1047 q 336 1003 343 1047 l 299 643 q 380 711 333 685 q 482 738 426 738 q 586 699 550 738 q 622 586 622 661 q 619 544 622 575 q 581 185 581 214 q 599 154 581 154 q 608 156 604 154 q 618 157 613 157 q 633 144 628 157 q 638 117 638 132 q 602 25 638 61 q 501 -11 567 -11 m 99 1082 q 71 1096 69 1082 q 82 1119 71 1100 l 179 1258 q 210 1280 192 1275 q 261 1285 229 1285 l 264 1285 q 314 1280 296 1285 q 340 1258 332 1275 l 408 1119 q 417 1096 417 1106 q 388 1082 415 1082 l 349 1082 q 281 1107 290 1082 l 250 1171 l 208 1108 q 180 1088 197 1094 q 136 1082 163 1082 l 99 1082 z "},"ḥ":{"ha":674,"x_min":28,"x_max":638,"o":"m 501 -11 q 406 26 440 -11 q 371 139 371 63 q 375 197 371 156 l 406 497 q 407 517 407 504 q 358 568 407 568 q 286 524 322 568 l 236 42 q 150 -3 231 -3 l 103 -3 q 28 42 21 -3 l 128 1003 q 151 1036 131 1025 q 214 1047 172 1047 l 261 1047 q 336 1003 343 1047 l 299 643 q 380 711 333 685 q 482 738 426 738 q 586 699 550 738 q 622 586 622 661 q 619 544 622 575 q 581 185 581 214 q 599 154 581 154 q 608 156 604 154 q 618 157 613 157 q 633 144 628 157 q 638 117 638 132 q 602 25 638 61 q 501 -11 567 -11 m 311 -283 q 219 -239 213 -283 l 228 -156 q 325 -111 232 -111 q 418 -156 422 -111 l 410 -239 q 311 -283 403 -283 z "},"i":{"ha":353,"x_min":40,"x_max":319,"o":"m 171 -11 q 75 26 110 -11 q 40 139 40 63 q 44 197 40 156 l 96 685 q 183 729 100 729 l 222 729 q 281 717 261 729 q 301 686 301 704 l 268 369 q 257 269 264 336 q 250 185 250 203 q 268 154 250 154 q 278 156 274 154 q 288 157 282 157 q 302 144 297 157 q 307 117 307 132 q 272 25 307 61 q 171 -11 236 -11 m 213 803 q 121 847 114 803 l 129 931 q 226 975 133 975 q 319 931 324 975 l 311 847 q 213 803 304 803 z "},"ı":{"ha":353,"x_min":40,"x_max":307,"o":"m 171 -11 q 75 26 110 -11 q 40 139 40 63 q 44 197 40 156 l 96 685 q 183 729 100 729 l 222 729 q 281 717 261 729 q 301 686 301 704 l 268 369 q 257 269 264 336 q 250 185 250 203 q 268 154 250 154 q 278 156 274 154 q 288 157 282 157 q 302 144 297 157 q 307 117 307 132 q 272 25 307 61 q 171 -11 236 -11 z "},"í":{"ha":353,"x_min":40,"x_max":388,"o":"m 171 -11 q 75 26 110 -11 q 40 139 40 63 q 44 197 40 156 l 96 685 q 183 729 100 729 l 222 729 q 281 717 261 729 q 301 686 301 704 l 268 369 q 257 269 264 336 q 250 185 250 203 q 268 154 250 154 q 278 156 274 154 q 288 157 282 157 q 302 144 297 157 q 307 117 307 132 q 272 25 307 61 q 171 -11 236 -11 m 165 799 q 133 803 142 799 q 125 819 125 808 q 134 847 125 828 q 160 897 143 867 l 203 982 q 313 1019 222 1019 q 369 1015 351 1019 q 388 1000 388 1011 q 378 978 388 992 q 343 933 368 964 q 312 893 331 917 q 265 833 293 869 q 232 808 253 817 q 165 799 211 799 z "},"ĭ":{"ha":353,"x_min":40,"x_max":410,"o":"m 171 -11 q 75 26 110 -11 q 40 139 40 63 q 44 197 40 156 l 96 685 q 183 729 100 729 l 222 729 q 281 717 261 729 q 301 686 301 704 l 268 369 q 257 269 264 336 q 250 185 250 203 q 268 154 250 154 q 278 156 274 154 q 288 157 282 157 q 302 144 297 157 q 307 117 307 132 q 272 25 307 61 q 171 -11 236 -11 m 213 799 q 89 838 131 799 q 47 932 47 878 q 108 993 47 993 q 147 968 138 993 q 154 953 149 965 q 178 933 160 940 q 228 925 196 925 q 287 936 269 925 q 310 958 304 947 q 318 971 317 968 q 335 987 324 981 q 360 993 346 993 q 410 946 415 993 q 353 844 404 889 q 213 799 301 799 z "},"î":{"ha":353,"x_min":40,"x_max":386,"o":"m 171 -11 q 75 26 110 -11 q 40 139 40 63 q 44 197 40 156 l 96 685 q 183 729 100 729 l 222 729 q 281 717 261 729 q 301 686 301 704 l 268 369 q 257 269 264 336 q 250 185 250 203 q 268 154 250 154 q 278 156 274 154 q 288 157 282 157 q 302 144 297 157 q 307 117 307 132 q 272 25 307 61 q 171 -11 236 -11 m 68 794 q 40 808 39 794 q 51 832 40 813 l 149 971 q 180 992 161 988 q 231 997 199 997 l 233 997 q 283 992 265 997 q 310 971 301 988 l 378 832 q 386 808 386 818 q 357 794 385 794 l 318 794 q 250 819 260 794 l 219 883 l 178 821 q 149 801 167 807 q 106 794 132 794 l 68 794 z "},"ï":{"ha":353,"x_min":28,"x_max":419,"o":"m 171 -11 q 75 26 110 -11 q 40 139 40 63 q 44 197 40 156 l 96 685 q 183 729 100 729 l 222 729 q 281 717 261 729 q 301 686 301 704 l 268 369 q 257 269 264 336 q 250 185 250 203 q 268 154 250 154 q 278 156 274 154 q 288 157 282 157 q 302 144 297 157 q 307 117 307 132 q 272 25 307 61 q 171 -11 236 -11 m 103 803 q 28 847 21 803 l 36 931 q 118 975 40 975 q 194 931 199 975 l 186 847 q 103 803 179 803 m 328 803 q 253 847 246 803 l 261 931 q 343 975 265 975 q 419 931 424 975 l 411 847 q 328 803 404 803 z "},"ị":{"ha":353,"x_min":40,"x_max":319,"o":"m 171 -11 q 75 26 110 -11 q 40 139 40 63 q 44 197 40 156 l 96 685 q 183 729 100 729 l 222 729 q 281 717 261 729 q 301 686 301 704 l 268 369 q 257 269 264 336 q 250 185 250 203 q 268 154 250 154 q 278 156 274 154 q 288 157 282 157 q 302 144 297 157 q 307 117 307 132 q 272 25 307 61 q 171 -11 236 -11 m 213 803 q 121 847 114 803 l 129 931 q 226 975 133 975 q 319 931 324 975 l 311 847 q 213 803 304 803 m 135 -283 q 43 -239 36 -283 l 51 -156 q 149 -111 56 -111 q 242 -156 246 -111 l 233 -239 q 135 -283 226 -283 z "},"ì":{"ha":353,"x_min":26,"x_max":307,"o":"m 171 -11 q 75 26 110 -11 q 40 139 40 63 q 44 197 40 156 l 96 685 q 183 729 100 729 l 222 729 q 281 717 261 729 q 301 686 301 704 l 268 369 q 257 269 264 336 q 250 185 250 203 q 268 154 250 154 q 278 156 274 154 q 288 157 282 157 q 302 144 297 157 q 307 117 307 132 q 272 25 307 61 q 171 -11 236 -11 m 249 799 q 182 808 203 799 q 150 833 161 818 l 79 922 q 38 975 50 958 q 26 1000 26 992 q 44 1015 26 1011 q 101 1019 63 1019 q 213 982 192 1019 q 269 871 250 911 q 289 819 289 831 q 281 803 289 807 q 249 799 272 799 z "}}}
